<svg width="365" height="533" viewBox="0 0 365 533" fill="none" xmlns="http://www.w3.org/2000/svg">
<path d="M178.115 524.034L176.443 526.857L168.365 525.77C168.871 524.673 169.282 523.01 169.581 520.745L170.305 515.421C170.533 513.745 170.579 512.113 170.434 510.518L178.822 511.658L177.32 513.955C176.358 513.283 175.299 512.867 174.148 512.71C174.007 512.689 173.645 512.651 173.062 512.594L172.401 517.518L177.395 518.206L175.645 520.463C174.762 519.874 173.609 519.45 172.166 519.194L171.452 524.485C173.29 524.607 174.419 524.655 174.843 524.634C175.973 524.617 177.066 524.415 178.115 524.034Z" fill="black"/>
<path d="M115.88 487.612L119.083 486.881C118.083 486.379 117.183 485.723 116.388 484.92C116.09 484.627 115.343 483.773 114.166 482.359L118.5 479.236C119.299 480.451 119.786 481.584 119.968 482.627L122.815 482.339L119.866 478.244L123.888 475.339C124.248 475.793 124.475 476.085 124.562 476.203C125.242 477.144 125.666 478.2 125.836 479.361L128.544 478.867L123.586 472.001C122.531 473.201 121.322 474.3 119.951 475.284L115.583 478.433C113.744 479.761 112.255 480.623 111.111 481.003L115.88 487.612Z" fill="black"/>
<path d="M119.222 465.669L116.753 466.472C116.593 465.641 116.382 464.963 116.143 464.445C115.949 464.036 115.578 463.435 115.03 462.643L108.027 467.585C106.205 468.876 104.909 470.007 104.142 470.972L102.177 468.185C103.25 467.864 104.77 467.011 106.745 465.616L113.677 460.724C112.971 459.848 112.434 459.221 112.067 458.819C111.445 458.157 110.817 457.617 110.199 457.184L112.707 456.435L119.222 465.669Z" fill="black"/>
<path d="M92.7266 455.985L94.9292 458.581C95.7319 457.429 96.6452 456.414 97.6799 455.537L102.836 451.147C104.151 450.015 105.42 449.174 106.644 448.606L104.427 446.009C103.669 447.117 102.624 448.234 101.312 449.351L96.0692 453.825C95.0959 454.646 93.9799 455.377 92.7266 455.985Z" fill="black"/>
<path d="M89.7883 448.128L88.0283 449.994C86.1817 449.421 84.7177 448.672 83.6337 447.748C81.9203 446.277 80.987 444.532 80.8403 442.526C80.6897 440.521 81.3497 438.665 82.8177 436.957C84.3923 435.124 86.2603 434.136 88.4217 433.981C90.5803 433.829 92.583 434.536 94.4057 436.106C95.3417 436.909 96.2003 437.928 96.9857 439.154L95.275 441.149C94.7363 439.474 93.9723 438.201 92.9723 437.332C91.675 436.226 90.2603 435.804 88.7283 436.069C87.299 436.306 86.0163 437.085 84.8777 438.416C83.7643 439.708 83.179 441.056 83.1243 442.46C83.0537 443.988 83.6497 445.293 84.9137 446.378C86.0563 447.362 87.6817 447.945 89.7883 448.128Z" fill="black"/>
<path d="M71.4016 435.536C72.7749 435.68 73.9469 435.22 74.9109 434.163C75.7136 433.291 76.0776 432.165 75.9963 430.807L75.3883 427.413C75.1749 426.2 75.2989 425.341 75.7763 424.821C76.1896 424.372 76.6789 424.151 77.2563 424.171C77.8043 424.174 78.3096 424.388 78.7682 424.811C79.2163 425.223 79.5189 425.684 79.6669 426.185C79.7469 426.455 79.8203 426.997 79.8976 427.816L81.7589 425.784C81.3416 424.897 80.8029 424.137 80.1322 423.527C79.1416 422.616 78.0683 422.127 76.9123 422.045C75.6603 421.955 74.5949 422.393 73.7029 423.367C72.9456 424.193 72.6163 425.277 72.7229 426.613L73.3522 429.972C73.5589 431.192 73.4176 432.073 72.9229 432.62C72.4403 433.135 71.8443 433.379 71.1296 433.341C70.4496 433.317 69.8469 433.059 69.3149 432.565C68.8283 432.128 68.5149 431.604 68.3696 431.005C68.2589 430.556 68.2336 429.94 68.2963 429.16L66.2776 431.359C66.6736 432.357 67.2229 433.188 67.9243 433.836C69.0123 434.828 70.1723 435.401 71.4016 435.536Z" fill="black"/>
<path d="M196.724 513.143L197.232 510.599L185.986 511.71L185.404 514.264C186.084 513.928 186.86 513.663 187.745 513.452C188.276 513.322 189.093 513.171 190.198 512.995L191.032 521.434C191.265 523.826 191.26 525.576 191.01 526.683L194.401 526.335C193.94 525.195 193.592 523.511 193.38 521.284L192.538 512.755C193.492 512.668 194.205 512.642 194.646 512.679C195.221 512.72 195.912 512.878 196.724 513.143Z" fill="black"/>
<path d="M244.62 490.689C245.729 491.584 246.273 492.721 246.224 494.099C246.169 495.331 245.672 496.53 244.75 497.686C244.158 498.429 243.368 499.034 242.39 499.494L240.07 497.626C240.846 497.637 241.45 497.569 241.901 497.434C242.486 497.246 242.992 496.901 243.398 496.382C243.849 495.818 244.065 495.199 244.052 494.522C244.038 493.802 243.753 493.217 243.205 492.781C242.628 492.327 241.745 492.234 240.541 492.527L237.226 493.385C235.906 493.573 234.794 493.322 233.932 492.613C232.896 491.794 232.385 490.76 232.396 489.5C232.396 488.346 232.817 487.243 233.664 486.19C234.224 485.485 234.934 484.893 235.802 484.419L237.945 486.143C237.141 486.27 236.604 486.383 236.338 486.475C235.846 486.662 235.406 486.993 235.034 487.467C234.638 487.955 234.458 488.475 234.48 489.018C234.513 489.593 234.765 490.07 235.245 490.453C235.781 490.887 236.653 490.958 237.857 490.661L241.193 489.83C242.552 489.658 243.698 489.944 244.62 490.689Z" fill="black"/>
<path d="M248.318 469.838L246.662 467.85L240.451 477.285L242.071 479.345C242.23 478.61 242.522 477.832 242.907 477.006C243.14 476.521 243.536 475.786 244.094 474.813L251.175 479.48C253.188 480.804 254.547 481.912 255.243 482.8L257.118 479.948C255.935 479.59 254.411 478.792 252.544 477.568L245.386 472.856C245.914 472.053 246.339 471.492 246.654 471.16C247.044 470.741 247.596 470.306 248.318 469.838Z" fill="black"/>
<path fill-rule="evenodd" clip-rule="evenodd" d="M270.24 460.301L268.664 462.585C266.266 463.153 263.232 463.445 259.552 463.469L261.316 464.689C262.75 465.68 264.177 466.454 265.62 467.01L263.672 469.812C262.953 468.892 261.797 467.881 260.204 466.778L254.888 463.094C253.808 462.35 252.526 461.67 251.013 461.054L251.977 459.665C253.209 457.889 254.302 456.69 255.264 456.06C256.758 455.077 258.273 455.113 259.786 456.162C261.24 457.172 261.758 458.744 261.316 460.881C264.068 461.006 267.04 460.813 270.24 460.301ZM258.464 458.296C256.942 457.242 255.412 457.658 253.885 459.546L258.994 463.084C259.488 462.168 259.732 461.322 259.712 460.538C259.677 459.601 259.266 458.856 258.464 458.296Z" fill="black"/>
<path d="M280.206 449.244L278.878 446.237C278.586 447.32 278.104 448.318 277.463 449.257C277.238 449.602 276.528 450.497 275.362 451.922L271.479 448.249C272.534 447.233 273.558 446.542 274.547 446.17L273.727 443.432L270.252 447.098L266.632 443.688C267.023 443.248 267.268 442.972 267.372 442.866C268.164 442.024 269.115 441.404 270.224 441.018L269.238 438.457L263.424 444.613C264.802 445.428 266.104 446.409 267.331 447.57L271.242 451.262C272.896 452.82 274.016 454.13 274.615 455.172L280.206 449.244Z" fill="black"/>
<path d="M296.448 434.094L294.2 436.144C293.563 435.856 292.461 435.558 290.885 435.239L281.557 433.379L285.364 437.562C286.737 439.062 287.956 440.151 289.063 440.827L286.727 442.951C286.068 441.707 285.096 440.39 283.812 438.975L278.24 432.856L275.367 432.478L278.029 430.059C278.812 430.326 279.915 430.592 281.328 430.894L292.039 433.139L287.641 428.303C286.221 426.752 284.932 425.596 283.76 424.848L286.093 422.719C286.883 424.118 287.921 425.52 289.219 426.932L293.112 431.198C294.263 432.458 295.367 433.427 296.448 434.094Z" fill="black"/>
<path d="M310.893 421.163L312.859 419.383C312.091 418.949 311.278 418.306 310.422 417.447C310.237 417.263 309.531 416.499 308.315 415.149L304.857 411.336C303.81 410.176 303.037 409.059 302.529 407.969L300.005 410.263C301.209 411.065 302.302 412.016 303.283 413.103L306.586 416.744C308.614 418.981 308.75 420.902 306.987 422.49C305.114 424.179 302.922 423.624 300.398 420.831L297.862 418.032C296.802 416.861 295.966 415.68 295.362 414.471L292.831 416.755C294.05 417.577 295.151 418.536 296.138 419.632L296.195 419.697C296.233 419.74 296.276 419.788 296.323 419.841C296.526 420.07 296.81 420.39 297.165 420.809L297.517 421.213C297.847 421.591 298.116 421.899 298.335 422.137C299.922 423.891 301.329 425.028 302.547 425.548C304.286 426.299 305.895 425.999 307.383 424.649C308.149 423.961 308.695 423.259 309.039 422.544C309.333 421.949 309.597 421.092 309.815 419.975L310.893 421.163Z" fill="black"/>
<path d="M324.294 404.008L325.54 407.048L319.778 412.823C319.213 411.756 318.133 410.416 316.524 408.816L312.716 405.02C311.516 403.827 310.237 402.808 308.89 401.961L314.86 395.958L315.792 398.548C314.672 398.912 313.706 399.5 312.88 400.317C312.773 400.424 312.529 400.688 312.133 401.12L315.646 404.63L319.213 401.056L319.958 403.82C318.958 404.159 317.92 404.828 316.841 405.821L320.628 409.592C321.828 408.197 322.549 407.324 322.794 406.983C323.461 406.067 323.964 405.075 324.294 404.008Z" fill="black"/>
<path fill-rule="evenodd" clip-rule="evenodd" d="M340.888 310.54C339.709 309.218 337.562 309.472 335.854 309.742C332.3 310.326 329.12 312.166 327.242 314.712C323.797 319.269 323.065 324.966 324.36 330.15C325.032 330.331 325.706 330.507 326.38 330.684C328.422 331.218 330.464 331.752 332.453 332.408C323.633 341.682 315.289 351.461 309.92 362.426C307.297 368.062 305.221 374.214 306.641 380.265C307.328 380.511 308.014 380.759 308.701 381.008L308.702 381.008C311.564 382.043 314.424 383.078 317.357 383.965C308.825 393.536 298.242 401.713 287.656 409.737C282.294 413.441 278.087 418.053 273.905 422.638L273.9 422.644C273.408 423.183 272.916 423.722 272.422 424.26C263.094 434.673 254.266 445.389 245.592 456.164C244.498 457.55 243.405 458.929 242.314 460.306L242.313 460.308C235.1 469.411 228.009 478.359 221.753 488.004C218.138 493.278 212.3 497.873 206.18 501.257C200.318 504.44 193.417 506.618 186.313 506.549C185.356 506.538 184.398 506.556 183.439 506.574C181.299 506.616 179.158 506.657 177.03 506.365C168.458 505.304 161.27 501.621 155.249 496.55C151.129 493.312 148.105 489.278 145.372 485.201C138.198 475.146 130.302 465.769 122.27 456.228L122.269 456.227C121.178 454.932 120.086 453.633 118.992 452.33C109.953 441.789 100.854 431.253 91.025 421.196C90.8627 421.032 90.7004 420.868 90.5381 420.705L90.5229 420.689C88.0782 418.222 85.6179 415.739 82.7103 413.625C70.957 405.144 59.1663 396.557 49.5143 386.394C50.9431 385.843 52.3841 385.318 53.8242 384.794L53.8253 384.793C56.0188 383.994 58.21 383.196 60.3517 382.308C60.3398 381.59 60.3518 380.872 60.3637 380.153C60.3894 378.611 60.4151 377.069 60.205 375.537C59.5583 371.706 58.1037 367.994 56.2863 364.432C50.6197 353.637 42.0743 344.046 33.0277 335.006C35.6717 334.118 38.3957 333.373 41.1197 332.653C41.513 330.562 41.813 328.433 41.4837 326.316C40.9863 322.382 39.497 318.345 36.049 315.461C33.689 313.409 30.2517 312.342 26.8557 312.22C25.4452 312.093 24.5336 312.925 23.6553 313.727C23.3529 314.003 23.0544 314.275 22.741 314.504C19.3343 317.594 15.1543 320.072 10.6317 321.96C9.50198 322.461 8.32811 322.897 7.15468 323.333C5.374 323.993 3.59435 324.654 1.97166 325.544C0.600319 326.264 0.671166 327.75 0.727095 328.922L0.727664 328.934C1.21433 334.594 3.10633 340.12 5.71033 345.357C8.25833 350.316 11.525 355.054 15.7383 359.196C16.5256 360.001 17.4714 360.675 18.4169 361.348C19.3674 362.025 20.3176 362.702 21.1063 363.512C24.236 366.636 26.6464 370.174 29.0425 373.691L29.0437 373.693C29.3922 374.205 29.7403 374.716 30.0903 375.225C26.2757 377.152 22.2917 378.865 18.173 380.322C18.0357 380.379 17.8955 380.434 17.7545 380.489C17.0111 380.781 16.2446 381.082 15.7503 381.633C15.3374 382.046 15.5421 382.537 15.7381 383.006C15.7991 383.153 15.8592 383.297 15.8997 383.436C16.2902 384.254 16.5652 385.103 16.8398 385.952C17.2317 387.163 17.623 388.373 18.349 389.485C21.1328 394.072 24.6086 398.336 28.0733 402.587L28.4077 402.997C34.3303 410.074 40.6277 416.965 47.7343 423.276C49.2053 424.595 50.7964 425.815 52.3888 427.036C53.5924 427.959 54.7967 428.882 55.9503 429.849C56.7998 430.561 57.6595 431.265 58.5192 431.968C60.2639 433.396 62.0085 434.824 63.6663 436.322C74.2223 445.548 84.3663 455.124 93.4703 465.354C98.041 470.538 102.42 475.865 105.77 481.65C113.104 495.53 123.994 508.198 137.809 518.252C147.64 525.222 159.489 530.746 172.522 532.137C172.983 532.17 173.387 532.2 173.761 532.228C175.797 532.379 176.93 532.464 181.448 532.566C188.729 532.729 198.956 531.92 205.133 530.322C218.513 526.846 229.956 519.622 239.398 511.265C248.664 502.914 256.521 493.444 262.12 483.108C265.805 475.38 271.437 468.414 277.188 461.629C287.07 450.3 297.928 439.516 309.698 429.47C312.016 427.375 314.55 425.458 317.083 423.542C319.148 421.98 321.212 420.419 323.158 418.761C329.398 413.69 335.209 408.224 340.27 402.336C344.158 397.724 347.693 392.836 349.83 387.49C350.914 384.938 351.16 382.22 351.402 379.546L351.433 379.201C350.943 378.339 349.852 377.94 348.816 377.561C348.552 377.464 348.291 377.369 348.045 377.268C344.034 375.937 340.204 374.31 336.458 372.544C336.86 371.936 337.257 371.326 337.655 370.716L337.656 370.714L337.66 370.708C339.742 367.513 341.83 364.308 344.485 361.4C345.456 360.296 346.656 359.367 347.855 358.437C349.123 357.454 350.391 356.472 351.388 355.285C357.862 348.016 362.182 339.468 364 330.594C364.057 330.233 364.121 329.87 364.184 329.506C364.539 327.475 364.901 325.403 364.336 323.401C363.35 322.124 361.63 321.535 359.953 320.961C359.379 320.765 358.81 320.57 358.278 320.35C351.701 318.18 345.537 314.974 340.888 310.54ZM318.201 385.624C322.857 380.912 327.256 375.526 327.794 369.289C333.729 373.392 340.658 376.392 347.792 378.821C347.96 378.909 348.166 378.983 348.377 379.058C348.986 379.277 349.632 379.509 349.51 380.125C349.524 385.496 346.761 390.534 343.649 395.146C336.549 405.292 326.862 414.038 316.472 421.982C311.09 425.853 306.258 430.19 301.436 434.519L300.732 435.15C289.922 445.136 279.685 455.561 270.729 466.732C267.154 471.288 263.789 475.978 261.221 480.99C258.428 486.748 254.609 492.124 250.458 497.289C243.005 506.336 234.018 514.646 223.218 521.086C213.781 526.666 203.685 530.586 191.94 530.94C190.924 530.969 190.082 531.007 189.288 531.043C186.945 531.149 185.016 531.236 180.248 531.037C171.022 531.256 161.898 529.09 153.804 525.542C142.33 520.48 132.672 512.994 124.68 504.624C120.008 499.84 115.882 494.701 112.312 489.328C110.914 487.305 109.736 485.192 108.558 483.079C107.21 480.661 105.861 478.242 104.182 475.958C95.973 464.54 85.637 454.266 75.0437 444.306C69.7543 439.313 64.1503 434.545 58.5383 429.796C57.7222 429.154 56.9017 428.515 56.0811 427.876L56.0798 427.875C53.5597 425.913 51.0377 423.949 48.6383 421.884C42.0263 415.946 36.1597 409.482 30.529 402.906C26.761 398.361 23.0183 393.765 19.9917 388.85C19.2653 387.697 18.8638 386.455 18.462 385.212C18.1476 384.239 17.8329 383.266 17.3623 382.334C25.0517 379.469 32.677 376.268 39.0023 371.604C39.241 373.804 39.6903 376.018 40.9157 378.008C43.8503 382.929 47.9183 387.32 52.2077 391.496C60.7064 399.613 70.4629 406.73 80.1937 413.828C81.099 414.488 82.0039 415.148 82.9077 415.809C87.469 419.735 91.4955 424.048 95.5129 428.351C96.0695 428.947 96.626 429.544 97.1837 430.138C107.104 440.949 116.596 452.005 125.836 463.201C127.028 464.67 128.22 466.127 129.408 467.58L129.41 467.582C135.242 474.711 140.974 481.72 146.12 489.293C152.352 498.065 161.925 505.19 174.164 507.437C177.64 508.094 181.216 508.217 184.778 508.094C192.062 508.268 199.302 506.468 205.505 503.381C211.12 500.574 216.77 496.822 220.526 492.396C222.456 490.215 223.882 488.153 225.394 485.965C225.96 485.147 226.538 484.311 227.158 483.445C234.849 472.44 243.237 461.782 251.786 451.213C260.42 440.645 269.182 430.129 278.628 420.018C279.119 419.522 279.605 419.019 280.092 418.517C282.177 416.362 284.272 414.197 286.854 412.422L287.038 412.283C298.051 403.919 309.142 395.497 318.201 385.624ZM41.7573 368.984C41.8439 368.883 41.9296 368.784 42.0117 368.685C42.2753 368.702 42.5425 368.712 42.8109 368.722L42.8122 368.722C43.7513 368.756 44.7034 368.791 45.5597 369.144C47.8543 370.08 49.3557 371.964 49.9303 373.97C50.933 377.146 53.041 380.098 56.2237 382.114C55.4336 382.386 54.6501 382.678 53.8659 382.971C52.0207 383.658 50.1715 384.347 48.2263 384.78C46.7139 383.4 45.5678 381.788 44.4278 380.184C44.1186 379.749 43.8098 379.314 43.4943 378.885C41.7517 376.546 40.9157 373.809 40.7517 371.086C40.6448 370.274 41.2166 369.611 41.7573 368.984ZM316.479 372.034C316.941 370.674 317.404 369.313 318.565 368.234C319.857 367.022 321.846 365.993 323.877 366.304C325.218 366.485 325.794 367.737 325.75 368.733C325.549 370.958 325.1 373.209 323.898 375.225C322.401 377.788 320.6 380.244 318.565 382.542C316.213 381.753 313.837 380.998 311.459 380.242L310.57 379.96C312.672 378.308 314.594 376.425 315.636 374.161C315.987 373.481 316.233 372.757 316.479 372.034ZM8.31302 324.489C10.9813 323.468 13.6508 322.445 16.0717 321.05C18.144 319.989 19.994 318.695 21.8447 317.4C22.2957 317.085 22.7467 316.769 23.201 316.457C23.0743 319.484 23.629 322.506 24.6997 325.406C25.8143 328.396 26.985 331.492 29.4103 333.969C35.6503 339.548 41.125 345.678 46.129 352.024C50.7463 358.034 54.9677 364.352 57.349 371.22C58.5383 374.578 59.0183 378.093 58.6223 381.585C54.893 379.865 52.5437 376.669 51.5183 373.338C50.7957 370.958 48.9263 368.71 46.0823 367.76C44.1503 367.085 41.4063 366.886 39.9943 368.417C37.6837 370.818 34.6743 372.685 31.6077 374.393C30.8744 373.385 30.1647 372.355 29.453 371.323C26.7098 367.345 23.9384 363.327 19.689 360.306C16.705 358.242 14.453 355.6 12.4263 352.893C7.79433 346.689 4.45833 339.794 3.00633 332.6C2.96045 332.343 2.91194 332.087 2.86337 331.83C2.59858 330.429 2.33187 329.018 2.47834 327.598C2.45038 326.953 3.12437 326.643 3.74728 326.356C3.9265 326.273 4.1015 326.192 4.25434 326.106C5.58464 325.534 6.94867 325.012 8.31302 324.489ZM340.706 322.22L340.721 322.174C341.654 319.416 341.893 316.541 341.958 313.693C345.237 316.121 348.836 318.261 352.802 319.878C354.111 320.462 355.486 320.938 356.86 321.414C358.959 322.141 361.056 322.868 362.914 323.973C362.937 330.482 360.849 336.9 357.844 342.892C355.294 347.732 352.216 352.504 347.852 356.42C342.592 359.957 339.384 364.934 336.25 369.798L336.247 369.802C335.831 370.446 335.417 371.089 335 371.726C331.945 370.122 328.885 368.412 326.586 366.074C325.661 365.068 324.049 364.577 322.54 364.774C319.964 365.144 317.638 366.466 316.305 368.305C315.575 369.252 315.222 370.321 314.869 371.39C314.684 371.949 314.499 372.508 314.261 373.049C313.18 375.612 311.084 377.889 308.276 379.338C307.337 376.309 308.088 373.173 308.806 370.173L308.816 370.134C310.485 364.126 313.724 358.505 317.354 353.138C320.81 348.09 324.698 343.228 328.948 338.605C331.13 336.162 333.357 333.733 335.873 331.498C338.501 328.847 339.628 325.46 340.706 322.22ZM25.3278 320.269C25.0296 318.009 24.7109 315.594 26.0677 313.52C26.3593 313.56 26.6531 313.597 26.9478 313.635C28.8705 313.882 30.8335 314.135 32.505 315.006C35.913 316.681 37.937 319.724 38.9317 322.801C39.781 325.652 40.2463 328.648 39.4917 331.55C38.2548 331.852 37.0446 332.224 35.8353 332.596C34.5065 333.005 33.178 333.414 31.817 333.728C28.017 330.086 26.1903 325.305 25.3743 320.624C25.3591 320.507 25.3436 320.389 25.328 320.271L25.3278 320.269ZM327.045 318.281C328.141 315.874 330.008 313.612 332.724 312.253C334.654 311.3 336.93 310.969 339.156 310.91C340.73 314.127 339.93 317.63 339.179 320.92L339.106 321.24C338.106 324.789 336.492 328.32 333.652 331.177C332.176 330.702 330.67 330.306 329.167 329.911C328.117 329.635 327.068 329.359 326.032 329.057C324.994 325.502 325.584 321.705 327.045 318.281Z" fill="black"/>
<path d="M115.903 54.9215C115.903 53.8588 115.033 52.9935 113.973 52.9935C112.911 52.9935 112.049 53.8588 112.049 54.9215C112.049 55.9828 112.911 56.8441 113.973 56.8441C115.033 56.8441 115.903 55.9828 115.903 54.9215Z" fill="black"/>
<path d="M121.218 49.2034C121.218 48.1407 120.351 47.2793 119.291 47.2793C118.226 47.2793 117.367 48.1407 117.367 49.2034C117.367 50.2647 118.226 51.1314 119.291 51.1314C120.351 51.1314 121.218 50.2647 121.218 49.2034Z" fill="black"/>
<path d="M127.051 44.2996C127.051 43.2356 126.191 42.377 125.128 42.377C124.068 42.377 123.2 43.2356 123.2 44.2996C123.2 45.361 124.068 46.2236 125.128 46.2236C126.191 46.2236 127.051 45.361 127.051 44.2996Z" fill="black"/>
<path d="M133.331 39.4919C133.331 38.4226 132.466 37.5639 131.406 37.5639C130.34 37.5639 129.48 38.4226 129.48 39.4919C129.48 40.5479 130.34 41.4146 131.406 41.4146C132.466 41.4146 133.331 40.5479 133.331 39.4919Z" fill="black"/>
<path d="M139.839 35.4051C139.839 34.3411 138.971 33.4811 137.916 33.4811C136.856 33.4811 135.987 34.3411 135.987 35.4051C135.987 36.4678 136.856 37.3278 137.916 37.3278C138.971 37.3278 139.839 36.4678 139.839 35.4051Z" fill="black"/>
<path d="M147.155 31.6442C147.155 30.5748 146.291 29.7162 145.229 29.7162C144.166 29.7162 143.299 30.5748 143.299 31.6442C143.299 32.7002 144.166 33.5682 145.229 33.5682C146.291 33.5682 147.155 32.7002 147.155 31.6442Z" fill="black"/>
<path d="M154.388 28.6616C154.388 27.6003 153.522 26.739 152.459 26.739C151.406 26.739 150.536 27.6003 150.536 28.6616C150.536 29.723 151.406 30.5856 152.459 30.5856C153.522 30.5856 154.388 29.723 154.388 28.6616Z" fill="black"/>
<path d="M161.587 26.6824C161.587 25.6185 160.726 24.7598 159.666 24.7598C158.602 24.7598 157.737 25.6185 157.737 26.6824C157.737 27.7438 158.602 28.6065 159.666 28.6065C160.726 28.6065 161.587 27.7438 161.587 26.6824Z" fill="black"/>
<path d="M251.833 54.9215C251.833 53.8588 250.974 52.9935 249.912 52.9935C248.849 52.9935 247.982 53.8588 247.982 54.9215C247.982 55.9828 248.849 56.8441 249.912 56.8441C250.974 56.8441 251.833 55.9828 251.833 54.9215Z" fill="black"/>
<path d="M246.51 49.2034C246.51 48.1407 245.654 47.2793 244.591 47.2793C243.526 47.2793 242.659 48.1407 242.659 49.2034C242.659 50.2647 243.526 51.1314 244.591 51.1314C245.654 51.1314 246.51 50.2647 246.51 49.2034Z" fill="black"/>
<path d="M240.677 44.2996C240.677 43.2356 239.815 42.377 238.755 42.377C237.69 42.377 236.829 43.2356 236.829 44.2996C236.829 45.361 237.69 46.2236 238.755 46.2236C239.815 46.2236 240.677 45.361 240.677 44.2996Z" fill="black"/>
<path d="M234.401 39.4919C234.401 38.4226 233.545 37.5639 232.474 37.5639C231.417 37.5639 230.553 38.4226 230.553 39.4919C230.553 40.5479 231.417 41.4146 232.474 41.4146C233.545 41.4146 234.401 40.5479 234.401 39.4919Z" fill="black"/>
<path d="M227.896 35.4072C227.896 34.3392 227.029 33.4792 225.964 33.4792C224.912 33.4792 224.048 34.3392 224.048 35.4072C224.048 36.4632 224.912 37.3313 225.964 37.3313C227.029 37.3313 227.896 36.4632 227.896 35.4072Z" fill="black"/>
<path d="M220.58 31.6442C220.58 30.5748 219.724 29.7162 218.654 29.7162C217.594 29.7162 216.727 30.5748 216.727 31.6442C216.727 32.7002 217.594 33.5682 218.654 33.5682C219.724 33.5682 220.58 32.7002 220.58 31.6442Z" fill="black"/>
<path d="M213.346 28.6616C213.346 27.6003 212.479 26.739 211.419 26.739C210.362 26.739 209.495 27.6003 209.495 28.6616C209.495 29.723 210.362 30.5856 211.419 30.5856C212.479 30.5856 213.346 29.723 213.346 28.6616Z" fill="black"/>
<path d="M206.148 26.6824C206.148 25.6185 205.282 24.7598 204.216 24.7598C203.148 24.7598 202.295 25.6185 202.295 26.6824C202.295 27.7438 203.148 28.6065 204.216 28.6065C205.282 28.6065 206.148 27.7438 206.148 26.6824Z" fill="black"/>
<path d="M61.3236 188.953L52.7889 192.64L54.4102 196.386L61.1142 193.489L62.5995 196.928L55.8929 199.818L57.6169 203.808L66.1476 200.12L67.7102 203.732L54.9142 209.264L47.0222 191.008L59.8169 185.475L61.3236 188.953Z" fill="black"/>
<path d="M75.3093 178.778L83.1959 197.035L79.6213 198.582L67.2799 189.279C67.3301 189.386 67.3739 189.48 67.4119 189.561C67.4849 189.718 67.5359 189.827 67.5666 189.887C67.7399 190.183 67.8773 190.435 67.9679 190.647L72.6839 201.582L69.4186 202.994L61.5266 184.738L66.0519 182.778L76.7986 190.911C76.5159 190.403 76.3173 190.006 76.1973 189.733L72.0719 180.179L75.3093 178.778Z" fill="black"/>
<path d="M99.9434 189.798L95.7207 180.035L88.3594 183.219L89.8314 186.631L93.2074 185.174C93.6794 186.271 93.7314 187.197 93.3514 187.945C92.9807 188.702 92.4167 189.245 91.6661 189.567C90.4994 190.071 89.3901 189.967 88.3314 189.25C87.2754 188.525 86.3434 187.234 85.5314 185.361C84.6901 183.417 84.3381 181.794 84.4634 180.497C84.5954 179.199 85.2261 178.306 86.3661 177.813C88.1007 177.062 89.6007 177.726 90.8834 179.797L94.6447 177.533C93.5514 175.755 92.1447 174.559 90.4314 173.947C88.7101 173.331 86.8527 173.457 84.8594 174.323C82.4754 175.347 80.9767 177.046 80.3514 179.413C79.7261 181.771 80.0434 184.411 81.3034 187.317C82.4701 190.017 84.0727 191.938 86.1087 193.077C88.1394 194.222 90.3327 194.289 92.6621 193.274C94.6461 192.427 95.9287 190.923 96.5181 188.79C97.0887 189.393 97.5834 189.999 98.0261 190.629L99.9434 189.798Z" fill="black"/>
<path d="M98.7404 168.654L106.632 186.908L102.442 188.723L94.551 170.467L98.7404 168.654Z" fill="black"/>
<path d="M123.199 179.748L115.312 161.492L112.068 162.893L116.195 172.446C116.313 172.72 116.515 173.116 116.799 173.624L106.056 165.49L101.529 167.445L109.416 185.7L112.689 184.294L107.968 173.361C107.88 173.146 107.741 172.896 107.572 172.598C107.521 172.504 107.424 172.305 107.281 171.992L119.621 181.29L123.199 179.748Z" fill="black"/>
<path d="M132.397 158.233L123.863 161.918L125.486 165.666L132.19 162.765L133.673 166.204L126.971 169.1L128.698 173.082L137.223 169.401L138.786 173.012L125.989 178.538L118.098 160.288L130.897 154.758L132.397 158.233Z" fill="black"/>
<path d="M138.383 155.642L146.915 151.958L145.415 148.48L132.613 154.011L140.507 172.266L153.304 166.734L151.74 163.126L143.213 166.81L141.487 162.823L148.189 159.932L146.705 156.492L140.001 159.39L138.383 155.642Z" fill="black"/>
<path fill-rule="evenodd" clip-rule="evenodd" d="M156.115 156.931L159.236 164.165L155.012 165.996L147.121 147.739L155.003 144.339C156.449 143.709 157.687 143.38 158.713 143.343C159.741 143.304 160.745 143.621 161.723 144.288C162.689 144.952 163.425 145.851 163.908 146.973C164.852 149.164 164.499 151.185 162.836 153.037L169.633 159.675L164.995 161.687L159.119 155.635L156.115 156.931ZM152.755 149.164L154.765 153.82L157.339 152.709C158.176 152.347 158.764 152.017 159.093 151.732C159.413 151.448 159.64 151.037 159.757 150.496C159.88 149.952 159.824 149.411 159.591 148.872C159.369 148.365 159.025 147.973 158.557 147.701C158.083 147.435 157.651 147.324 157.263 147.383C156.875 147.444 156.192 147.675 155.235 148.092L152.755 149.164Z" fill="black"/>
<path d="M175.564 157.526L170.145 138.391L165.753 139.635L171.173 158.766L175.564 157.526Z" fill="black"/>
<path d="M191.909 136.637L192.026 156.525L188.133 156.54L180.413 143.16C180.424 143.499 180.434 143.72 180.448 143.829C180.485 144.168 180.508 144.452 180.508 144.689L180.577 156.592L177.02 156.613L176.896 136.731L181.826 136.696L188.537 148.387C188.474 147.805 188.442 147.36 188.442 147.059L188.378 136.659L191.909 136.637Z" fill="black"/>
<path d="M206.782 162.981L211.102 153.265L203.782 149.998L202.266 153.396L205.626 154.892C205.132 155.982 204.49 156.645 203.683 156.88C202.872 157.117 202.086 157.064 201.344 156.73C200.18 156.217 199.514 155.322 199.326 154.065C199.13 152.798 199.462 151.232 200.287 149.372C201.154 147.436 202.099 146.077 203.138 145.289C204.186 144.505 205.274 144.364 206.404 144.874C208.126 145.641 208.67 147.202 208.008 149.54L212.214 150.777C212.79 148.768 212.714 146.921 211.998 145.246C211.295 143.565 209.946 142.284 207.954 141.401C205.583 140.345 203.323 140.386 201.164 141.525C199 142.67 197.274 144.688 195.979 147.578C194.787 150.269 194.456 152.746 194.995 155.016C195.536 157.289 196.959 158.945 199.29 159.981C201.26 160.856 203.224 160.79 205.206 159.777C205.14 160.598 205.036 161.388 204.867 162.133L206.782 162.981Z" fill="black"/>
<path d="M233.781 158.028L229.688 157.655C229.844 156.005 229.159 154.835 227.62 154.149C225.961 153.412 224.893 153.589 224.409 154.683C224.211 155.112 224.205 155.552 224.375 155.991C224.547 156.435 225.131 157.003 226.12 157.709C227.765 158.893 228.935 159.863 229.609 160.625C230.284 161.379 230.721 162.312 230.912 163.417C231.128 164.524 230.987 165.591 230.516 166.643C229.789 168.287 228.531 169.425 226.763 170.075C224.997 170.713 222.883 170.495 220.451 169.411C218.623 168.601 217.248 167.483 216.352 166.061C215.443 164.644 215.167 163.007 215.497 161.153L219.755 161.989C219.443 163.877 220.273 165.261 222.248 166.144C223.2 166.573 224.003 166.699 224.643 166.535C225.273 166.364 225.713 166.019 225.94 165.492C226.188 164.968 226.151 164.452 225.865 163.971C225.565 163.489 224.865 162.848 223.763 162.048C221.708 160.557 220.388 159.184 219.787 157.923C219.183 156.663 219.243 155.236 219.959 153.641C220.675 152.024 221.863 150.92 223.511 150.329C225.159 149.729 226.961 149.873 228.937 150.753C232.429 152.309 234.047 154.736 233.781 158.028Z" fill="black"/>
<path fill-rule="evenodd" clip-rule="evenodd" d="M232.1 171.301C232.592 173.725 234.037 175.47 236.438 176.538C238.948 177.658 241.258 177.602 243.368 176.375C245.482 175.147 247.125 173.207 248.297 170.578C249.388 168.139 249.721 165.689 249.302 163.229C248.876 160.77 247.42 158.989 244.94 157.879C242.466 156.782 240.174 156.825 238.06 158.005C235.942 159.186 234.284 161.103 233.097 163.754C231.938 166.362 231.602 168.877 232.1 171.301ZM237.45 165.759C239.204 161.837 241.172 160.363 243.357 161.339C245.482 162.285 245.666 164.726 243.912 168.651C242.166 172.573 240.229 174.065 238.112 173.117C235.922 172.141 235.706 169.686 237.45 165.759Z" fill="black"/>
<path d="M265.633 175.546L261.135 173.875C262.221 171.286 261.807 169.563 259.911 168.715C257.731 167.747 255.761 169.231 253.994 173.179C252.985 175.459 252.591 177.14 252.818 178.212C253.054 179.292 253.701 180.066 254.771 180.543C256.493 181.307 258.057 180.635 259.461 178.515L263.393 180.574C262.166 182.627 260.638 183.931 258.797 184.468C256.971 185.011 255.097 184.846 253.177 183.992C250.813 182.939 249.258 181.254 248.523 178.943C247.794 176.618 248.073 174 249.381 171.076C250.605 168.334 252.307 166.406 254.521 165.292C256.726 164.184 259.07 164.18 261.542 165.28C265.826 167.192 267.19 170.611 265.633 175.546Z" fill="black"/>
<path d="M266.313 189.514L274.412 171.352L270.245 169.496L262.141 187.658L266.313 189.514Z" fill="black"/>
<path d="M288.302 181.688L279.899 177.945L278.232 181.671L284.907 184.644L283.375 188.063L276.711 185.087L274.935 189.052L283.432 192.837L281.828 196.431L269.096 190.756L277.192 172.593L289.922 178.263L289.919 178.267L307.477 186.087L307.815 194.478L314.257 189.113L318.005 190.782L307.724 198.794L304.312 206.447L300.139 204.591L303.547 196.938L302.678 184.605L301.321 187.649L296.909 185.685L290.414 200.256L286.179 198.371L292.677 183.803L288.242 181.823L288.302 181.688Z" fill="black"/>
<path d="M167.104 401.81C146.856 408.63 142.464 411.777 141.948 412.35C140.961 413.445 146.012 412.604 153.447 411.366L153.449 411.366C162.306 409.892 174.545 407.855 183.993 407.855C194.469 407.855 207.12 409.582 215.897 410.78C221.678 411.569 225.779 412.128 226.469 411.814C227.652 411.273 221.42 405.902 210.057 403.978C203.149 402.807 196.586 398.799 195.344 397.237C193.876 395.393 194.013 372.274 194.368 370.925C195.01 368.422 200.813 360.789 203.985 360.789C205.287 360.789 207.063 361.437 209.116 362.186C212.069 363.264 215.599 364.553 219.125 364.426C222.013 364.33 226.654 363.677 227.584 360.895C228.126 359.265 227.522 356.981 227.022 355.088C226.613 353.54 226.273 352.253 226.688 351.803C227.712 350.701 229.195 351.36 230.908 352.121C232.177 352.686 233.572 353.306 235 353.306C236.776 353.306 241.237 352.354 242.297 349.427C242.826 347.966 242.338 345.912 241.936 344.222C241.605 342.832 241.333 341.688 241.734 341.323C242.604 340.529 244.647 340.042 246.847 339.518C249.37 338.916 252.1 338.265 253.508 337.045C257.753 333.357 255.789 332.211 254.1 331.227C253.339 330.783 252.634 330.372 252.578 329.775C252.52 329.204 253.12 328.368 253.853 327.346C255.588 324.928 258.071 321.468 254.336 318.007C250.747 314.682 248.386 317.319 246.542 319.377C245.658 320.365 244.893 321.219 244.169 321.219C243.222 321.219 243.065 320.575 242.881 319.822C242.629 318.787 242.326 317.546 239.846 317.501C237.384 317.453 235.222 321.269 233.377 324.528C232.02 326.925 230.833 329.019 229.824 329.054C228.661 329.092 228.381 328.488 228.093 327.866C227.789 327.209 227.476 326.532 226.109 326.565C221.777 326.665 219.877 331.606 218.447 335.326C217.586 337.567 216.895 339.365 215.945 339.393C214.696 339.438 214.343 338.709 213.987 337.973C213.625 337.227 213.261 336.474 211.956 336.515C208.63 336.611 207.203 340.051 205.558 344.015C204.533 346.485 203.424 349.159 201.718 351.353C198.98 354.879 195.516 356.087 194.368 356.087C191.349 356.087 191.56 355.365 191.56 355.365C191.56 355.365 191.493 337.721 191.844 336.515C192.196 335.306 195.482 330.979 197.161 330.979C197.235 330.979 197.328 330.98 197.439 330.983C197.576 330.985 197.74 330.989 197.928 330.994L198.118 330.999C201.387 331.085 210.525 331.325 212.437 329.122C213.802 327.564 213.845 325.814 213.875 324.548C213.893 323.799 213.907 323.219 214.19 322.95C214.428 322.73 215.207 322.706 216.243 322.674C218.584 322.602 222.239 322.491 223.937 319.987C225.458 317.746 225.253 315.628 225.096 314.019C225.001 313.036 224.924 312.243 225.27 311.727C225.545 311.313 226.392 311.047 227.435 310.718C229.837 309.961 233.283 308.875 233.182 304.902C233.098 301.336 232.021 301.077 231.23 300.886C230.758 300.772 230.388 300.683 230.388 299.934C230.388 299.296 230.971 298.435 231.641 297.445C233.086 295.313 234.933 292.586 232.206 290.226C229.482 287.876 227.021 290.14 225.218 291.799C224.373 292.576 223.672 293.22 223.157 293.195C222.477 293.16 222.147 292.642 221.77 292.047C221.256 291.239 220.654 290.29 218.958 290.226C214.767 290.073 213.98 294.404 213.403 297.573C213.074 299.384 212.813 300.815 212.026 300.815C210.951 300.815 210.51 300.101 210.061 299.373C209.601 298.627 209.132 297.867 207.964 297.847C204.929 297.799 204.249 302.536 203.7 306.356C203.337 308.888 203.031 311.018 202.136 311.082C200.917 311.172 200.608 310.677 200.318 310.215C200.077 309.829 199.849 309.465 199.12 309.482C196.786 309.529 196.054 314.661 195.439 318.975C195.058 321.641 194.723 323.995 194.081 324.641C192.401 326.325 191.138 326.966 190.652 326.086C190.16 325.197 188.966 312.846 189.81 311.402C190.001 311.075 190.542 310.438 191.265 309.586C193.727 306.687 198.301 301.301 198.36 297.206C198.405 293.896 196.692 293.503 195.37 293.2C194.578 293.018 193.927 292.869 193.876 292.146C193.815 291.354 194.449 290.574 195.215 289.632C196.305 288.293 197.661 286.625 197.661 284.127C197.661 281.589 196.087 281.054 194.773 280.608C193.886 280.307 193.119 280.046 193.032 279.238C192.936 278.355 193.334 278.016 193.81 277.612C194.413 277.099 195.141 276.48 195.141 274.505C195.141 270.082 192.185 270.254 190.229 270.368C189.524 270.409 188.948 270.443 188.688 270.251C188.406 270.045 188.462 269.315 188.535 268.377C188.716 266.032 188.998 262.39 184.346 262.39C179.566 262.39 179.716 265.921 179.81 268.157C179.845 268.969 179.872 269.611 179.653 269.85C179.141 270.406 177.99 270.307 176.716 270.198C174.314 269.992 171.476 269.749 171.662 273.782C171.777 276.298 172.522 277.551 173.093 278.512C173.432 279.081 173.709 279.548 173.76 280.115C173.817 280.729 173.045 281.096 172.097 281.545C170.691 282.213 168.899 283.063 168.856 285.175C168.815 287.216 170.156 288.585 171.295 289.748C172.126 290.597 172.85 291.336 172.85 292.146C172.85 292.972 172.183 293.461 171.419 294.019C170.399 294.765 169.208 295.637 169.208 297.607C169.208 300.226 173.457 305.349 175.899 308.294L175.902 308.297C176.672 309.225 177.261 309.936 177.481 310.283C178.388 311.727 178.597 325.763 177.614 326.887C176.634 328.01 174.317 325.763 173.76 324.481C173.534 323.964 173.366 322.465 173.171 320.735C172.883 318.18 172.538 315.12 171.872 313.975C171.214 312.844 169.908 312.927 168.826 312.995C168.062 313.044 167.409 313.085 167.178 312.686C167.022 312.422 167.038 311.348 167.057 309.924C167.11 306.178 167.196 300.007 164.298 299.774C163.189 299.683 162.707 300.199 162.256 300.683C161.884 301.081 161.532 301.458 160.866 301.458C160.3 301.458 159.848 299.756 159.29 297.653C158.4 294.298 157.239 289.924 154.912 289.825C152.702 289.734 152.142 290.817 151.667 291.734C151.329 292.387 151.034 292.957 150.217 292.957C149.583 292.957 148.78 292.082 147.841 291.06C145.879 288.924 143.323 286.142 140.481 289.343C137.563 292.625 139.128 294.982 140.363 296.841C140.909 297.663 141.39 298.388 141.39 299.053C141.39 300.019 140.811 300.571 140.167 301.184C139.368 301.944 138.469 302.8 138.448 304.662C138.397 308.449 141 309.721 142.923 310.66C143.813 311.095 144.558 311.459 144.825 311.969C145.267 312.815 144.796 313.372 144.23 314.042C143.727 314.638 143.149 315.322 143.07 316.377C142.683 321.723 147.863 321.541 151.515 321.413C153.124 321.357 154.436 321.31 154.844 321.753C155.674 322.65 155.215 323.869 154.757 325.088C154.484 325.815 154.21 326.543 154.21 327.202C154.21 330.266 160.011 330.133 164.576 330.028C166.945 329.973 168.981 329.926 169.7 330.338C171.756 331.516 174.624 335.284 176.129 337.261L176.221 337.382C177.688 339.318 178.038 354.885 176.357 356.087C175.734 356.531 171.652 357.613 168.645 353.841C166.851 351.586 165.376 348.301 163.945 345.115C163.155 343.357 162.379 341.628 161.57 340.119C159.685 336.601 157.374 334.45 156.46 334.423C154.626 334.381 153.993 335.474 153.441 336.426C153.021 337.151 152.649 337.794 151.83 337.794C150.953 337.794 148.7 334.458 146.286 330.883C143.5 326.757 140.5 322.313 139.15 322.313C137.859 322.313 137.281 323.361 136.717 324.386C136.177 325.366 135.649 326.325 134.52 326.325C133.522 326.325 132.381 324.383 131.08 322.17C129.365 319.252 127.372 315.861 125.062 315.815C122.84 315.774 122.208 317.096 121.625 318.316C121.14 319.33 120.689 320.273 119.388 320.307C118.419 320.335 117.522 319.761 116.611 319.178C114.817 318.03 112.969 316.848 110.413 320.147C107.818 323.494 110.114 326.224 111.828 328.263C112.662 329.254 113.358 330.082 113.289 330.738C113.203 331.542 112.68 332.048 112.079 332.63C111.18 333.501 110.106 334.541 110.064 336.998C110.03 339.013 112.396 341.159 115.53 341.805C116.915 342.094 118.446 342.102 119.803 342.109C121.59 342.118 123.074 342.126 123.516 342.774C124.383 344.03 123.956 344.858 123.421 345.894C123.002 346.707 122.516 347.648 122.536 349.026C122.608 354.082 126.736 356.05 129.336 356.006C131.26 355.966 133.426 354.746 135.349 353.663C137.555 352.421 139.439 351.36 140.266 352.471C141.111 353.616 140.465 354.759 139.753 356.018C139.164 357.061 138.53 358.183 138.658 359.451C138.934 362.265 142.089 366.353 147.413 366.278C149.955 366.237 152.098 365.484 154.307 364.709C156.726 363.859 159.224 362.982 162.41 362.982C168.508 362.982 173.409 368.358 174.46 370.443C175.516 372.529 175.233 393.313 174.254 395.23C174.234 395.269 174.209 395.322 174.178 395.386C173.698 396.381 171.846 400.219 167.104 401.81Z" fill="black"/>
<path fill-rule="evenodd" clip-rule="evenodd" d="M111.641 347.208C115.241 352.16 114.268 359.517 109.557 360.949C107.844 361.471 107.372 361.337 106.893 361.202C106.534 361.1 106.171 360.997 105.276 361.169C101.111 361.967 95.2265 361.019 94.2065 358.761C93.0825 356.275 95.4759 350.309 98.3199 348.117C98.7215 347.811 98.8008 347.407 98.8821 346.992C98.9625 346.583 99.0448 346.163 99.4425 345.817C102.38 343.277 108.219 342.5 111.641 347.208ZM103.48 352.557C102.331 349.931 101.825 349.081 99.8879 349.183C97.9492 349.289 94.3145 355.659 95.8092 358.013C97.3092 360.361 103.765 360.307 104.619 359.777C105.479 359.244 104.56 355.023 103.48 352.557Z" fill="black"/>
<path fill-rule="evenodd" clip-rule="evenodd" d="M128.534 306.935C124.679 311.695 117.326 312.675 114.716 308.487C113.767 306.973 113.774 306.484 113.782 305.986C113.787 305.613 113.793 305.234 113.398 304.416C111.542 300.589 110.927 294.676 112.843 293.097C114.954 291.369 121.34 292.135 124.195 294.312C124.594 294.616 124.999 294.588 125.416 294.559C125.833 294.53 126.26 294.501 126.703 294.801C129.911 296.971 132.183 302.405 128.534 306.935ZM121.244 300.443C123.478 298.649 124.175 297.943 123.564 296.093C122.958 294.248 115.872 292.393 113.984 294.452C112.103 296.511 113.832 302.736 114.566 303.42C115.306 304.105 119.14 302.127 121.244 300.443Z" fill="black"/>
<path fill-rule="evenodd" clip-rule="evenodd" d="M254.633 344.554C258.054 339.853 263.896 340.629 266.828 343.165C267.222 343.512 267.304 343.931 267.384 344.339C267.466 344.753 267.545 345.157 267.948 345.464C270.789 347.657 273.19 353.622 272.068 356.108C271.041 358.376 265.164 359.313 260.994 358.516C260.1 358.343 259.736 358.447 259.376 358.549C258.897 358.686 258.423 358.821 256.71 358.302C251.997 356.869 251.034 349.513 254.633 344.554ZM262.792 349.904C261.713 352.376 260.789 356.59 261.649 357.124C262.497 357.66 268.956 357.713 270.461 355.361C271.961 353.005 268.322 346.636 266.38 346.534C264.44 346.428 263.94 347.284 262.792 349.904Z" fill="black"/>
<path fill-rule="evenodd" clip-rule="evenodd" d="M241.088 310.143C237.435 305.615 239.708 300.179 242.916 298.008C243.356 297.712 243.782 297.741 244.198 297.77C244.617 297.798 245.024 297.826 245.424 297.52C248.276 295.344 254.662 294.575 256.771 296.307C258.695 297.886 258.086 303.8 256.224 307.624C255.826 308.443 255.831 308.822 255.837 309.195C255.844 309.693 255.851 310.183 254.899 311.695C252.292 315.884 244.94 314.904 241.088 310.143ZM248.378 303.651C250.474 305.342 254.31 307.315 255.047 306.63C255.787 305.94 257.514 299.722 255.64 297.66C253.752 295.606 246.662 297.456 246.058 299.302C245.446 301.154 246.143 301.859 248.378 303.651Z" fill="black"/>
<path fill-rule="evenodd" clip-rule="evenodd" d="M161.307 283.009C156.43 286.71 149.05 285.892 147.526 281.202C146.97 279.501 147.093 279.03 147.219 278.548C147.313 278.188 147.409 277.822 147.223 276.932C146.338 272.782 147.163 266.884 149.405 265.814C151.865 264.638 157.879 266.917 160.126 269.716C160.441 270.107 160.844 270.178 161.257 270.252C161.67 270.325 162.093 270.4 162.447 270.798C165.045 273.664 165.945 279.489 161.307 283.009ZM155.791 274.953C158.395 273.761 159.237 273.242 159.095 271.297C158.946 269.364 152.505 265.856 150.182 267.406C147.861 268.946 148.046 275.402 148.601 276.248C149.157 277.093 153.35 276.088 155.791 274.953Z" fill="black"/>
<path fill-rule="evenodd" clip-rule="evenodd" d="M206.401 284.556C201.761 281.041 202.659 275.221 205.261 272.338C205.611 271.946 206.032 271.871 206.444 271.799C206.858 271.725 207.262 271.653 207.575 271.262C209.823 268.462 215.838 266.189 218.305 267.361C220.545 268.436 221.373 274.328 220.485 278.48C220.296 279.375 220.391 279.741 220.485 280.102C220.61 280.583 220.732 281.057 220.182 282.758C218.654 287.442 211.271 288.258 206.401 284.556ZM211.911 276.509C214.354 277.645 218.551 278.64 219.102 277.796C219.657 276.949 219.841 270.498 217.518 268.952C215.198 267.406 208.755 270.916 208.606 272.846C208.469 274.793 209.313 275.306 211.911 276.509Z" fill="black"/>
<path d="M152.909 199.685L152.872 199.766C154.566 200.525 156.109 199.45 157.494 198.486L157.499 198.482C157.732 198.32 157.96 198.161 158.184 198.014C158.107 197.998 158.03 197.981 157.953 197.964C157.893 197.951 157.833 197.937 157.774 197.924L157.587 197.882C156.701 197.681 155.811 197.479 154.904 197.514C153.809 197.711 153.323 198.776 152.909 199.685Z" fill="black"/>
<path fill-rule="evenodd" clip-rule="evenodd" d="M38.8801 113.544C38.8801 112.573 39.6641 111.886 40.5361 111.896H324.779C325.643 111.896 326.461 112.552 326.461 113.544V257.198C326.461 405.592 184.396 487.758 183.505 488.274L183.501 488.276C183.096 488.518 182.312 488.55 181.836 488.276L181.825 488.269C180.329 487.397 38.8801 404.943 38.8801 257.198V113.544ZM320.664 181.684L182.7 123.729L44.7415 181.684V220.809L182.7 162.852L320.664 220.809V181.684ZM70.0454 150.605C71.1681 152.501 73.2868 153.925 75.5641 153.366C76.8308 153.244 77.522 152.216 78.1784 151.24C78.338 151.002 78.4955 150.768 78.6588 150.55C77.7188 148.573 75.4241 147.926 73.3895 148.102C72.1667 148.339 71.3009 149.266 70.477 150.149C70.3324 150.303 70.1891 150.457 70.0454 150.605ZM77.0601 147.488C78.5775 148.402 79.4601 149.949 79.9241 151.618C81.4242 151.619 82.9238 151.626 84.4232 151.633C88.412 151.652 92.4 151.67 96.3895 151.578C95.9582 151.164 95.5576 150.695 95.1548 150.222C94.1204 149.01 93.0718 147.781 91.4548 147.434C86.7975 146.086 81.6068 145.345 77.0601 147.488ZM58.0228 146.24C57.3395 146.248 56.8969 146.766 56.4864 147.246L56.4838 147.249C56.4338 147.308 56.3842 147.366 56.3348 147.422L56.0152 147.818L56.0139 147.819L56.0131 147.82C54.9988 149.075 53.9852 150.329 52.9988 151.606C55.7911 151.652 58.5817 151.646 61.3723 151.64H61.3835C64.0152 151.635 66.6469 151.63 69.2801 151.668C68.9164 150.187 69.9784 149.219 70.9762 148.309C71.1999 148.106 71.421 147.904 71.6215 147.701C67.3775 145.812 62.5695 145.614 58.0228 146.24ZM52.2008 135.807C52.1971 140.794 52.1933 145.782 52.2161 150.773C53.4255 149.484 54.5908 148.154 55.6761 146.766C56.3291 145.98 56.3162 144.949 56.3038 143.96C56.3005 143.695 56.2972 143.432 56.3068 143.178C56.1638 139.917 56.1727 136.65 56.1815 133.382C56.1869 131.408 56.1922 129.434 56.1641 127.46C54.8321 127.578 53.5175 127.766 52.2028 128.002C52.2046 130.603 52.2027 133.205 52.2008 135.807ZM92.6081 127.097C92.6731 129.364 92.614 131.628 92.5549 133.892V133.893C92.5 135.994 92.4452 138.095 92.4895 140.2C92.4997 141.436 92.4619 142.675 92.4241 143.915C92.398 144.772 92.3718 145.63 92.3615 146.488C94.5041 147.789 96.2801 149.665 97.5828 151.809C97.5794 146.794 97.5809 141.779 97.5824 136.767L97.5824 136.723C97.5833 133.93 97.5841 131.138 97.5841 128.346C95.8921 128.06 94.2201 127.666 92.6081 127.097ZM74.8094 126.41C74.8596 128.005 74.9252 129.599 74.9908 131.192L74.9909 131.195L74.9909 131.196C75.0577 132.818 75.1244 134.439 75.1748 136.06C75.2082 137.207 75.2103 138.357 75.2125 139.507C75.2173 142.076 75.2221 144.644 75.5748 147.185C80.4068 144.353 86.2681 145.01 91.4548 146.396C91.6813 141.842 91.6467 137.28 91.6121 132.718C91.5964 130.647 91.5807 128.575 91.5895 126.504L91.3238 126.329C89.8021 125.33 88.2323 124.299 86.3828 124.065C82.4121 123.505 78.2534 124.366 74.8094 126.41ZM62.5495 124.145C60.7851 124.569 59.3144 125.624 57.8626 126.665L57.8602 126.667L57.8581 126.668C57.5617 126.881 57.2653 127.094 56.9681 127.3C57.0072 129.602 57.0603 131.904 57.1134 134.206C57.1995 137.943 57.2857 141.68 57.3121 145.417C60.9601 144.817 64.7281 144.844 68.3548 145.594C69.2507 145.754 70.1029 146.073 70.9547 146.391C72.0818 146.812 73.2084 147.232 74.4348 147.286C74.5125 144.616 74.3936 141.95 74.2748 139.284C74.1774 137.098 74.08 134.911 74.0908 132.722C74.1081 130.664 74.0561 128.602 73.9375 126.549C70.6601 124.281 66.4748 123.077 62.5495 124.145ZM285.667 149.978C286.789 151.88 288.909 153.302 291.185 152.738C292.444 152.615 293.137 151.591 293.795 150.618C293.957 150.379 294.116 150.143 294.281 149.925C293.336 147.945 291.047 147.3 289.013 147.474C287.803 147.71 286.951 148.618 286.134 149.488C286.058 149.569 285.981 149.651 285.905 149.731C285.826 149.815 285.746 149.897 285.667 149.978ZM292.685 146.861C294.197 147.776 295.079 149.322 295.547 150.986C296.962 150.989 298.378 150.996 299.794 151.003C303.865 151.025 307.937 151.046 312.008 150.949C311.582 150.538 311.185 150.073 310.785 149.605C309.747 148.389 308.694 147.155 307.073 146.805C302.421 145.46 297.232 144.72 292.685 146.861ZM273.645 145.61C272.962 145.619 272.513 146.146 272.102 146.628L272.023 146.721L271.983 146.766L271.961 146.792C270.836 148.177 269.713 149.57 268.62 150.977C271.456 151.024 274.289 151.019 277.122 151.014H277.134C279.724 151.009 282.314 151.005 284.907 151.04C284.538 149.556 285.603 148.584 286.6 147.675L286.6 147.674C286.822 147.472 287.04 147.274 287.237 147.073C283 145.184 278.191 144.985 273.645 145.61ZM267.822 136.426C267.82 140.998 267.817 145.571 267.839 150.148C269.041 148.853 270.205 147.525 271.297 146.137C271.948 145.353 271.937 144.32 271.926 143.334V143.332C271.923 143.068 271.92 142.807 271.929 142.556C271.778 139.22 271.789 135.88 271.801 132.54C271.807 130.636 271.813 128.732 271.789 126.829C270.451 126.95 269.137 127.137 267.82 127.373C267.825 130.39 267.824 133.408 267.822 136.426ZM308.229 126.468C308.292 128.706 308.234 130.942 308.176 133.178C308.121 135.311 308.065 137.443 308.115 139.576C308.122 140.771 308.085 141.966 308.047 143.163C308.019 144.061 307.991 144.959 307.981 145.858C310.128 147.161 311.907 149.036 313.197 151.184C313.197 148.419 313.199 145.656 313.201 142.894V142.884C313.205 137.827 313.209 132.774 313.2 127.717C311.516 127.432 309.841 127.04 308.229 126.468ZM290.614 130.655L290.614 130.661L290.614 130.678C290.68 132.263 290.746 133.848 290.797 135.437C290.827 136.55 290.829 137.666 290.83 138.783C290.833 141.38 290.837 143.982 291.195 146.558C296.024 143.721 301.883 144.385 307.073 145.769C307.299 141.208 307.266 136.636 307.232 132.063V132.062C307.217 129.998 307.202 127.934 307.211 125.872L306.96 125.707C305.434 124.705 303.857 123.668 302.005 123.44C298.036 122.878 293.88 123.737 290.427 125.784C290.479 127.41 290.546 129.032 290.614 130.655ZM273.513 126.017L273.51 126.02C273.203 126.24 272.897 126.46 272.588 126.673C272.627 128.78 272.676 130.887 272.725 132.994C272.817 136.927 272.908 140.858 272.935 144.789C276.583 144.188 280.347 144.213 283.973 144.966C284.865 145.128 285.715 145.445 286.563 145.761C287.695 146.183 288.826 146.605 290.052 146.657C290.13 143.989 290.012 141.324 289.894 138.66V138.657C289.797 136.47 289.699 134.284 289.711 132.094C289.735 130.033 289.675 127.974 289.56 125.92C286.287 123.658 282.093 122.449 278.167 123.517C276.415 123.936 274.958 124.981 273.513 126.017ZM44.7388 258.949C44.7388 398.361 174.108 477.468 182.703 482.569C191.297 477.468 320.659 398.361 320.659 258.949V227.796H44.7388V258.949ZM168.661 190.708C165.353 193.204 161.236 194.289 157.188 194.837C156.61 194.928 156.026 194.995 155.442 195.061L155.439 195.062C154.173 195.206 152.907 195.35 151.695 195.746C150.552 196.081 149.8 197.023 149.085 197.92L149.08 197.926L149.073 197.935C149.008 198.016 148.943 198.097 148.879 198.177C148.53 198.645 148.13 199.067 147.732 199.489L147.731 199.49L147.73 199.491C147.284 199.963 146.839 200.433 146.468 200.964C146.056 201.705 146.636 202.533 147.241 202.958C148.439 203.843 149.797 204.45 151.151 205.056C151.644 205.276 152.137 205.497 152.621 205.73C155.94 207.342 159.691 207.134 163.288 206.934C163.628 206.916 163.967 206.897 164.304 206.88C163.804 207.423 163.279 207.947 162.754 208.471L162.752 208.473L162.752 208.474C162.409 208.815 162.067 209.157 161.732 209.504C161.681 209.562 161.629 209.62 161.575 209.679C161.188 210.107 160.762 210.576 160.895 211.196C161.588 212.08 162.77 212.254 163.808 212.407L163.845 212.413C165.764 212.66 167.809 212.67 169.564 211.772C171.807 210.71 174.069 209.676 176.443 208.969C178.297 208.438 180.226 208.564 182.135 208.689H182.136C182.571 208.717 183.005 208.746 183.436 208.766C183.329 208.899 183.219 209.032 183.11 209.165C182.279 210.172 181.427 211.204 181.22 212.545L182.313 212.526C185.308 212.474 188.304 212.423 191.289 212.145C193.235 211.928 195.281 211.598 196.909 210.424C197.912 209.684 198.337 208.498 198.746 207.354L198.747 207.353L198.748 207.35C198.774 207.276 198.801 207.203 198.827 207.13L198.844 207.084C198.855 207.053 198.866 207.022 198.877 206.992C198.909 206.905 198.941 206.819 198.973 206.733C201.536 206.444 203.825 207.439 206.116 208.435C207.218 208.913 208.32 209.392 209.453 209.729C213.825 211.453 218.615 210.454 222.964 209.189C224.151 208.714 225.247 207.434 225.008 206.097C224.503 205.296 223.598 204.986 222.723 204.686C222.422 204.582 222.124 204.48 221.847 204.36C221.225 204.161 220.613 203.924 220.001 203.688C218.682 203.178 217.364 202.669 215.945 202.537C214.665 202.437 213.411 202.684 212.157 202.93C210.707 203.215 209.259 203.499 207.773 203.249C206.284 203.03 205.038 202.198 203.807 201.375C203.612 201.245 203.418 201.116 203.224 200.989C202.818 200.711 202.396 200.449 201.972 200.187L201.97 200.186L201.969 200.185C200.744 199.426 199.508 198.66 198.625 197.488C198.105 196.8 197.635 196.068 197.165 195.337L197.165 195.336C196.178 193.799 195.191 192.262 193.729 191.128C189.841 187.985 185.052 185.366 179.893 185.685C175.645 185.86 171.952 188.241 168.661 190.708Z" fill="black"/>
<path fill-rule="evenodd" clip-rule="evenodd" d="M185.372 0.773331C182.841 0.736038 180.303 0.736038 177.771 0.773331L177.915 1.17232L177.923 1.19502L177.924 1.19722C178.667 3.25435 179.41 5.3094 180.141 7.368C178.873 6.9175 177.63 6.40706 176.388 5.89705L176.385 5.89595C175.624 5.58363 174.864 5.2715 174.099 4.97334C174.088 7.31471 174.088 9.65205 174.116 12.0027C176.101 11.5907 178.109 11.256 180.12 11.032C179.907 11.5885 179.697 12.1466 179.486 12.705C178.796 14.537 178.104 16.372 177.325 18.1654C177.219 18.4071 177.105 18.6496 176.991 18.8934C176.414 20.1304 175.82 21.4023 175.981 22.7867C176.137 24.4747 177.104 25.9214 178.205 27.14C176.747 27.5147 175.32 27.9801 173.919 28.5107C173.884 28.4718 173.849 28.4326 173.814 28.3932C173.755 28.327 173.697 28.2601 173.638 28.193C172.837 27.2827 171.988 26.3162 170.751 26.0681C168.484 25.52 166.128 25.2747 163.803 25.4107C164.323 26.1426 164.887 26.8447 165.451 27.547C166.557 28.9246 167.664 30.303 168.443 31.9067C148.377 36.3374 129.469 46.6854 115.628 61.9627C117.356 65.9692 119.116 69.9621 120.875 73.9545L120.876 73.9566C122.78 78.2769 124.683 82.5965 126.547 86.932C126.159 88.3894 126.301 89.9347 127.443 91.0241C128.161 91.0134 128.888 91.008 129.611 91.008C129.847 91.56 130.085 92.1134 130.333 92.664C129.057 93.9334 128.385 95.9827 129.492 97.5814C130.308 99.0974 132.156 99.272 133.7 99.3654C133.419 99.9272 133.013 100.434 132.609 100.939C131.87 101.862 131.134 102.781 131.164 104.027C130.984 105.433 131.503 106.971 132.776 107.687C134.04 108.538 135.603 108.098 136.958 107.717L137.051 107.691C150.747 103.612 165.093 102.381 179.304 101.655C181.183 101.363 183.062 101.514 184.941 101.664C186.166 101.762 187.391 101.86 188.617 101.836C201.685 102.663 214.849 103.995 227.435 107.812C228.552 108.125 229.8 108.427 230.912 107.893C232.753 107.112 233.448 104.685 232.699 102.911C232.336 101.644 231.328 100.74 230.363 99.9187C230.421 99.8418 230.509 99.7233 230.593 99.6077L230.664 99.5095C230.713 99.4414 230.757 99.3792 230.789 99.3334C232.325 99.2467 234.167 98.832 234.753 97.2027C235.544 95.5707 234.724 93.8307 233.751 92.496C233.896 92.2076 234.045 91.9201 234.194 91.6337L234.328 91.3773L234.374 91.2878L234.431 91.1767L234.489 91.064C234.761 91.0361 235.053 91.0359 235.349 91.0357C236.285 91.0349 237.263 91.034 237.792 90.1587C238.68 89.172 238.081 87.8574 237.536 86.872C240.693 79.6147 243.877 72.3734 247.071 65.1373C247.175 64.8986 247.284 64.6608 247.394 64.4226C247.762 63.6217 248.132 62.8162 248.331 61.9561C247.764 61.0729 247.004 60.3564 246.245 59.6409C245.905 59.3206 245.565 59.0002 245.243 58.6654C241.48 54.7921 237.265 51.3694 232.865 48.2401C221.708 40.4201 209.003 34.76 195.644 31.9734C196.255 30.5031 197.238 29.2859 198.221 28.0674C198.923 27.1988 199.625 26.3288 200.193 25.3667C199.568 25.3507 198.956 25.3454 198.336 25.3587C195.224 25.2587 192.601 27.356 190.581 29.5081C189.039 28.528 187.339 27.8361 185.581 27.3427C186.092 26.7747 186.599 26.2041 187.039 25.588C188.079 24.1454 188.177 22.2241 187.813 20.5347C187.589 19.919 187.261 19.3541 186.934 18.7897C186.567 18.1587 186.202 17.5283 185.981 16.828C185.552 15.5075 185.103 14.1924 184.655 12.8775L184.649 12.8594L184.647 12.8544L184.529 12.5062C184.464 12.3166 184.4 12.127 184.335 11.9374C184.234 11.6392 184.133 11.341 184.032 11.0427C185.279 11.3264 186.517 11.6673 187.753 12.0081L187.757 12.009C188.292 12.1564 188.827 12.3038 189.363 12.4467C189.404 9.96272 189.393 7.47871 189.383 4.98158L189.383 4.97334C188.658 5.27315 187.94 5.58205 187.225 5.89034L187.22 5.89235C186.164 6.34712 185.112 6.80055 184.041 7.22133C184.222 6.12538 184.468 5.04079 184.713 3.95601C184.953 2.89876 185.192 1.84138 185.372 0.773331ZM135.455 101.229C148.364 97.132 161.852 94.8814 175.369 94.1961C183.649 93.8934 191.94 94.4587 200.191 95.2481C208.727 96.1827 217.317 97.3347 225.535 99.9361C225.607 99.9617 225.679 99.9872 225.751 100.013C225.936 100.077 226.122 100.141 226.308 100.205C227.601 100.65 228.902 101.098 230.024 101.868C231.172 102.735 231.62 104.465 230.945 105.747C230.344 106.656 229.087 106.629 228.164 106.296C215.008 102.303 201.237 100.928 187.565 100.155C183.8 99.8707 180.02 99.8494 176.263 100.176C162.7 100.923 149.069 102.359 136.003 106.236C135.079 106.5 133.769 106.792 133.151 105.813C131.973 104.039 133.484 101.557 135.455 101.229ZM228.512 97.4819C226.86 96.9783 225.19 96.4694 223.875 95.3454C222.213 93.8241 224.057 91.6094 225.535 90.772C226.996 91.3914 228.509 91.8772 230.021 92.3627L230.026 92.3641C230.81 92.616 231.594 92.868 232.372 93.1387C233.847 93.5947 234.628 95.3507 233.964 96.752C233.427 98.1467 231.705 98.6654 230.388 98.0947C229.779 97.8682 229.147 97.6754 228.512 97.4819ZM134.078 92.3533C135.293 91.9676 136.507 91.5821 137.693 91.116C138.735 90.5854 139.755 91.504 140.247 92.372C140.711 93.156 141.291 94.3001 140.479 95.072C139.518 96.15 138.149 96.602 136.803 97.0463C136.351 97.1954 135.901 97.3439 135.471 97.5147C135.182 97.5976 134.887 97.7038 134.59 97.811L134.587 97.812C133.594 98.1699 132.559 98.5426 131.547 98.1347C130.447 97.7667 129.868 96.5841 129.831 95.4881C129.931 94.3894 130.752 93.4174 131.796 93.1001C132.552 92.838 133.314 92.5959 134.076 92.354L134.078 92.3533ZM204.961 91.0921C203.139 89.9614 203.469 86.9053 205.539 86.2867C206.628 86.0539 207.722 86.2651 208.809 86.475L208.811 86.4753C209.255 86.561 209.698 86.6465 210.139 86.7014C210.678 86.816 211.232 86.8879 211.785 86.9597C212.899 87.1044 214.013 87.2492 215.019 87.7427C216.623 88.5654 216.781 90.9854 215.388 92.0747C214.331 92.9431 212.988 92.6876 211.73 92.4482C211.439 92.3929 211.152 92.3383 210.875 92.2987C210.149 92.1306 209.403 92.0318 208.657 91.933C207.392 91.7654 206.127 91.5979 204.961 91.0921ZM153.215 86.8139C154.236 86.6489 155.257 86.4838 156.277 86.304L156.353 86.293C157.356 86.1481 158.529 85.9785 159.32 86.7574C160.447 87.616 160.663 89.4027 159.737 90.4894C159.102 91.3173 158.035 91.5023 157.046 91.6735C156.885 91.7014 156.726 91.7288 156.572 91.7587C155.771 91.8605 154.972 91.9989 154.174 92.1373L154.171 92.1378L154.17 92.138C152.858 92.3655 151.547 92.5927 150.227 92.6574C148.348 92.7 147.093 90.3707 148.015 88.7974C148.437 87.7614 149.593 87.4107 150.603 87.2454C151.471 87.0959 152.339 86.9555 153.208 86.815L153.211 86.8146L153.215 86.8139ZM167.147 90.1027C165.84 88.5 166.6 85.724 168.632 85.1427C169.284 84.9511 169.98 84.9355 170.666 84.9201L170.728 84.9187C178.315 84.9454 185.896 84.9347 193.48 84.9227C194.691 84.9347 196.093 85.0814 196.86 86.1387C198.016 87.4041 197.771 89.5294 196.445 90.5694C195.647 91.3147 194.516 91.38 193.48 91.3907C191.264 91.3907 189.049 91.387 186.835 91.3832H186.829C181.466 91.3741 176.106 91.365 170.744 91.4094C169.437 91.452 167.983 91.1961 167.147 90.1027ZM127.924 87.3907C133.945 84.4027 140.385 82.3427 146.843 80.5347C155.736 78.1094 164.873 76.5574 174.083 76.0827C175.423 76.1116 176.764 76.0993 178.104 76.087L178.109 76.0869C180.787 76.0622 183.464 76.0376 186.133 76.3414C194.732 76.8987 203.279 78.192 211.721 79.9267C219.82 81.632 227.885 83.7454 235.5 87.0253C236.399 87.3694 237.115 88.0227 237.759 88.736C237.6 88.8895 237.45 89.0844 237.297 89.2835C236.86 89.8507 236.397 90.4524 235.631 90.2294C235.161 90.1594 234.705 89.9811 234.267 89.8093L234.253 89.804C227.38 86.6747 220.096 84.544 212.724 82.9801C204.303 81.2094 195.716 80.168 187.115 79.7134C184.072 79.3753 181.008 79.4075 177.947 79.4397C176.409 79.4559 174.871 79.4721 173.336 79.4414C158.107 80.272 143.213 84.38 129.124 90.0773C127.536 90.9854 126.177 87.968 127.924 87.3907ZM189.539 48.5574C190.987 43.2854 192.815 38.1147 195.096 33.1454C211.615 36.5534 227.188 44.3507 239.935 55.3734C239.997 55.4303 240.061 55.4877 240.126 55.5462C240.691 56.0509 241.333 56.6247 241.193 57.448C241.117 58.3945 241.007 59.3435 240.897 60.2938C240.586 62.9891 240.273 65.696 240.721 68.392C240.234 68.0673 239.751 67.7296 239.266 67.391C237.22 65.9613 235.151 64.5155 232.675 63.9614C231.853 65.6517 231.597 67.4854 231.341 69.3216C231.192 70.3953 231.042 71.47 230.779 72.5173C233.224 73.1027 235.669 73.996 237.651 75.588C238.083 75.9084 238.166 76.4262 238.248 76.9361C238.284 77.1602 238.32 77.3831 238.385 77.5867C235.943 79.2654 232.909 79.6147 230.024 79.812C229.456 79.8078 228.881 79.8198 228.304 79.832L228.302 79.832C226.015 79.8803 223.69 79.9294 221.587 78.9641C219.899 78.124 218.489 76.8161 217.243 75.4267C215.68 73.6827 215.929 71.1147 216.26 68.9774C216.412 67.7067 217.497 66.5254 218.868 66.7427C221.222 66.9813 223.134 68.4466 224.973 69.8559C225.333 70.1313 225.69 70.4052 226.047 70.6667C226.748 68.08 227.284 65.2321 226.375 62.64C225.745 60.9254 223.885 60.3507 222.289 59.9294C222.172 59.8865 222.045 59.8461 221.915 59.8046C221.245 59.5919 220.473 59.3469 220.42 58.556C220.334 57.7977 220.336 57.0314 220.339 56.2662C220.344 55.0214 220.348 53.7793 219.969 52.5787C219.599 51.0934 218.696 49.8334 217.784 48.6507C214.932 51.0454 213.109 54.4174 212.071 57.9454C210.276 57.3867 208.281 56.9053 206.489 57.7267C203.664 58.9494 202.024 61.7094 200.596 64.2894C201.149 64.3347 201.718 64.3655 202.293 64.3966C205.053 64.546 207.965 64.7038 210.117 66.512C210.495 68.2401 210.352 70.1174 209.691 71.7534C209.013 73.3013 207.287 73.8814 205.784 74.2254C203.23 74.9039 200.599 74.3874 198.06 73.889C197.79 73.836 197.521 73.7832 197.253 73.7321C193.696 72.872 189.925 71.5401 187.609 68.5387C186.914 67.7502 186.697 66.7603 186.479 65.7708C186.254 64.7475 186.028 63.7246 185.276 62.9254C188.719 64.7067 192.581 65.4653 196.423 65.7187C197.071 62.2094 197.131 58.5094 196.18 55.044C194.413 55.6205 192.707 56.3564 191.001 57.0925C189.708 57.6503 188.415 58.2083 187.093 58.6974C187.414 57.98 187.76 57.2686 188.107 56.5561C189.078 54.5592 190.053 52.5527 190.495 50.3761C190.765 49.5387 190.144 48.9867 189.539 48.5574ZM124.529 55.0067C124.621 54.9276 124.713 54.8487 124.804 54.7694C137.451 44.088 152.748 36.52 168.955 33.1227C171.223 38.096 173.143 43.2574 174.476 48.5574C174.364 48.6909 174.202 48.8062 174.039 48.9224C173.677 49.18 173.308 49.4428 173.457 49.9214C173.866 52.2092 174.871 54.3112 175.872 56.4046C176.237 57.1671 176.601 57.9285 176.936 58.6974C175.711 58.242 174.513 57.7208 173.315 57.2001C171.502 56.4115 169.689 55.6236 167.789 55.0654C167.167 58.1827 167.085 61.4041 167.421 64.5627C167.439 64.635 167.452 64.7221 167.467 64.8153C167.529 65.2189 167.608 65.7351 168.112 65.6387C171.784 65.5334 175.396 64.5347 178.716 62.9787C178.104 63.8321 177.848 64.8367 177.592 65.8389C177.307 66.9537 177.023 68.0654 176.252 68.9627C174.176 71.6494 170.843 72.9053 167.667 73.7321C164.528 74.4067 161.231 75.0147 158.072 74.172C156.396 73.848 154.58 72.8827 154.124 71.1147C154.031 70.5423 153.974 69.9653 153.918 69.3892C153.84 68.598 153.763 67.8085 153.591 67.0347C153.658 66.9638 153.724 66.8917 153.791 66.8198C154.246 66.3294 154.706 65.8335 155.331 65.5707C157.432 64.6604 159.718 64.5115 161.981 64.3642L161.994 64.3632C162.478 64.3317 162.96 64.3003 163.44 64.2614C161.963 61.5014 160.117 58.416 156.893 57.5267C155.364 56.9993 153.776 57.4487 152.279 57.8726C152.187 57.8989 152.094 57.9249 152.003 57.9507C150.848 54.5014 149.253 50.9627 146.292 48.6893L146.265 48.7244C145.438 49.7931 144.594 50.8824 144.2 52.1907C143.772 53.4983 143.754 54.8598 143.735 56.221C143.724 57.0416 143.713 57.8624 143.612 58.6707C143.632 59.301 143.072 59.4877 142.556 59.6599C142.417 59.7062 142.282 59.7515 142.161 59.804C142.012 59.849 141.859 59.8933 141.706 59.9381C140.232 60.367 138.622 60.8356 137.872 62.3013C136.587 64.7219 137.249 67.5031 137.855 70.0506C137.907 70.2703 137.959 70.4882 138.009 70.7041C138.101 70.6312 138.193 70.5578 138.285 70.4841L138.292 70.4785C140.669 68.5832 143.289 66.4938 146.505 66.7054C148.291 68.4454 148.18 71.0987 147.868 73.3774C147.299 75.6214 145.316 77.0947 143.507 78.3494C141.876 79.4827 139.845 79.84 137.896 79.8347C134.405 79.9121 130.835 79.8027 127.505 78.6454C126.742 78.3933 126.22 77.7849 125.712 77.1923C125.612 77.0764 125.513 76.9612 125.413 76.8494C126.891 74.4728 129.664 73.6001 132.241 72.7888L132.245 72.7877C132.631 72.6663 133.012 72.5462 133.384 72.4227C133.002 71.2164 132.813 69.9685 132.624 68.7227C132.382 67.1235 132.14 65.5277 131.492 64.028C129.027 64.4213 126.984 65.8555 124.972 67.2684L124.97 67.2695C124.438 67.6433 123.907 68.0156 123.372 68.3667C123.356 67.4593 123.366 66.5531 123.376 65.6473C123.39 64.4024 123.404 63.1583 123.349 61.9133C123.324 61.2178 123.229 60.5261 123.135 59.8349C122.993 58.7995 122.852 57.765 122.943 56.72C123.332 56.0365 123.935 55.5178 124.529 55.0067ZM176.214 37.0998L176.213 37.0959C175.648 34.5004 175.083 31.9048 174.533 29.3054C176.069 28.66 177.675 28.184 179.32 27.8507C181.599 31.7814 181.861 36.4067 182.091 40.8227C182.209 40.0339 182.316 39.238 182.422 38.4397L182.422 38.4383C182.889 34.943 183.362 31.4015 184.912 28.2107C186.633 28.4934 188.385 29.1187 189.763 30.2254C189.114 33.0557 188.291 35.8513 187.467 38.6469C187.009 40.2026 186.551 41.7583 186.123 43.32C185.877 44.0955 185.673 44.8831 185.469 45.6702C185.138 46.9427 184.809 48.2139 184.305 49.4307C183.1 49.6837 181.842 49.5261 180.592 49.3696L180.591 49.3694C179.984 49.2934 179.38 49.2177 178.784 49.1893C177.967 45.1503 177.09 41.1246 176.214 37.0998ZM176.959 22.0027C176.997 19.8681 178.555 17.9187 180.593 17.3307C183.621 16.3414 187.011 18.8774 187.169 21.9867C187.432 24.9974 184.524 27.772 181.531 27.3774C178.88 27.1961 176.713 24.6427 176.959 22.0027Z" fill="black"/>
</svg>
