<svg width="364" height="532" viewBox="0 0 364 532" fill="none" xmlns="http://www.w3.org/2000/svg">
<path d="M177.412 523.289L175.74 526.111L167.661 525.025C168.168 523.927 168.578 522.265 168.877 519.999L169.601 514.675C169.829 512.999 169.876 511.367 169.73 509.773L178.118 510.913L176.617 513.21C175.654 512.538 174.596 512.122 173.445 511.965C173.304 511.943 172.941 511.906 172.358 511.849L171.697 516.773L176.692 517.461L174.941 519.718C174.058 519.129 172.905 518.705 171.462 518.449L170.749 523.739C172.586 523.862 173.716 523.91 174.14 523.889C175.269 523.871 176.362 523.67 177.412 523.289Z" fill="white"/>
<path d="M115.177 486.867L118.379 486.136C117.379 485.633 116.479 484.977 115.685 484.175C115.386 483.881 114.639 483.028 113.462 481.613L117.797 478.491C118.595 479.705 119.082 480.839 119.265 481.881L122.111 481.593L119.162 477.499L123.185 474.593C123.545 475.048 123.771 475.34 123.858 475.457C124.538 476.399 124.962 477.455 125.133 478.616L127.841 478.121L122.882 471.256C121.827 472.456 120.618 473.555 119.247 474.539L114.879 477.688C113.041 479.016 111.551 479.877 110.407 480.257L115.177 486.867Z" fill="white"/>
<path d="M118.519 464.924L116.049 465.727C115.889 464.896 115.679 464.217 115.44 463.7C115.245 463.291 114.875 462.689 114.327 461.897L107.324 466.84C105.501 468.131 104.205 469.261 103.439 470.227L101.473 467.44C102.547 467.119 104.067 466.265 106.041 464.871L112.973 459.979C112.268 459.103 111.731 458.476 111.364 458.073C110.741 457.412 110.113 456.872 109.496 456.439L112.004 455.689L118.519 464.924Z" fill="white"/>
<path d="M92.0232 455.239L94.2259 457.835C95.0285 456.683 95.9419 455.669 96.9765 454.791L102.133 450.402C103.447 449.27 104.717 448.429 105.941 447.861L103.723 445.263C102.966 446.371 101.921 447.489 100.609 448.606L95.3659 453.079C94.3925 453.901 93.2765 454.631 92.0232 455.239Z" fill="white"/>
<path d="M89.085 447.382L87.325 449.249C85.4783 448.676 84.0143 447.926 82.9303 447.002C81.217 445.532 80.2836 443.786 80.137 441.781C79.9863 439.776 80.6463 437.92 82.1143 436.212C83.689 434.378 85.557 433.39 87.7183 433.236C89.877 433.084 91.8796 433.79 93.7023 435.361C94.6383 436.164 95.497 437.182 96.2823 438.409L94.5716 440.404C94.033 438.729 93.269 437.456 92.269 436.586C90.9716 435.481 89.557 435.058 88.025 435.324C86.5956 435.561 85.313 436.34 84.1743 437.67C83.061 438.962 82.4756 440.31 82.421 441.714C82.3503 443.242 82.9463 444.548 84.2103 445.633C85.353 446.617 86.9783 447.2 89.085 447.382Z" fill="white"/>
<path d="M70.6982 434.791C72.0715 434.935 73.2436 434.475 74.2076 433.417C75.0102 432.545 75.3742 431.42 75.2929 430.061L74.6849 426.668C74.4715 425.455 74.5956 424.596 75.0729 424.076C75.4862 423.627 75.9756 423.405 76.5529 423.425C77.1009 423.428 77.6062 423.643 78.0649 424.065C78.5129 424.477 78.8156 424.939 78.9635 425.44C79.0435 425.709 79.1169 426.252 79.1942 427.071L81.0555 425.039C80.6382 424.152 80.0995 423.392 79.4289 422.781C78.4382 421.871 77.3649 421.381 76.2089 421.3C74.9569 421.209 73.8916 421.648 72.9995 422.621C72.2422 423.448 71.9129 424.532 72.0195 425.868L72.6489 429.227C72.8556 430.447 72.7142 431.328 72.2196 431.875C71.7369 432.389 71.1409 432.633 70.4262 432.596C69.7462 432.572 69.1436 432.313 68.6115 431.82C68.1249 431.383 67.8116 430.859 67.6662 430.26C67.5555 429.811 67.5302 429.195 67.5929 428.415L65.5742 430.613C65.9702 431.612 66.5196 432.443 67.2209 433.091C68.3089 434.083 69.4689 434.656 70.6982 434.791Z" fill="white"/>
<path d="M196.02 512.398L196.528 509.854L185.283 510.964L184.7 513.519C185.38 513.183 186.156 512.918 187.042 512.707C187.572 512.576 188.39 512.426 189.495 512.25L190.328 520.688C190.562 523.08 190.556 524.831 190.307 525.938L193.698 525.59C193.236 524.45 192.888 522.765 192.676 520.539L191.835 512.01C192.788 511.923 193.502 511.896 193.943 511.934C194.518 511.975 195.208 512.132 196.02 512.398Z" fill="white"/>
<path d="M243.916 489.943C245.026 490.838 245.57 491.975 245.52 493.354C245.466 494.586 244.968 495.785 244.047 496.941C243.455 497.683 242.664 498.289 241.687 498.749L239.367 496.881C240.143 496.891 240.747 496.823 241.198 496.689C241.783 496.501 242.288 496.155 242.695 495.637C243.146 495.073 243.362 494.454 243.348 493.777C243.335 493.057 243.05 492.471 242.502 492.035C241.924 491.582 241.042 491.489 239.838 491.782L236.523 492.639C235.203 492.827 234.091 492.577 233.228 491.867C232.192 491.049 231.682 490.014 231.692 488.754C231.692 487.601 232.114 486.498 232.96 485.445C233.52 484.739 234.231 484.147 235.099 483.674L237.242 485.398C236.438 485.525 235.9 485.638 235.635 485.73C235.143 485.917 234.703 486.247 234.331 486.722C233.935 487.21 233.755 487.73 233.776 488.273C233.81 488.847 234.062 489.325 234.542 489.707C235.078 490.142 235.95 490.213 237.154 489.915L240.49 489.085C241.848 488.913 242.995 489.198 243.916 489.943Z" fill="white"/>
<path d="M247.614 469.093L245.958 467.105L239.748 476.54L241.368 478.6C241.526 477.865 241.818 477.086 242.204 476.261C242.437 475.776 242.833 475.041 243.39 474.068L250.472 478.734C252.485 480.058 253.844 481.166 254.54 482.054L256.414 479.202C255.232 478.845 253.708 478.046 251.841 476.822L244.682 472.11C245.21 471.308 245.636 470.746 245.95 470.414C246.341 469.996 246.893 469.561 247.614 469.093Z" fill="white"/>
<path fill-rule="evenodd" clip-rule="evenodd" d="M269.536 459.556L267.96 461.84C265.563 462.408 262.528 462.7 258.848 462.724L260.612 463.944C262.047 464.934 263.474 465.709 264.916 466.265L262.968 469.066C262.25 468.146 261.094 467.136 259.5 466.033L254.184 462.349C253.104 461.605 251.823 460.925 250.31 460.309L251.274 458.92C252.506 457.144 253.599 455.945 254.56 455.314C256.055 454.332 257.57 454.368 259.083 455.417C260.536 456.426 261.055 457.998 260.612 460.136C263.364 460.261 266.336 460.068 269.536 459.556ZM257.76 457.55C256.239 456.497 254.708 456.913 253.182 458.801L258.291 462.338C258.784 461.422 259.028 460.577 259.008 459.793C258.974 458.856 258.563 458.11 257.76 457.55Z" fill="white"/>
<path d="M279.502 448.498L278.174 445.492C277.882 446.574 277.401 447.573 276.76 448.512C276.534 448.857 275.825 449.752 274.658 451.177L270.776 447.504C271.83 446.488 272.854 445.797 273.844 445.425L273.024 442.686L269.549 446.353L265.929 442.942C266.32 442.502 266.565 442.226 266.669 442.121C267.461 441.278 268.412 440.658 269.521 440.273L268.534 437.712L262.721 443.868C264.098 444.682 265.401 445.664 266.628 446.825L270.538 450.517C272.193 452.074 273.313 453.385 273.912 454.426L279.502 448.498Z" fill="white"/>
<path d="M295.745 433.348L293.497 435.399C292.859 435.111 291.758 434.812 290.182 434.494L280.854 432.634L284.661 436.816C286.034 438.316 287.253 439.406 288.359 440.082L286.023 442.206C285.365 440.962 284.393 439.644 283.109 438.23L277.537 432.111L274.663 431.732L277.326 429.314C278.109 429.58 279.211 429.847 280.625 430.148L291.335 432.394L286.938 427.558C285.518 426.007 284.229 424.851 283.057 424.103L285.39 421.974C286.179 423.372 287.218 424.775 288.515 426.187L292.409 430.452C293.559 431.712 294.663 432.682 295.745 433.348Z" fill="white"/>
<path d="M310.189 420.417L312.156 418.637C311.388 418.204 310.575 417.56 309.719 416.701C309.533 416.517 308.828 415.753 307.612 414.404L304.153 410.591C303.107 409.431 302.333 408.313 301.825 407.224L299.301 409.517C300.505 410.32 301.599 411.271 302.58 412.357L305.883 415.999C307.911 418.236 308.047 420.156 306.284 421.744C304.411 423.433 302.219 422.879 299.695 420.085L297.159 417.287C296.099 416.116 295.263 414.935 294.659 413.725L292.128 416.009C293.347 416.832 294.448 417.791 295.435 418.887L295.491 418.951C295.53 418.995 295.572 419.043 295.62 419.096C295.823 419.325 296.107 419.645 296.461 420.064L296.814 420.468C297.144 420.846 297.412 421.153 297.632 421.392C299.219 423.145 300.625 424.283 301.844 424.803C303.583 425.553 305.192 425.253 306.68 423.904C307.445 423.216 307.992 422.513 308.336 421.799C308.629 421.204 308.893 420.347 309.112 419.229L310.189 420.417Z" fill="white"/>
<path d="M323.591 403.263L324.836 406.302L319.075 412.077C318.51 411.01 317.43 409.67 315.82 408.07L312.012 404.274C310.812 403.081 309.534 402.062 308.187 401.216L314.156 395.213L315.088 397.802C313.968 398.166 313.003 398.755 312.176 399.572C312.07 399.678 311.826 399.943 311.43 400.375L314.943 403.885L318.51 400.31L319.255 403.075C318.255 403.413 317.216 404.082 316.138 405.076L319.924 408.846C321.124 407.452 321.846 406.579 322.091 406.237C322.758 405.321 323.26 404.329 323.591 403.263Z" fill="white"/>
<path fill-rule="evenodd" clip-rule="evenodd" d="M340.184 309.794C339.006 308.473 336.859 308.726 335.151 308.997C331.596 309.581 328.416 311.421 326.539 313.966C323.094 318.524 322.362 324.221 323.656 329.405C324.328 329.586 325.003 329.762 325.677 329.938C327.719 330.473 329.761 331.007 331.75 331.662C322.93 340.937 314.586 350.716 309.216 361.681C306.594 367.317 304.518 373.469 305.938 379.52C306.625 379.766 307.311 380.014 307.997 380.262L307.998 380.263C310.86 381.298 313.721 382.333 316.654 383.22C308.122 392.79 297.539 400.968 286.952 408.992C281.591 412.696 277.383 417.308 273.202 421.893L273.196 421.898C272.704 422.438 272.212 422.977 271.719 423.514C262.391 433.928 253.563 444.644 244.888 455.418C243.795 456.804 242.702 458.184 241.611 459.56L241.609 459.562C234.396 468.665 227.306 477.613 221.05 487.258C217.435 492.533 211.596 497.128 205.476 500.512C199.615 503.694 192.714 505.873 185.61 505.804C184.653 505.792 183.694 505.811 182.735 505.829C180.596 505.87 178.455 505.912 176.327 505.62C167.755 504.558 160.567 500.876 154.546 495.805C150.426 492.566 147.402 488.533 144.668 484.456C137.494 474.401 129.599 465.023 121.566 455.482L121.565 455.481C120.475 454.186 119.382 452.888 118.288 451.585C109.25 441.044 100.151 430.508 90.3216 420.45C90.1593 420.287 89.997 420.123 89.8347 419.959L89.8195 419.944C87.3748 417.477 84.9145 414.994 82.007 412.88C70.2536 404.398 58.463 395.812 48.811 385.649C50.2397 385.098 51.6808 384.573 53.1208 384.048L53.1219 384.048C55.3155 383.249 57.5067 382.451 59.6483 381.562C59.6364 380.845 59.6484 380.126 59.6604 379.408C59.6861 377.866 59.7117 376.323 59.5016 374.792C58.855 370.961 57.4003 367.249 55.583 363.686C49.9163 352.892 41.371 343.301 32.3243 334.261C34.9683 333.373 37.6923 332.628 40.4163 331.908C40.8096 329.817 41.1096 327.688 40.7803 325.57C40.283 321.637 38.7936 317.6 35.3456 314.716C32.9856 312.664 29.5483 311.597 26.1523 311.474C24.7419 311.347 23.8302 312.18 22.9519 312.981C22.6496 313.257 22.3511 313.53 22.0376 313.758C18.631 316.849 14.451 319.326 9.92831 321.214C8.79861 321.716 7.62474 322.152 6.45131 322.587C4.67063 323.248 2.89098 323.909 1.26829 324.798C-0.10305 325.519 -0.0322031 327.004 0.0237255 328.177L0.0242947 328.189C0.510961 333.849 2.40296 339.374 5.00696 344.612C7.55496 349.57 10.8216 354.309 15.035 358.45C15.8222 359.256 16.768 359.929 17.7135 360.603C18.664 361.28 19.6142 361.956 20.403 362.766C23.5326 365.89 25.943 369.429 28.3391 372.946L28.3404 372.948C28.6888 373.459 29.037 373.97 29.387 374.48C25.5723 376.406 21.5883 378.12 17.4696 379.577C17.3323 379.633 17.1921 379.688 17.0511 379.744C16.3077 380.035 15.5412 380.336 15.047 380.888C14.634 381.301 14.8387 381.791 15.0348 382.261C15.0957 382.407 15.1558 382.551 15.1963 382.69C15.5869 383.508 15.8618 384.358 16.1364 385.207C16.5283 386.418 16.9196 387.627 17.6456 388.74C20.4294 393.327 23.9052 397.591 27.3699 401.841L27.7043 402.252C33.627 409.329 39.9243 416.22 47.031 422.53C48.5019 423.849 50.093 425.069 51.6855 426.29C52.889 427.213 54.0933 428.137 55.247 429.104C56.0964 429.816 56.9561 430.519 57.8158 431.223C59.5606 432.651 61.3051 434.078 62.963 435.577C73.519 444.802 83.663 454.378 92.767 464.609C97.3376 469.793 101.716 475.12 105.067 480.905C112.4 494.785 123.291 507.453 137.106 517.506C146.936 524.477 158.786 530.001 171.819 531.392C172.28 531.425 172.684 531.455 173.058 531.482C175.093 531.634 176.227 531.719 180.744 531.821C188.026 531.984 198.252 531.174 204.43 529.577C217.81 526.101 229.252 518.877 238.695 510.52C247.96 502.169 255.818 492.698 261.416 482.362C265.102 474.634 270.734 467.669 276.484 460.884C286.367 449.554 297.224 438.77 308.995 428.725C311.313 426.63 313.847 424.713 316.379 422.797C318.444 421.235 320.509 419.673 322.455 418.016C328.695 412.945 334.506 407.478 339.567 401.59C343.455 396.978 346.99 392.09 349.127 386.745C350.211 384.192 350.457 381.474 350.698 378.801L350.73 378.456C350.24 377.594 349.148 377.195 348.112 376.816C347.848 376.719 347.588 376.624 347.342 376.522C343.331 375.192 339.5 373.565 335.755 371.798C336.156 371.191 336.554 370.581 336.952 369.97L336.953 369.968L336.957 369.963C339.038 366.768 341.127 363.563 343.782 360.654C344.753 359.551 345.952 358.621 347.152 357.691C348.42 356.709 349.687 355.726 350.684 354.54C357.159 347.27 361.479 338.722 363.296 329.849C363.354 329.488 363.417 329.125 363.481 328.76C363.836 326.729 364.198 324.658 363.632 322.656C362.647 321.379 360.926 320.79 359.249 320.216C358.676 320.02 358.107 319.825 357.575 319.605C350.998 317.434 344.834 314.229 340.184 309.794ZM317.498 384.878C322.154 380.166 326.552 374.781 327.091 368.544C333.026 372.646 339.955 375.646 347.088 378.076C347.257 378.163 347.463 378.237 347.673 378.313C348.282 378.531 348.929 378.763 348.807 379.38C348.82 384.75 346.058 389.789 342.946 394.401C335.846 404.546 326.159 413.293 315.768 421.237C310.386 425.107 305.555 429.445 300.732 433.773L300.028 434.405C289.219 444.39 278.982 454.816 270.026 465.986C266.451 470.542 263.086 475.233 260.518 480.245C257.724 486.002 253.906 491.378 249.755 496.544C242.302 505.59 233.315 513.901 222.515 520.341C213.078 525.921 202.982 529.841 191.236 530.194C190.22 530.224 189.379 530.262 188.584 530.298C186.242 530.404 184.313 530.491 179.544 530.292C170.319 530.51 161.195 528.345 153.1 524.797C141.627 519.734 131.968 512.249 123.976 503.878C119.304 499.094 115.179 493.956 111.608 488.582C110.21 486.56 109.032 484.447 107.855 482.334C106.506 479.915 105.158 477.497 103.479 475.213C95.2696 463.794 84.9336 453.521 74.3403 443.561C69.051 438.568 63.447 433.8 57.835 429.05C57.0189 428.408 56.1984 427.769 55.3777 427.13L55.3764 427.129C52.8564 425.167 50.3343 423.204 47.935 421.138C41.323 415.201 35.4563 408.737 29.8256 402.161C26.0576 397.616 22.315 393.02 19.2883 388.105C18.562 386.952 18.1605 385.71 17.7586 384.467C17.4442 383.494 17.1296 382.521 16.659 381.589C24.3483 378.724 31.9736 375.522 38.299 370.858C38.5376 373.058 38.987 375.273 40.2123 377.262C43.147 382.184 47.215 386.574 51.5043 390.75C60.003 398.867 69.7596 405.984 79.4904 413.082C80.3956 413.743 81.3006 414.403 82.2043 415.064C86.7656 418.989 90.7921 423.302 94.8095 427.606C95.3662 428.202 95.9226 428.798 96.4803 429.393C106.4 440.204 115.892 451.26 125.132 462.456C126.325 463.924 127.517 465.382 128.705 466.835L128.707 466.837C134.538 473.966 140.271 480.974 145.416 488.548C151.648 497.32 161.222 504.445 173.46 506.692C176.936 507.349 180.512 507.472 184.075 507.349C191.359 507.522 198.599 505.722 204.802 502.636C210.416 499.829 216.067 496.077 219.823 491.65C221.752 489.47 223.178 487.407 224.691 485.219C225.256 484.401 225.834 483.566 226.455 482.7C234.146 471.694 242.534 461.037 251.083 450.468C259.716 439.9 268.479 429.384 277.924 419.273C278.416 418.776 278.902 418.274 279.389 417.771C281.474 415.617 283.568 413.452 286.151 411.677L286.335 411.537C297.348 403.174 308.439 394.751 317.498 384.878ZM41.054 368.238C41.1405 368.138 41.2262 368.039 41.3083 367.94C41.5719 367.957 41.8392 367.967 42.1075 367.977L42.1088 367.977C43.0479 368.011 44 368.046 44.8563 368.398C47.151 369.334 48.6523 371.218 49.227 373.225C50.2296 376.401 52.3376 379.353 55.5203 381.369C54.7302 381.641 53.9467 381.933 53.1625 382.225C51.3173 382.913 49.4681 383.602 47.523 384.034C46.0105 382.655 44.8644 381.042 43.7244 379.438C43.4152 379.003 43.1064 378.569 42.791 378.14C41.0483 375.801 40.2123 373.064 40.0483 370.341C39.9414 369.528 40.5132 368.865 41.054 368.238ZM315.776 371.288C316.238 369.929 316.701 368.568 317.862 367.489C319.154 366.277 321.143 365.248 323.174 365.558C324.515 365.74 325.091 366.992 325.047 367.988C324.846 370.213 324.396 372.464 323.195 374.48C321.698 377.042 319.896 379.498 317.862 381.797C315.509 381.007 313.134 380.253 310.756 379.497L309.867 379.214C311.968 377.562 313.891 375.68 314.932 373.416C315.283 372.736 315.53 372.012 315.776 371.288ZM7.60965 323.744C10.2779 322.722 12.9474 321.7 15.3683 320.305C17.4406 319.244 19.2906 317.95 21.1413 316.655C21.5923 316.339 22.0433 316.024 22.4976 315.712C22.371 318.738 22.9256 321.761 23.9963 324.661C25.111 327.65 26.2816 330.746 28.707 333.224C34.947 338.802 40.4216 344.933 45.4256 351.278C50.043 357.289 54.2643 363.606 56.6456 370.474C57.835 373.833 58.315 377.348 57.919 380.84C54.1896 379.12 51.8403 375.924 50.815 372.593C50.0923 370.213 48.223 367.965 45.379 367.014C43.447 366.34 40.703 366.141 39.291 367.672C36.9803 370.073 33.971 371.94 30.9043 373.648C30.1711 372.639 29.4613 371.61 28.7497 370.578C26.0064 366.6 23.2351 362.581 18.9856 359.561C16.0016 357.497 13.7496 354.854 11.723 352.148C7.09096 345.944 3.75496 339.049 2.30296 331.854C2.25708 331.598 2.20858 331.341 2.16001 331.085C1.89521 329.684 1.6285 328.273 1.77497 326.853C1.74701 326.208 2.421 325.897 3.04391 325.61C3.22314 325.528 3.39813 325.447 3.55097 325.361C4.88127 324.789 6.2453 324.267 7.60965 323.744ZM340.002 321.475L340.018 321.429C340.951 318.67 341.19 315.796 341.255 312.948C344.534 315.376 348.132 317.516 352.099 319.133C353.408 319.716 354.783 320.193 356.157 320.669C358.255 321.396 360.352 322.122 362.211 323.228C362.234 329.737 360.146 336.154 357.14 342.146C354.591 346.986 351.512 351.758 347.148 355.674C341.888 359.211 338.68 364.189 335.546 369.052L335.544 369.056C335.128 369.701 334.714 370.344 334.296 370.981C331.242 369.377 328.182 367.666 325.883 365.329C324.958 364.322 323.346 363.832 321.836 364.029C319.26 364.398 316.935 365.721 315.602 367.56C314.871 368.507 314.518 369.576 314.165 370.645C313.981 371.203 313.796 371.762 313.558 372.304C312.476 374.866 310.38 377.144 307.572 378.593C306.634 375.563 307.385 372.428 308.103 369.427L308.112 369.389C309.782 363.381 313.02 357.76 316.651 352.393C320.107 347.345 323.995 342.482 328.244 337.86C330.427 335.417 332.654 332.988 335.17 330.753C337.797 328.102 338.924 324.714 340.002 321.475ZM24.6244 319.524C24.3262 317.264 24.0075 314.848 25.3643 312.774C25.656 312.814 25.9498 312.852 26.2445 312.89C28.1671 313.137 30.1301 313.389 31.8016 314.261C35.2096 315.936 37.2336 318.978 38.2283 322.056C39.0776 324.906 39.543 327.902 38.7883 330.805C37.5515 331.106 36.3413 331.479 35.1319 331.851C33.8031 332.26 32.4747 332.669 31.1136 332.982C27.3136 329.341 25.487 324.56 24.671 319.878C24.6557 319.761 24.6402 319.644 24.6246 319.526L24.6244 319.524ZM326.342 317.536C327.438 315.129 329.304 312.866 332.02 311.508C333.951 310.554 336.227 310.224 338.452 310.165C340.026 313.382 339.227 316.885 338.476 320.174L338.403 320.494C337.403 324.044 335.788 327.574 332.948 330.432C331.473 329.957 329.967 329.561 328.463 329.165C327.413 328.889 326.364 328.614 325.328 328.312C324.291 324.757 324.88 320.96 326.342 317.536Z" fill="white"/>
<path d="M115.199 54.1761C115.199 53.1134 114.33 52.2481 113.27 52.2481C112.207 52.2481 111.346 53.1134 111.346 54.1761C111.346 55.2374 112.207 56.0988 113.27 56.0988C114.33 56.0988 115.199 55.2374 115.199 54.1761Z" fill="white"/>
<path d="M120.514 48.458C120.514 47.3953 119.648 46.534 118.588 46.534C117.522 46.534 116.664 47.3953 116.664 48.458C116.664 49.5193 117.522 50.386 118.588 50.386C119.648 50.386 120.514 49.5193 120.514 48.458Z" fill="white"/>
<path d="M126.348 43.5543C126.348 42.4903 125.488 41.6316 124.425 41.6316C123.365 41.6316 122.497 42.4903 122.497 43.5543C122.497 44.6156 123.365 45.4783 124.425 45.4783C125.488 45.4783 126.348 44.6156 126.348 43.5543Z" fill="white"/>
<path d="M132.628 38.7465C132.628 37.6772 131.762 36.8185 130.702 36.8185C129.637 36.8185 128.777 37.6772 128.777 38.7465C128.777 39.8025 129.637 40.6692 130.702 40.6692C131.762 40.6692 132.628 39.8025 132.628 38.7465Z" fill="white"/>
<path d="M139.135 34.6597C139.135 33.5957 138.267 32.7357 137.213 32.7357C136.153 32.7357 135.283 33.5957 135.283 34.6597C135.283 35.7224 136.153 36.5824 137.213 36.5824C138.267 36.5824 139.135 35.7224 139.135 34.6597Z" fill="white"/>
<path d="M146.452 30.8988C146.452 29.8295 145.588 28.9708 144.525 28.9708C143.463 28.9708 142.596 29.8295 142.596 30.8988C142.596 31.9548 143.463 32.8228 144.525 32.8228C145.588 32.8228 146.452 31.9548 146.452 30.8988Z" fill="white"/>
<path d="M153.685 27.9163C153.685 26.8549 152.818 25.9936 151.756 25.9936C150.702 25.9936 149.833 26.8549 149.833 27.9163C149.833 28.9776 150.702 29.8403 151.756 29.8403C152.818 29.8403 153.685 28.9776 153.685 27.9163Z" fill="white"/>
<path d="M160.884 25.9371C160.884 24.8731 160.023 24.0144 158.963 24.0144C157.899 24.0144 157.033 24.8731 157.033 25.9371C157.033 26.9984 157.899 27.8611 158.963 27.8611C160.023 27.8611 160.884 26.9984 160.884 25.9371Z" fill="white"/>
<path d="M251.129 54.1761C251.129 53.1134 250.271 52.2481 249.208 52.2481C248.145 52.2481 247.279 53.1134 247.279 54.1761C247.279 55.2374 248.145 56.0988 249.208 56.0988C250.271 56.0988 251.129 55.2374 251.129 54.1761Z" fill="white"/>
<path d="M245.806 48.458C245.806 47.3953 244.95 46.534 243.888 46.534C242.822 46.534 241.956 47.3953 241.956 48.458C241.956 49.5193 242.822 50.386 243.888 50.386C244.95 50.386 245.806 49.5193 245.806 48.458Z" fill="white"/>
<path d="M239.973 43.5543C239.973 42.4903 239.112 41.6316 238.052 41.6316C236.987 41.6316 236.125 42.4903 236.125 43.5543C236.125 44.6156 236.987 45.4783 238.052 45.4783C239.112 45.4783 239.973 44.6156 239.973 43.5543Z" fill="white"/>
<path d="M233.697 38.7465C233.697 37.6772 232.841 36.8185 231.771 36.8185C230.713 36.8185 229.849 37.6772 229.849 38.7465C229.849 39.8025 230.713 40.6692 231.771 40.6692C232.841 40.6692 233.697 39.8025 233.697 38.7465Z" fill="white"/>
<path d="M227.192 34.6619C227.192 33.5939 226.326 32.7339 225.26 32.7339C224.208 32.7339 223.344 33.5939 223.344 34.6619C223.344 35.7179 224.208 36.5859 225.26 36.5859C226.326 36.5859 227.192 35.7179 227.192 34.6619Z" fill="white"/>
<path d="M219.877 30.8988C219.877 29.8295 219.021 28.9708 217.95 28.9708C216.89 28.9708 216.024 29.8295 216.024 30.8988C216.024 31.9548 216.89 32.8228 217.95 32.8228C219.021 32.8228 219.877 31.9548 219.877 30.8988Z" fill="white"/>
<path d="M212.643 27.9163C212.643 26.8549 211.776 25.9936 210.716 25.9936C209.659 25.9936 208.792 26.8549 208.792 27.9163C208.792 28.9776 209.659 29.8403 210.716 29.8403C211.776 29.8403 212.643 28.9776 212.643 27.9163Z" fill="white"/>
<path d="M205.445 25.9371C205.445 24.8731 204.578 24.0144 203.513 24.0144C202.445 24.0144 201.592 24.8731 201.592 25.9371C201.592 26.9984 202.445 27.8611 203.513 27.8611C204.578 27.8611 205.445 26.9984 205.445 25.9371Z" fill="white"/>
<path d="M60.6202 188.208L52.0855 191.894L53.7068 195.641L60.4109 192.744L61.8962 196.182L55.1895 199.073L56.9135 203.062L65.4442 199.374L67.0069 202.986L54.2108 208.518L46.3188 190.262L59.1135 184.729L60.6202 188.208Z" fill="white"/>
<path d="M74.6059 178.033L82.4926 196.29L78.9179 197.837L66.5766 188.534C66.6267 188.641 66.6706 188.735 66.7085 188.816C66.7816 188.972 66.8325 189.081 66.8632 189.142C67.0366 189.438 67.1739 189.69 67.2646 189.902L71.9806 200.837L68.7152 202.249L60.8232 183.993L65.3486 182.033L76.0952 190.166C75.8126 189.658 75.6139 189.261 75.4939 188.987L71.3686 179.434L74.6059 178.033Z" fill="white"/>
<path d="M99.24 189.053L95.0174 179.29L87.656 182.474L89.128 185.886L92.504 184.429C92.976 185.526 93.028 186.451 92.648 187.199C92.2774 187.957 91.7134 188.499 90.9627 188.822C89.796 189.326 88.6867 189.222 87.628 188.505C86.572 187.779 85.64 186.489 84.828 184.615C83.9867 182.671 83.6347 181.049 83.76 179.751C83.892 178.454 84.5227 177.561 85.6627 177.067C87.3974 176.317 88.8974 176.981 90.18 179.051L93.9414 176.787C92.848 175.01 91.4414 173.814 89.728 173.202C88.0067 172.586 86.1494 172.711 84.156 173.578C81.772 174.602 80.2734 176.301 79.648 178.667C79.0227 181.026 79.34 183.666 80.6 186.571C81.7667 189.271 83.3694 191.193 85.4054 192.331C87.436 193.477 89.6294 193.543 91.9587 192.529C93.9427 191.682 95.2254 190.178 95.8147 188.045C96.3854 188.647 96.88 189.254 97.3227 189.883L99.24 189.053Z" fill="white"/>
<path d="M98.037 167.908L105.929 186.163L101.738 187.978L93.8477 169.722L98.037 167.908Z" fill="white"/>
<path d="M122.495 179.002L114.609 160.746L111.365 162.148L115.491 171.701C115.61 171.974 115.811 172.37 116.095 172.878L105.353 164.745L100.826 166.7L108.713 184.954L111.986 183.549L107.265 172.616C107.177 172.401 107.038 172.15 106.869 171.853C106.818 171.758 106.721 171.56 106.578 171.246L118.918 180.545L122.495 179.002Z" fill="white"/>
<path d="M131.693 157.488L123.16 161.173L124.783 164.921L131.487 162.02L132.969 165.458L126.268 168.354L127.995 172.337L136.52 168.656L138.083 172.266L125.285 177.793L117.395 159.542L130.193 154.013L131.693 157.488Z" fill="white"/>
<path d="M137.679 154.896L146.211 151.212L144.711 147.735L131.91 153.266L139.803 171.52L152.601 165.988L151.037 162.38L142.51 166.064L140.783 162.078L147.486 159.187L146.002 155.747L139.298 158.644L137.679 154.896Z" fill="white"/>
<path fill-rule="evenodd" clip-rule="evenodd" d="M155.411 156.185L158.533 163.42L154.309 165.251L146.418 146.993L154.299 143.593C155.746 142.964 156.983 142.635 158.01 142.597C159.038 142.559 160.042 142.876 161.019 143.543C161.986 144.207 162.722 145.105 163.205 146.228C164.149 148.419 163.795 150.44 162.133 152.292L168.93 158.929L164.291 160.941L158.415 154.889L155.411 156.185ZM152.051 148.419L154.062 153.075L156.635 151.964C157.473 151.601 158.061 151.272 158.39 150.987C158.71 150.703 158.937 150.292 159.054 149.751C159.177 149.207 159.121 148.665 158.887 148.127C158.666 147.62 158.322 147.228 157.854 146.956C157.379 146.689 156.947 146.579 156.559 146.637C156.171 146.699 155.489 146.929 154.531 147.347L152.051 148.419Z" fill="white"/>
<path d="M174.86 156.781L169.442 137.646L165.05 138.89L170.47 158.021L174.86 156.781Z" fill="white"/>
<path d="M191.205 135.892L191.323 155.78L187.429 155.795L179.709 142.415C179.72 142.753 179.731 142.975 179.744 143.084C179.781 143.423 179.804 143.707 179.804 143.944L179.873 155.847L176.316 155.868L176.192 135.985L181.123 135.951L187.833 147.641C187.771 147.06 187.739 146.615 187.739 146.313L187.675 135.913L191.205 135.892Z" fill="white"/>
<path d="M206.078 162.236L210.398 152.52L203.078 149.253L201.562 152.65L204.922 154.146C204.429 155.237 203.786 155.9 202.98 156.134C202.169 156.372 201.382 156.318 200.641 155.985C199.477 155.472 198.81 154.577 198.622 153.32C198.426 152.053 198.758 150.486 199.584 148.626C200.45 146.69 201.396 145.332 202.434 144.544C203.482 143.76 204.57 143.618 205.701 144.129C207.422 144.896 207.966 146.457 207.305 148.794L211.51 150.032C212.086 148.022 212.01 146.176 211.294 144.501C210.592 142.82 209.242 141.538 207.25 140.656C204.88 139.6 202.62 139.641 200.461 140.78C198.297 141.925 196.57 143.942 195.276 146.833C194.084 149.524 193.753 152.001 194.292 154.27C194.833 156.544 196.256 158.2 198.586 159.236C200.557 160.11 202.521 160.045 204.502 159.032C204.437 159.853 204.333 160.642 204.164 161.388L206.078 162.236Z" fill="white"/>
<path d="M233.078 157.283L228.984 156.909C229.14 155.26 228.455 154.089 226.916 153.404C225.258 152.667 224.19 152.844 223.706 153.937C223.507 154.367 223.502 154.807 223.671 155.245C223.843 155.689 224.427 156.257 225.416 156.964C227.062 158.148 228.231 159.117 228.906 159.88C229.58 160.633 230.018 161.567 230.208 162.672C230.424 163.779 230.283 164.845 229.812 165.897C229.086 167.541 227.827 168.68 226.059 169.329C224.294 169.968 222.179 169.749 219.747 168.665C217.919 167.856 216.544 166.737 215.648 165.316C214.739 163.899 214.463 162.261 214.794 160.408L219.051 161.244C218.739 163.132 219.57 164.516 221.544 165.399C222.496 165.828 223.299 165.953 223.939 165.789C224.57 165.619 225.01 165.273 225.236 164.747C225.484 164.223 225.447 163.707 225.162 163.225C224.862 162.744 224.162 162.103 223.059 161.303C221.004 159.812 219.684 158.439 219.083 157.177C218.479 155.917 218.539 154.491 219.255 152.896C219.971 151.279 221.159 150.175 222.807 149.584C224.455 148.984 226.258 149.128 228.234 150.008C231.726 151.564 233.343 153.991 233.078 157.283Z" fill="white"/>
<path fill-rule="evenodd" clip-rule="evenodd" d="M231.396 170.555C231.888 172.979 233.334 174.725 235.735 175.793C238.244 176.913 240.555 176.857 242.664 175.63C244.779 174.402 246.422 172.462 247.594 169.833C248.684 167.394 249.018 164.943 248.599 162.483C248.172 160.025 246.716 158.243 244.236 157.134C241.763 156.037 239.471 156.079 237.356 157.259C235.239 158.441 233.58 160.358 232.394 163.009C231.235 165.617 230.899 168.131 231.396 170.555ZM236.747 165.014C238.5 161.091 240.468 159.618 242.654 160.594C244.779 161.539 244.963 163.981 243.208 167.906C241.463 171.827 239.526 173.319 237.408 172.371C235.219 171.395 235.003 168.941 236.747 165.014Z" fill="white"/>
<path d="M264.929 174.8L260.432 173.13C261.517 170.54 261.104 168.818 259.208 167.97C257.028 167.002 255.057 168.486 253.291 172.434C252.281 174.714 251.888 176.395 252.115 177.467C252.351 178.547 252.997 179.32 254.068 179.798C255.789 180.562 257.353 179.89 258.757 177.77L262.689 179.828C261.463 181.882 259.935 183.186 258.093 183.723C256.268 184.266 254.393 184.1 252.473 183.247C250.109 182.194 248.555 180.508 247.82 178.198C247.091 175.872 247.369 173.255 248.677 170.331C249.901 167.588 251.604 165.66 253.817 164.547C256.023 163.439 258.367 163.435 260.839 164.535C265.123 166.447 266.487 169.866 264.929 174.8Z" fill="white"/>
<path d="M265.609 188.769L273.708 170.606L269.542 168.75L261.438 186.913L265.609 188.769Z" fill="white"/>
<path d="M287.598 180.943L279.195 177.2L277.529 180.925L284.203 183.899L282.672 187.317L276.008 184.341L274.232 188.307L282.729 192.092L281.125 195.685L268.393 190.011L276.489 171.848L289.218 177.517L289.216 177.522L306.774 185.342L307.111 193.733L313.554 188.367L317.302 190.037L307.021 198.049L303.609 205.702L299.435 203.846L302.843 196.193L301.975 183.86L300.617 186.904L296.205 184.94L289.711 199.511L285.476 197.625L291.973 183.057L287.539 181.077L287.598 180.943Z" fill="white"/>
<path d="M166.4 401.065C146.152 407.885 141.76 411.031 141.244 411.605C140.257 412.699 145.308 411.859 152.744 410.621L152.745 410.621C161.602 409.147 173.842 407.11 183.289 407.11C193.766 407.11 206.417 408.837 215.194 410.034C220.975 410.823 225.076 411.383 225.765 411.069C226.948 410.527 220.716 405.157 209.353 403.233C202.445 402.062 195.883 398.054 194.64 396.491C193.172 394.647 193.309 371.529 193.664 370.179C194.307 367.677 200.109 360.043 203.281 360.043C204.584 360.043 206.359 360.691 208.413 361.441C211.366 362.519 214.895 363.807 218.421 363.681C221.309 363.585 225.951 362.931 226.88 360.15C227.423 358.52 226.819 356.236 226.319 354.343C225.909 352.794 225.569 351.508 225.984 351.058C227.009 349.955 228.492 350.615 230.204 351.376C231.473 351.94 232.869 352.561 234.296 352.561C236.072 352.561 240.533 351.609 241.593 348.682C242.122 347.221 241.634 345.167 241.232 343.477C240.902 342.087 240.63 340.943 241.031 340.578C241.901 339.784 243.943 339.297 246.143 338.772C248.666 338.171 251.397 337.52 252.804 336.299C257.05 332.611 255.086 331.466 253.397 330.481C252.636 330.037 251.931 329.626 251.875 329.03C251.817 328.458 252.416 327.623 253.149 326.601C254.885 324.183 257.368 320.723 253.632 317.262C250.044 313.937 247.683 316.573 245.839 318.632C244.955 319.619 244.19 320.474 243.465 320.474C242.519 320.474 242.362 319.829 242.178 319.077C241.925 318.041 241.623 316.801 239.143 316.755C236.68 316.708 234.519 320.524 232.674 323.783C231.316 326.179 230.13 328.274 229.12 328.309C227.958 328.347 227.678 327.743 227.39 327.12C227.086 326.464 226.772 325.787 225.405 325.819C221.073 325.92 219.174 330.861 217.744 334.58C216.882 336.822 216.191 338.619 215.241 338.647C213.993 338.693 213.64 337.964 213.283 337.228C212.922 336.482 212.557 335.729 211.252 335.77C207.926 335.865 206.499 339.306 204.855 343.269C203.83 345.74 202.721 348.414 201.015 350.607C198.276 354.134 194.812 355.342 193.664 355.342C190.645 355.342 190.856 354.619 190.856 354.619C190.856 354.619 190.789 336.975 191.14 335.77C191.492 334.561 194.779 330.234 196.457 330.234C196.532 330.234 196.625 330.235 196.735 330.237C196.873 330.24 197.037 330.244 197.225 330.249L197.414 330.254C200.684 330.34 209.822 330.579 211.733 328.377C213.099 326.818 213.141 325.069 213.172 323.803C213.19 323.053 213.204 322.473 213.487 322.205C213.724 321.984 214.503 321.961 215.54 321.929C217.881 321.857 221.536 321.745 223.233 319.242C224.755 317 224.549 314.883 224.393 313.274C224.297 312.291 224.22 311.498 224.567 310.982C224.842 310.568 225.688 310.301 226.731 309.973C229.134 309.215 232.579 308.13 232.479 304.157C232.394 300.591 231.318 300.331 230.526 300.141C230.055 300.027 229.684 299.938 229.684 299.189C229.684 298.551 230.268 297.689 230.938 296.7C232.383 294.567 234.23 291.84 231.503 289.481C228.779 287.131 226.318 289.395 224.515 291.053C223.67 291.831 222.969 292.475 222.453 292.45C221.773 292.415 221.444 291.896 221.066 291.302C220.553 290.494 219.951 289.545 218.255 289.481C214.064 289.328 213.276 293.658 212.7 296.827C212.37 298.638 212.11 300.07 211.323 300.07C210.247 300.07 209.807 299.355 209.358 298.627C208.897 297.881 208.429 297.121 207.26 297.102C204.225 297.054 203.545 301.791 202.997 305.61C202.634 308.143 202.328 310.272 201.432 310.337C200.214 310.427 199.904 309.932 199.615 309.469C199.373 309.083 199.146 308.72 198.416 308.737C196.083 308.784 195.351 313.916 194.735 318.229C194.355 320.896 194.019 323.249 193.377 323.895C191.697 325.579 190.435 326.221 189.948 325.341C189.456 324.451 188.263 312.101 189.107 310.657C189.298 310.33 189.839 309.693 190.562 308.841C193.024 305.941 197.597 300.555 197.656 296.461C197.702 293.151 195.989 292.758 194.666 292.454C193.875 292.273 193.224 292.123 193.172 291.401C193.112 290.608 193.746 289.828 194.512 288.887C195.601 287.547 196.957 285.88 196.957 283.382C196.957 280.843 195.383 280.309 194.069 279.862C193.183 279.562 192.415 279.301 192.328 278.493C192.233 277.609 192.631 277.271 193.106 276.867C193.71 276.353 194.437 275.734 194.437 273.759C194.437 269.337 191.482 269.509 189.525 269.623C188.82 269.664 188.245 269.698 187.984 269.506C187.702 269.3 187.759 268.57 187.831 267.632C188.013 265.287 188.295 261.645 183.643 261.645C178.863 261.645 179.012 265.176 179.107 267.412C179.141 268.224 179.168 268.865 178.949 269.105C178.438 269.661 177.286 269.562 176.012 269.453C173.611 269.247 170.772 269.004 170.959 273.037C171.074 275.553 171.818 276.806 172.39 277.767C172.728 278.336 173.006 278.803 173.056 279.37C173.114 279.984 172.341 280.35 171.393 280.8C169.987 281.467 168.195 282.318 168.152 284.43C168.112 286.471 169.453 287.84 170.592 289.002C171.423 289.851 172.147 290.59 172.147 291.401C172.147 292.227 171.479 292.715 170.716 293.274C169.696 294.02 168.504 294.892 168.504 296.862C168.504 299.48 172.754 304.604 175.196 307.548L175.198 307.552C175.968 308.48 176.558 309.191 176.777 309.538C177.684 310.982 177.893 325.018 176.911 326.142C175.931 327.265 173.613 325.018 173.056 323.735C172.831 323.219 172.662 321.72 172.467 319.99C172.179 317.435 171.834 314.374 171.168 313.23C170.511 312.099 169.204 312.181 168.123 312.25C167.358 312.298 166.706 312.34 166.475 311.941C166.319 311.676 166.334 310.603 166.354 309.179C166.407 305.432 166.493 299.261 163.595 299.029C162.485 298.938 162.004 299.453 161.552 299.937C161.18 300.336 160.829 300.713 160.163 300.713C159.597 300.713 159.145 299.01 158.587 296.908C157.696 293.553 156.535 289.178 154.208 289.079C151.999 288.989 151.439 290.072 150.964 290.988C150.626 291.642 150.331 292.211 149.513 292.211C148.88 292.211 148.077 291.337 147.138 290.315C145.175 288.179 142.619 285.396 139.777 288.598C136.86 291.879 138.425 294.236 139.659 296.095C140.205 296.918 140.687 297.643 140.687 298.307C140.687 299.274 140.108 299.825 139.463 300.438C138.665 301.199 137.766 302.055 137.744 303.917C137.694 307.704 140.297 308.975 142.219 309.915C143.11 310.35 143.854 310.714 144.121 311.223C144.563 312.07 144.092 312.627 143.526 313.297C143.023 313.892 142.445 314.576 142.367 315.631C141.98 320.978 147.16 320.796 150.811 320.668C152.42 320.611 153.732 320.565 154.14 321.007C154.97 321.904 154.512 323.123 154.054 324.343C153.78 325.07 153.507 325.797 153.507 326.457C153.507 329.521 159.308 329.387 163.872 329.282C166.241 329.228 168.277 329.181 168.996 329.593C171.052 330.771 173.921 334.539 175.426 336.516L175.517 336.637C176.984 338.573 177.335 354.139 175.653 355.342C175.031 355.786 170.948 356.867 167.941 353.095C166.148 350.841 164.673 347.556 163.242 344.37C162.452 342.611 161.676 340.883 160.867 339.374C158.981 335.855 156.671 333.705 155.756 333.678C153.922 333.635 153.289 334.728 152.738 335.681C152.318 336.405 151.946 337.049 151.127 337.049C150.249 337.049 147.997 333.712 145.583 330.138C142.797 326.011 139.796 321.567 138.447 321.567C137.155 321.567 136.578 322.616 136.013 323.64C135.474 324.621 134.946 325.579 133.816 325.579C132.819 325.579 131.678 323.638 130.377 321.424C128.662 318.507 126.669 315.115 124.359 315.07C122.137 315.028 121.505 316.35 120.921 317.571C120.437 318.584 119.986 319.528 118.684 319.562C117.716 319.589 116.819 319.015 115.908 318.432C114.114 317.285 112.266 316.102 109.709 319.402C107.115 322.749 109.41 325.479 111.125 327.518C111.958 328.509 112.654 329.336 112.585 329.993C112.5 330.796 111.977 331.303 111.376 331.885C110.476 332.756 109.403 333.796 109.36 336.253C109.327 338.267 111.692 340.414 114.827 341.059C116.211 341.349 117.743 341.356 119.099 341.363C120.887 341.373 122.37 341.38 122.812 342.029C123.679 343.285 123.252 344.112 122.718 345.149C122.298 345.962 121.813 346.903 121.832 348.281C121.904 353.337 126.032 355.305 128.632 355.261C130.556 355.221 132.723 354.001 134.645 352.918C136.851 351.676 138.736 350.614 139.563 351.726C140.408 352.871 139.762 354.014 139.05 355.273C138.46 356.315 137.826 357.437 137.955 358.706C138.231 361.519 141.385 365.607 146.709 365.533C149.251 365.492 151.394 364.739 153.603 363.963C156.022 363.114 158.52 362.237 161.707 362.237C167.804 362.237 172.705 367.613 173.756 369.698C174.812 371.783 174.529 392.567 173.551 394.485C173.531 394.524 173.505 394.576 173.474 394.641C172.994 395.636 171.142 399.473 166.4 401.065Z" fill="white"/>
<path fill-rule="evenodd" clip-rule="evenodd" d="M110.938 346.463C114.538 351.415 113.564 358.772 108.854 360.204C107.14 360.726 106.668 360.592 106.19 360.456C105.83 360.354 105.467 360.251 104.572 360.424C100.407 361.221 94.5231 360.273 93.5032 358.016C92.3792 355.529 94.7725 349.564 97.6165 347.372C98.0181 347.066 98.0974 346.661 98.1787 346.247C98.2591 345.837 98.3414 345.417 98.7392 345.072C101.676 342.532 107.515 341.755 110.938 346.463ZM102.776 351.812C101.627 349.185 101.122 348.336 99.1845 348.437C97.2458 348.544 93.6112 354.913 95.1058 357.268C96.6058 359.616 103.062 359.561 103.915 359.032C104.775 358.499 103.856 354.277 102.776 351.812Z" fill="white"/>
<path fill-rule="evenodd" clip-rule="evenodd" d="M127.83 306.189C123.976 310.949 116.622 311.929 114.013 307.741C113.064 306.228 113.071 305.739 113.078 305.24C113.084 304.867 113.09 304.489 112.694 303.671C110.838 299.844 110.224 293.931 112.14 292.352C114.25 290.624 120.637 291.389 123.492 293.567C123.89 293.871 124.296 293.843 124.713 293.814C125.129 293.785 125.557 293.755 126 294.056C129.208 296.225 131.48 301.66 127.83 306.189ZM120.541 299.697C122.774 297.904 123.472 297.197 122.861 295.348C122.254 293.503 115.169 291.648 113.281 293.707C111.4 295.765 113.129 301.991 113.862 302.675C114.602 303.36 118.437 301.381 120.541 299.697Z" fill="white"/>
<path fill-rule="evenodd" clip-rule="evenodd" d="M253.93 343.809C257.351 339.108 263.192 339.884 266.124 342.42C266.518 342.767 266.601 343.185 266.681 343.593C266.762 344.008 266.842 344.412 267.244 344.718C270.086 346.912 272.487 352.877 271.364 355.362C270.338 357.63 264.46 358.568 260.291 357.77C259.396 357.598 259.033 357.702 258.673 357.804C258.193 357.941 257.72 358.075 256.007 357.557C251.294 356.124 250.331 348.768 253.93 343.809ZM262.088 349.158C261.01 351.63 260.086 355.845 260.945 356.378C261.794 356.914 268.252 356.968 269.758 354.616C271.258 352.26 267.619 345.89 265.676 345.789C263.736 345.682 263.236 346.538 262.088 349.158Z" fill="white"/>
<path fill-rule="evenodd" clip-rule="evenodd" d="M240.385 309.398C236.732 304.87 239.005 299.434 242.213 297.263C242.653 296.967 243.079 296.996 243.495 297.024C243.913 297.053 244.321 297.081 244.721 296.775C247.573 294.599 253.958 293.83 256.068 295.562C257.992 297.14 257.382 303.055 255.521 306.879C255.122 307.698 255.128 308.076 255.133 308.45C255.141 308.948 255.148 309.437 254.196 310.95C251.589 315.139 244.237 314.159 240.385 309.398ZM247.674 302.906C249.77 304.596 253.606 306.57 254.344 305.884C255.084 305.195 256.81 298.976 254.937 296.915C253.049 294.86 245.958 296.711 245.354 298.556C244.742 300.408 245.44 301.114 247.674 302.906Z" fill="white"/>
<path fill-rule="evenodd" clip-rule="evenodd" d="M160.604 282.264C155.727 285.965 148.346 285.146 146.822 280.457C146.266 278.755 146.39 278.284 146.516 277.803C146.61 277.443 146.706 277.077 146.52 276.186C145.634 272.037 146.46 266.138 148.701 265.069C151.161 263.893 157.176 266.172 159.422 268.97C159.738 269.362 160.141 269.433 160.554 269.506C160.967 269.579 161.39 269.654 161.744 270.053C164.341 272.918 165.241 278.744 160.604 282.264ZM155.088 274.208C157.692 273.016 158.533 272.497 158.392 270.552C158.242 268.618 151.801 265.11 149.478 266.661C147.157 268.201 147.342 274.657 147.897 275.502C148.453 276.348 152.646 275.342 155.088 274.208Z" fill="white"/>
<path fill-rule="evenodd" clip-rule="evenodd" d="M205.697 283.81C201.057 280.296 201.956 274.476 204.557 271.593C204.908 271.201 205.329 271.126 205.74 271.053C206.154 270.98 206.559 270.908 206.872 270.517C209.12 267.717 215.135 265.444 217.601 266.616C219.841 267.69 220.669 273.582 219.781 277.734C219.593 278.629 219.688 278.995 219.781 279.357C219.906 279.838 220.029 280.312 219.479 282.013C217.951 286.697 210.568 287.513 205.697 283.81ZM211.208 275.764C213.651 276.9 217.848 277.894 218.399 277.05C218.953 276.204 219.137 269.753 216.815 268.206C214.495 266.661 208.052 270.17 207.903 272.101C207.765 274.048 208.609 274.561 211.208 275.764Z" fill="white"/>
<path d="M152.206 198.94L152.169 199.021C153.863 199.78 155.406 198.705 156.79 197.74L156.795 197.737C157.028 197.575 157.257 197.416 157.481 197.269C157.404 197.252 157.327 197.236 157.249 197.219C157.19 197.205 157.13 197.192 157.07 197.179L156.883 197.136C155.997 196.936 155.107 196.734 154.201 196.769C153.105 196.966 152.62 198.031 152.206 198.94Z" fill="white"/>
<path fill-rule="evenodd" clip-rule="evenodd" d="M38.1768 112.798C38.1768 111.828 38.9608 111.141 39.8328 111.15H324.075C324.939 111.15 325.758 111.806 325.758 112.798V256.453C325.758 404.847 183.693 487.013 182.801 487.528L182.798 487.53C182.393 487.773 181.609 487.805 181.133 487.53L181.122 487.524C179.625 486.652 38.1768 404.197 38.1768 256.453V112.798ZM319.961 180.938L181.997 122.984L44.0381 180.938V220.064L181.997 162.106L319.961 220.064V180.938ZM69.3421 149.86C70.4647 151.756 72.5834 153.18 74.8608 152.621C76.1274 152.499 76.8186 151.471 77.475 150.494C77.6346 150.257 77.7922 150.022 77.9554 149.805C77.0154 147.828 74.7208 147.181 72.6861 147.357C71.4633 147.594 70.5976 148.521 69.7736 149.403C69.6291 149.558 69.4858 149.712 69.3421 149.86ZM76.3568 146.742C77.8741 147.657 78.7568 149.204 79.2208 150.873C80.7208 150.874 82.2204 150.881 83.7198 150.888C87.7086 150.906 91.6967 150.925 95.6861 150.833C95.2549 150.419 94.8542 149.949 94.4514 149.477C93.417 148.264 92.3684 147.035 90.7514 146.689C86.0941 145.341 80.9034 144.6 76.3568 146.742ZM57.3194 145.494C56.6361 145.503 56.1935 146.021 55.783 146.501L55.7804 146.504C55.7304 146.563 55.6809 146.62 55.6314 146.677L55.3118 147.072L55.3105 147.074L55.3097 147.075C54.2954 148.33 53.2818 149.584 52.2954 150.861C55.0878 150.906 57.8783 150.901 60.6689 150.895H60.6801C63.3118 150.89 65.9435 150.885 68.5768 150.922C68.213 149.441 69.275 148.473 70.2729 147.564C70.4966 147.36 70.7177 147.159 70.9181 146.956C66.6741 145.066 61.8661 144.869 57.3194 145.494ZM51.4974 135.061C51.4937 140.048 51.49 145.037 51.5128 150.028C52.7221 148.738 53.8874 147.409 54.9728 146.021C55.6257 145.234 55.6128 144.204 55.6004 143.214C55.5971 142.949 55.5938 142.687 55.6034 142.433C55.4604 139.171 55.4693 135.905 55.4782 132.637C55.4835 130.663 55.4889 128.688 55.4608 126.714C54.1288 126.833 52.8141 127.021 51.4994 127.257C51.5013 129.858 51.4993 132.46 51.4974 135.061ZM91.9047 126.352C91.9697 128.619 91.9106 130.882 91.8515 133.147V133.148C91.7967 135.248 91.7418 137.35 91.7861 139.454C91.7963 140.691 91.7586 141.929 91.7207 143.17C91.6946 144.027 91.6684 144.884 91.6581 145.742C93.8007 147.044 95.5767 148.92 96.8794 151.064C96.876 146.049 96.8775 141.034 96.879 136.022L96.879 135.978C96.8799 133.185 96.8808 130.392 96.8808 127.601C95.1888 127.314 93.5167 126.921 91.9047 126.352ZM74.1061 125.665C74.1563 127.259 74.2218 128.853 74.2874 130.446L74.2875 130.45L74.2876 130.451C74.3543 132.072 74.421 133.694 74.4714 135.314C74.5048 136.462 74.507 137.612 74.5091 138.762C74.5139 141.33 74.5187 143.899 74.8714 146.44C79.7034 143.608 85.5648 144.265 90.7514 145.65C90.9779 141.097 90.9433 136.535 90.9088 131.973C90.8931 129.902 90.8773 127.829 90.8861 125.758L90.6204 125.584C89.0987 124.585 87.5289 123.554 85.6794 123.32C81.7088 122.76 77.5501 123.621 74.1061 125.665ZM61.8461 123.4C60.0817 123.823 58.6111 124.878 57.1592 125.92L57.1568 125.922L57.1547 125.923C56.8583 126.136 56.5619 126.348 56.2647 126.554C56.3039 128.857 56.3569 131.159 56.41 133.46C56.4962 137.197 56.5823 140.935 56.6087 144.672C60.2567 144.072 64.0248 144.098 67.6514 144.849C68.5473 145.009 69.3995 145.327 70.2514 145.645C71.3785 146.066 72.505 146.487 73.7314 146.541C73.8091 143.871 73.6903 141.205 73.5715 138.538C73.4741 136.352 73.3766 134.166 73.3874 131.977C73.4048 129.918 73.3528 127.857 73.2341 125.804C69.9568 123.536 65.7714 122.332 61.8461 123.4ZM284.963 149.233C286.086 151.134 288.206 152.557 290.482 151.993C291.74 151.87 292.433 150.845 293.092 149.872C293.254 149.634 293.413 149.398 293.578 149.18C292.633 147.2 290.343 146.554 288.31 146.729C287.099 146.965 286.247 147.873 285.431 148.742C285.354 148.824 285.278 148.905 285.202 148.986C285.122 149.069 285.043 149.152 284.963 149.233ZM291.982 146.116C293.494 147.03 294.375 148.577 294.843 150.241C296.259 150.243 297.675 150.251 299.09 150.258C303.162 150.279 307.234 150.3 311.305 150.204C310.878 149.792 310.481 149.327 310.082 148.859C309.044 147.644 307.99 146.41 306.37 146.06C301.718 144.714 296.529 143.974 291.982 146.116ZM272.942 144.865C272.258 144.873 271.809 145.4 271.399 145.882L271.319 145.975L271.28 146.021L271.258 146.046C270.133 147.432 269.01 148.825 267.917 150.232C270.753 150.278 273.585 150.273 276.418 150.268H276.43C279.02 150.264 281.61 150.259 284.203 150.294C283.835 148.811 284.9 147.839 285.896 146.93L285.897 146.929C286.118 146.727 286.336 146.528 286.534 146.328C282.297 144.438 277.487 144.24 272.942 144.865ZM267.119 135.68C267.116 140.253 267.114 144.826 267.135 149.402C268.338 148.108 269.502 146.78 270.594 145.392C271.245 144.607 271.233 143.575 271.222 142.588V142.586C271.219 142.323 271.216 142.062 271.226 141.81C271.075 138.474 271.086 135.135 271.097 131.795C271.103 129.891 271.11 127.987 271.086 126.084C269.747 126.205 268.434 126.392 267.117 126.628C267.122 129.645 267.12 132.663 267.119 135.68ZM307.526 125.722C307.589 127.96 307.531 130.197 307.473 132.433C307.417 134.565 307.362 136.698 307.411 138.83C307.419 140.025 307.381 141.221 307.344 142.417C307.315 143.316 307.287 144.214 307.278 145.113C309.425 146.416 311.203 148.29 312.494 150.438C312.494 147.674 312.496 144.911 312.498 142.149V142.138C312.502 137.082 312.505 132.028 312.497 126.972C310.813 126.686 309.138 126.294 307.526 125.722ZM289.91 129.91L289.91 129.915L289.911 129.933C289.977 131.517 290.042 133.103 290.094 134.692C290.124 135.805 290.125 136.921 290.127 138.038C290.13 140.635 290.133 143.237 290.491 145.813C295.321 142.976 301.179 143.64 306.37 145.024C306.596 140.463 306.563 135.89 306.529 131.318V131.316C306.514 129.253 306.499 127.189 306.507 125.126L306.256 124.961C304.731 123.959 303.154 122.923 301.302 122.694C297.333 122.133 293.177 122.992 289.723 125.038C289.776 126.664 289.843 128.287 289.91 129.91ZM272.81 125.272L272.807 125.274C272.5 125.495 272.193 125.714 271.885 125.928C271.924 128.035 271.973 130.142 272.022 132.249C272.113 136.182 272.204 140.113 272.231 144.044C275.879 143.442 279.643 143.468 283.27 144.221C284.162 144.383 285.011 144.699 285.86 145.016C286.992 145.438 288.123 145.86 289.349 145.912C289.427 143.243 289.309 140.579 289.19 137.914V137.911C289.093 135.725 288.996 133.538 289.007 131.349C289.031 129.288 288.971 127.229 288.857 125.174C285.583 122.913 281.39 121.704 277.463 122.772C275.712 123.19 274.254 124.236 272.81 125.272ZM44.0354 258.204C44.0354 397.616 173.405 476.722 181.999 481.824C190.594 476.722 319.955 397.616 319.955 258.204V227.05H44.0354V258.204ZM167.958 189.962C164.65 192.458 160.533 193.544 156.485 194.092C155.906 194.183 155.322 194.249 154.738 194.316L154.735 194.316C153.47 194.46 152.203 194.604 150.991 195.001C149.848 195.335 149.097 196.278 148.381 197.174L148.377 197.18L148.369 197.19C148.304 197.271 148.24 197.352 148.175 197.432C147.826 197.899 147.427 198.322 147.028 198.744L147.027 198.745L147.026 198.745C146.58 199.217 146.136 199.688 145.765 200.218C145.353 200.96 145.933 201.788 146.538 202.213C147.735 203.097 149.093 203.705 150.448 204.311C150.941 204.531 151.434 204.751 151.918 204.985C155.236 206.597 158.987 206.389 162.585 206.189C162.925 206.17 163.264 206.151 163.601 206.134C163.1 206.678 162.575 207.202 162.051 207.726L162.049 207.727L162.048 207.728C161.706 208.07 161.364 208.412 161.029 208.758C160.978 208.816 160.925 208.875 160.871 208.934C160.484 209.361 160.059 209.831 160.191 210.45C160.884 211.334 162.067 211.509 163.105 211.662L163.142 211.668C165.061 211.914 167.106 211.925 168.861 211.026C171.103 209.965 173.366 208.93 175.739 208.224C177.594 207.693 179.522 207.819 181.432 207.944H181.433C181.868 207.972 182.301 208 182.733 208.021C182.625 208.154 182.516 208.286 182.406 208.419C181.575 209.427 180.724 210.459 180.517 211.8L181.61 211.78C184.604 211.729 187.6 211.678 190.586 211.4C192.531 211.182 194.578 210.853 196.206 209.678C197.209 208.939 197.634 207.752 198.043 206.609L198.044 206.608L198.045 206.604C198.071 206.531 198.097 206.457 198.124 206.384L198.14 206.338C198.151 206.308 198.163 206.277 198.174 206.247C198.205 206.16 198.238 206.073 198.27 205.988C200.832 205.699 203.122 206.693 205.413 207.689C206.515 208.168 207.617 208.647 208.75 208.984C213.122 210.708 217.911 209.709 222.261 208.444C223.447 207.969 224.543 206.689 224.305 205.352C223.799 204.55 222.895 204.24 222.02 203.941C221.718 203.837 221.42 203.735 221.143 203.614C220.521 203.415 219.91 203.179 219.298 202.943C217.979 202.433 216.661 201.924 215.242 201.792C213.962 201.692 212.707 201.938 211.453 202.185C210.004 202.469 208.556 202.754 207.07 202.504C205.581 202.285 204.335 201.452 203.103 200.63C202.909 200.5 202.715 200.37 202.521 200.244C202.115 199.966 201.692 199.704 201.268 199.441L201.267 199.44L201.265 199.439C200.041 198.68 198.805 197.914 197.922 196.742C197.401 196.055 196.932 195.323 196.462 194.591L196.461 194.59C195.475 193.054 194.488 191.516 193.026 190.382C189.138 187.24 184.349 184.621 179.19 184.94C174.942 185.114 171.249 187.496 167.958 189.962Z" fill="white"/>
<path fill-rule="evenodd" clip-rule="evenodd" d="M184.669 0.0279694C182.138 -0.00932312 179.599 -0.00932312 177.067 0.0279694L177.211 0.426956L177.22 0.449661L177.22 0.451859C177.964 2.50899 178.707 4.56404 179.438 6.62263C178.17 6.17213 176.927 5.6617 175.684 5.15169L175.682 5.15059C174.921 4.83827 174.161 4.52614 173.395 4.22798C173.385 6.56935 173.385 8.90669 173.413 11.2573C175.398 10.8454 177.406 10.5106 179.417 10.2866C179.204 10.8432 178.993 11.4013 178.783 11.9596C178.092 13.7916 177.401 15.6266 176.622 17.42C176.515 17.6618 176.402 17.9043 176.288 18.1481C175.71 19.3851 175.116 20.6569 175.278 22.0413C175.434 23.7293 176.401 25.176 177.502 26.3947C176.043 26.7694 174.617 27.2347 173.215 27.7653C173.18 27.7265 173.146 27.6873 173.111 27.6478C173.052 27.5816 172.993 27.5148 172.934 27.4476C172.134 26.5373 171.284 25.5708 170.047 25.3227C167.781 24.7747 165.425 24.5294 163.099 24.6654C163.62 25.3972 164.183 26.0994 164.747 26.8016C165.854 28.1792 166.96 29.5577 167.739 31.1613C147.674 35.592 128.766 45.94 114.925 61.2174C116.653 65.2238 118.412 69.2168 120.172 73.2091L120.173 73.2113C122.076 77.5315 123.98 81.8512 125.843 86.1867C125.455 87.644 125.598 89.1893 126.739 90.2787C127.458 90.268 128.185 90.2626 128.907 90.2626C129.143 90.8147 129.382 91.368 129.63 91.9187C128.354 93.188 127.682 95.2373 128.789 96.836C129.605 98.352 131.453 98.5267 132.997 98.62C132.715 99.1818 132.31 99.6882 131.905 100.193C131.166 101.116 130.43 102.036 130.461 103.281C130.281 104.688 130.799 106.225 132.073 106.941C133.337 107.793 134.9 107.353 136.255 106.971L136.347 106.945C150.043 102.867 164.39 101.636 178.601 100.909C180.48 100.618 182.358 100.768 184.238 100.919C185.462 101.017 186.688 101.115 187.914 101.091C200.982 101.917 214.146 103.249 226.731 107.067C227.849 107.38 229.097 107.681 230.209 107.148C232.05 106.367 232.745 103.94 231.995 102.165C231.633 100.899 230.625 99.9947 229.659 99.1734C229.718 99.0964 229.805 98.9779 229.889 98.8623L229.961 98.7642C230.01 98.696 230.054 98.6338 230.086 98.588C231.622 98.5014 233.463 98.0867 234.05 96.4574C234.841 94.8253 234.021 93.0853 233.047 91.7507C233.192 91.4622 233.342 91.1748 233.491 90.8884L233.624 90.632L233.671 90.5424L233.728 90.4313L233.786 90.3187C234.058 90.2908 234.35 90.2905 234.646 90.2903C235.582 90.2895 236.56 90.2887 237.089 89.4133C237.977 88.4267 237.378 87.112 236.833 86.1267C239.99 78.8693 243.174 71.628 246.367 64.392C246.472 64.1533 246.581 63.9154 246.691 63.6772C247.059 62.8763 247.429 62.0708 247.627 61.2107C247.061 60.3275 246.301 59.611 245.541 58.8955C245.201 58.5752 244.861 58.2548 244.539 57.92C240.777 54.0467 236.562 50.624 232.162 47.4947C221.005 39.6747 208.299 34.0147 194.941 31.228C195.552 29.7577 196.534 28.5405 197.518 27.322C198.219 26.4534 198.922 25.5835 199.49 24.6214C198.865 24.6054 198.253 24.6 197.633 24.6134C194.521 24.5134 191.898 26.6107 189.878 28.7627C188.335 27.7827 186.635 27.0907 184.878 26.5974C185.389 26.0294 185.895 25.4587 186.335 24.8427C187.375 23.4 187.474 21.4787 187.11 19.7894C186.886 19.1737 186.558 18.6088 186.23 18.0444C185.864 17.4133 185.498 16.7829 185.278 16.0827C184.848 14.7621 184.4 13.447 183.952 12.1322L183.946 12.114L183.944 12.1091L183.825 11.7608C183.761 11.5712 183.696 11.3817 183.632 11.192C183.53 10.8939 183.429 10.5957 183.329 10.2973C184.576 10.581 185.813 10.922 187.05 11.2628L187.053 11.2637C187.588 11.4111 188.123 11.5585 188.659 11.7013C188.701 9.21736 188.69 6.73335 188.679 4.23622L188.679 4.22798C187.954 4.52779 187.237 4.83669 186.521 5.14497L186.517 5.14699C185.461 5.60176 184.408 6.05519 183.338 6.47597C183.519 5.38002 183.764 4.29543 184.01 3.21065C184.249 2.1534 184.489 1.09602 184.669 0.0279694ZM134.751 100.484C147.661 96.3867 161.149 94.136 174.666 93.4507C182.946 93.148 191.237 93.7133 199.487 94.5027C208.023 95.4373 216.614 96.5894 224.831 99.1907C224.903 99.2164 224.976 99.2418 225.048 99.2672C225.233 99.332 225.419 99.3959 225.604 99.4599C226.897 99.9049 228.198 100.353 229.321 101.123C230.469 101.989 230.917 103.72 230.242 105.001C229.641 105.911 228.383 105.884 227.461 105.551C214.305 101.557 200.534 100.183 186.862 99.4093C183.097 99.1253 179.317 99.104 175.559 99.4307C161.997 100.177 148.366 101.613 135.299 105.491C134.375 105.755 133.066 106.047 132.447 105.068C131.27 103.293 132.781 100.812 134.751 100.484ZM227.809 96.7365C226.157 96.233 224.487 95.724 223.171 94.6C221.51 93.0787 223.354 90.864 224.831 90.0267C226.293 90.646 227.806 91.1318 229.318 91.6173L229.322 91.6187C230.106 91.8706 230.891 92.1226 231.669 92.3933C233.143 92.8493 233.925 94.6054 233.261 96.0067C232.723 97.4013 231.002 97.92 229.685 97.3493C229.076 97.1228 228.444 96.9301 227.809 96.7365ZM133.375 91.608C134.59 91.2223 135.804 90.8367 136.99 90.3707C138.031 89.84 139.051 90.7587 139.543 91.6267C140.007 92.4107 140.587 93.5547 139.775 94.3267C138.815 95.4047 137.446 95.8566 136.099 96.301C135.648 96.4501 135.198 96.5986 134.767 96.7694C134.479 96.8523 134.184 96.9584 133.886 97.0657L133.883 97.0667C132.89 97.4245 131.856 97.7973 130.843 97.3894C129.743 97.0213 129.165 95.8387 129.127 94.7427C129.227 93.644 130.049 92.672 131.093 92.3547C131.848 92.0926 132.611 91.8505 133.373 91.6086L133.375 91.608ZM204.258 90.3467C202.435 89.216 202.766 86.16 204.835 85.5413C205.924 85.3085 207.018 85.5197 208.106 85.7296L208.107 85.7299C208.551 85.8156 208.994 85.9011 209.435 85.956C209.975 86.0706 210.529 86.1425 211.082 86.2144C212.196 86.3591 213.31 86.5039 214.315 86.9973C215.919 87.82 216.078 90.24 214.685 91.3294C213.628 92.1977 212.285 91.9423 211.026 91.7029C210.735 91.6475 210.449 91.5929 210.171 91.5534C209.445 91.3852 208.699 91.2864 207.954 91.1876C206.689 91.02 205.424 90.8525 204.258 90.3467ZM152.512 86.0685C153.532 85.9035 154.553 85.7385 155.574 85.5587L155.65 85.5477C156.652 85.4028 157.826 85.2331 158.617 86.012C159.743 86.8707 159.959 88.6574 159.034 89.744C158.399 90.572 157.331 90.7569 156.343 90.9281C156.182 90.956 156.023 90.9835 155.869 91.0133C155.067 91.1151 154.269 91.2536 153.471 91.3919L153.468 91.3925L153.466 91.3927C152.155 91.6201 150.844 91.8474 149.523 91.912C147.645 91.9547 146.39 89.6253 147.311 88.052C147.734 87.016 148.89 86.6654 149.899 86.5C150.767 86.3505 151.636 86.2101 152.505 86.0696L152.507 86.0692L152.512 86.0685ZM166.443 89.3573C165.137 87.7547 165.897 84.9787 167.929 84.3974C168.581 84.2058 169.276 84.1901 169.963 84.1747L170.025 84.1734C177.611 84.2 185.193 84.1893 192.777 84.1773C193.987 84.1893 195.39 84.336 196.157 85.3933C197.313 86.6587 197.067 88.784 195.742 89.824C194.943 90.5694 193.813 90.6347 192.777 90.6453C190.561 90.6453 188.346 90.6416 186.132 90.6378H186.126C180.763 90.6287 175.402 90.6196 170.041 90.664C168.734 90.7067 167.279 90.4507 166.443 89.3573ZM127.221 86.6453C133.242 83.6574 139.682 81.5974 146.139 79.7893C155.033 77.364 164.17 75.812 173.379 75.3374C174.72 75.3663 176.06 75.354 177.4 75.3417L177.406 75.3416C180.084 75.3168 182.761 75.2922 185.43 75.596C194.029 76.1533 202.575 77.4467 211.018 79.1814C219.117 80.8867 227.182 83 234.797 86.28C235.695 86.624 236.411 87.2774 237.055 87.9907C236.897 88.1442 236.747 88.339 236.593 88.5381C236.157 89.1054 235.694 89.707 234.927 89.484C234.457 89.4141 234.002 89.2357 233.563 89.064L233.55 89.0587C226.677 85.9293 219.393 83.7987 212.021 82.2347C203.599 80.464 195.013 79.4227 186.411 78.968C183.368 78.6299 180.305 78.6621 177.243 78.6944C175.705 78.7106 174.168 78.7268 172.633 78.696C157.403 79.5267 142.51 83.6347 128.421 89.332C126.833 90.24 125.474 87.2227 127.221 86.6453ZM188.835 47.812C190.283 42.54 192.111 37.3693 194.393 32.4C210.911 35.808 226.485 43.6054 239.231 54.628C239.293 54.6849 239.358 54.7424 239.423 54.8008C239.988 55.3055 240.63 55.8793 240.49 56.7027C240.414 57.6491 240.304 58.5981 240.194 59.5485C239.882 62.2437 239.569 64.9506 240.018 67.6467C239.531 67.3219 239.048 66.9843 238.563 66.6456C236.517 65.2159 234.447 63.7701 231.971 63.216C231.149 64.9063 230.894 66.74 230.638 68.5762C230.488 69.65 230.338 70.7246 230.075 71.772C232.521 72.3574 234.966 73.2507 236.947 74.8427C237.38 75.163 237.463 75.6809 237.545 76.1907C237.581 76.4148 237.617 76.6377 237.682 76.8413C235.239 78.52 232.206 78.8693 229.321 79.0667C228.753 79.0624 228.178 79.0745 227.601 79.0866L227.599 79.0867C225.312 79.135 222.986 79.184 220.883 78.2187C219.195 77.3787 217.786 76.0707 216.539 74.6814C214.977 72.9373 215.226 70.3693 215.557 68.232C215.709 66.9613 216.794 65.78 218.165 65.9973C220.519 66.236 222.431 67.7012 224.27 69.1105C224.629 69.3859 224.987 69.6598 225.343 69.9213C226.045 67.3347 226.581 64.4867 225.671 61.8947C225.042 60.18 223.182 59.6054 221.586 59.184C221.469 59.1411 221.342 59.1008 221.211 59.0593C220.541 58.8465 219.77 58.6016 219.717 57.8107C219.63 57.0523 219.633 56.2861 219.636 55.5208C219.64 54.276 219.645 53.034 219.266 51.8333C218.895 50.348 217.993 49.088 217.081 47.9053C214.229 50.3 212.406 53.672 211.367 57.2C209.573 56.6414 207.578 56.16 205.786 56.9813C202.961 58.204 201.321 60.964 199.893 63.544C200.446 63.5893 201.015 63.6201 201.59 63.6513C204.349 63.8007 207.261 63.9584 209.414 65.7667C209.791 67.4947 209.649 69.372 208.987 71.008C208.31 72.556 206.583 73.136 205.081 73.48C202.527 74.1585 199.896 73.642 197.357 73.1436C197.087 73.0907 196.818 73.0379 196.55 72.9867C192.993 72.1267 189.222 70.7947 186.906 67.7934C186.211 67.0048 185.993 66.0149 185.775 65.0254C185.55 64.0021 185.325 62.9792 184.573 62.18C188.015 63.9613 191.878 64.72 195.719 64.9733C196.367 61.464 196.427 57.764 195.477 54.2987C193.709 54.8751 192.004 55.611 190.297 56.3471C189.005 56.9049 187.711 57.4629 186.39 57.952C186.711 57.2346 187.057 56.5233 187.403 55.8107C188.374 53.8138 189.35 51.8073 189.791 49.6307C190.062 48.7934 189.441 48.2413 188.835 47.812ZM123.826 54.2613C123.918 54.1823 124.01 54.1033 124.101 54.024C136.747 43.3427 152.045 35.7747 168.251 32.3773C170.519 37.3507 172.439 42.512 173.773 47.812C173.661 47.9456 173.499 48.0608 173.336 48.1771C172.974 48.4346 172.605 48.6974 172.754 49.176C173.162 51.4638 174.168 53.5659 175.169 55.6592C175.534 56.4217 175.898 57.1831 176.233 57.952C175.008 57.4966 173.809 56.9755 172.612 56.4548C170.798 55.6661 168.986 54.8782 167.086 54.32C166.463 57.4373 166.382 60.6587 166.718 63.8173C166.735 63.8896 166.749 63.9768 166.763 64.07C166.825 64.4736 166.905 64.9898 167.409 64.8933C171.081 64.788 174.693 63.7893 178.013 62.2334C177.401 63.0867 177.144 64.0914 176.888 65.0936C176.603 66.2083 176.319 67.32 175.549 68.2174C173.473 70.904 170.139 72.16 166.963 72.9867C163.825 73.6613 160.527 74.2694 157.369 73.4267C155.693 73.1027 153.877 72.1373 153.421 70.3693C153.327 69.7969 153.271 69.2199 153.214 68.6438C153.137 67.8527 153.059 67.0632 152.887 66.2893C152.954 66.2184 153.021 66.1464 153.088 66.0744C153.543 65.584 154.003 65.0881 154.627 64.8253C156.729 63.9151 159.015 63.7661 161.278 63.6188L161.291 63.6179C161.775 63.5864 162.257 63.555 162.737 63.516C161.259 60.756 159.414 57.6707 156.19 56.7813C154.66 56.2539 153.073 56.7034 151.576 57.1273C151.483 57.1535 151.391 57.1796 151.299 57.2053C150.145 53.756 148.55 50.2174 145.589 47.944L145.561 47.979C144.734 49.0477 143.891 50.1371 143.497 51.4453C143.069 52.7529 143.05 54.1145 143.032 55.4756C143.021 56.2962 143.009 57.117 142.909 57.9254C142.929 58.5557 142.369 58.7423 141.853 58.9145C141.714 58.9608 141.578 59.0061 141.458 59.0587C141.308 59.1037 141.156 59.148 141.002 59.1927C139.529 59.6216 137.918 60.0902 137.169 61.556C135.883 63.9766 136.545 66.7577 137.152 69.3053C137.204 69.5249 137.256 69.7429 137.306 69.9587C137.398 69.8858 137.49 69.8125 137.582 69.7388L137.589 69.7332C139.966 67.8378 142.586 65.7484 145.802 65.96C147.587 67.7 147.477 70.3533 147.165 72.632C146.595 74.876 144.613 76.3493 142.803 77.604C141.173 78.7373 139.142 79.0947 137.193 79.0894C133.702 79.1667 130.131 79.0573 126.802 77.9C126.039 77.648 125.517 77.0395 125.008 76.4469C124.909 76.3311 124.81 76.2158 124.71 76.104C126.188 73.7274 128.96 72.8548 131.538 72.0435L131.542 72.0424C131.927 71.9209 132.309 71.8008 132.681 71.6773C132.299 70.4711 132.11 69.2232 131.921 67.9773C131.679 66.3781 131.437 64.7824 130.789 63.2827C128.324 63.6759 126.281 65.1101 124.268 66.5231L124.267 66.5242C123.734 66.898 123.204 67.2702 122.669 67.6214C122.652 66.7139 122.662 65.8077 122.673 64.9019C122.687 63.657 122.701 62.4129 122.646 61.168C122.62 60.4725 122.526 59.7808 122.431 59.0896C122.29 58.0542 122.149 57.0197 122.239 55.9747C122.628 55.2912 123.232 54.7725 123.826 54.2613ZM175.51 36.3544L175.51 36.3505C174.944 33.755 174.379 31.1594 173.83 28.56C175.366 27.9147 176.971 27.4387 178.617 27.1054C180.895 31.036 181.158 35.6613 181.387 40.0773C181.506 39.2886 181.612 38.4926 181.719 37.6943L181.719 37.6929C182.186 34.1976 182.659 30.6561 184.209 27.4653C185.93 27.748 187.682 28.3734 189.059 29.48C188.411 32.3103 187.587 35.1059 186.764 37.9015C186.306 39.4572 185.847 41.013 185.419 42.5747C185.174 43.3502 184.969 44.1377 184.765 44.9248C184.435 46.1973 184.105 47.4686 183.602 48.6853C182.397 48.9384 181.138 48.7807 179.889 48.6242L179.888 48.624C179.281 48.548 178.676 48.4724 178.081 48.444C177.264 44.405 176.387 40.3793 175.51 36.3544ZM176.255 21.2573C176.294 19.1227 177.851 17.1734 179.89 16.5853C182.918 15.596 186.307 18.132 186.466 21.2413C186.729 24.252 183.821 27.0267 180.827 26.632C178.177 26.4507 176.01 23.8974 176.255 21.2573Z" fill="white"/>
</svg>
