<svg width="800" height="320" viewBox="0 0 800 320" fill="none" xmlns="http://www.w3.org/2000/svg">
<path fill-rule="evenodd" clip-rule="evenodd" d="M445.402 284.507C439.162 284.313 429.852 283.547 423.034 281.531C420.636 280.763 415.546 276.636 415.546 270.395V44.1226H502.042C522.586 44.1226 522.972 53.9146 522.972 59.0026H569.148V14.1706H400.666H232.186V59.0026H278.362C278.362 53.9146 278.746 44.1226 299.29 44.1226H385.786V270.395C385.786 276.636 380.698 280.763 378.298 281.531C371.482 283.547 362.17 284.313 355.93 284.507V307.163H445.402V284.507ZM451.834 313.593H349.498V278.267L356.314 278.076L356.89 277.979H357.562H358.138H358.714L359.386 277.883H360.058L360.73 277.787H361.402L362.074 277.692H362.746L363.418 277.593L364.09 277.499H364.762L365.434 277.403L366.202 277.308L366.874 277.211L367.546 277.115L368.218 277.02L368.89 276.923L369.658 276.827L370.33 276.731L371.002 276.636L371.578 276.539L372.25 276.347L372.922 276.251L373.498 276.059L374.17 275.964L374.746 275.868L375.322 275.675L375.898 275.481L376.282 275.387L376.474 275.291L376.762 275.099L377.05 274.908L377.338 274.619L377.626 274.331L378.01 273.947L378.298 273.563L378.586 273.083L378.778 272.699L378.97 272.219L379.162 271.835L379.258 271.355L379.354 270.875V270.3V50.5546H299.386L297.658 50.6506H296.122L294.682 50.8426L293.338 50.9386L292.186 51.1306L291.13 51.3226L290.266 51.6106L289.402 51.8986L288.73 52.0906L288.058 52.3786L287.578 52.6666L287.098 52.9546L286.714 53.1466L286.426 53.4346L286.234 53.6266L285.946 53.9146L285.85 54.1066L285.658 54.2986L285.562 54.5866L285.37 54.7786L285.274 55.0666L285.178 55.3546L285.082 55.6426V55.9306L284.986 56.2186L284.89 56.6026V56.9866V57.3706L284.794 57.7546V58.1386V58.5226V65.4346H225.754V7.73859H575.578V65.4346H516.538V58.5226V58.1386V57.7546L516.442 57.3706V56.9866V56.6026L516.346 56.2186L516.252 55.9306V55.6426L516.154 55.3546L516.058 55.0666L515.964 54.7786L515.77 54.5866L515.674 54.2986L515.482 54.1066L515.386 53.9146L515.098 53.6266L514.906 53.4346L514.618 53.1466L514.234 52.9546L513.754 52.6666L513.274 52.3786L512.602 52.0906L511.93 51.8986L511.066 51.6106L510.204 51.3226L509.148 51.1306L507.994 50.9386L506.652 50.8426L505.21 50.6506H503.674L501.946 50.5546H421.98V270.3V270.875L422.076 271.355L422.17 271.835L422.364 272.219L422.554 272.699L422.748 273.083L423.034 273.563L423.322 273.947L423.706 274.331L423.994 274.619L424.282 274.908L424.57 275.099L424.858 275.291L425.05 275.387L425.434 275.481L426.01 275.675L426.586 275.868L427.162 275.964L427.834 276.059L428.412 276.251L429.084 276.347L429.754 276.539L430.33 276.636L431.002 276.731L431.674 276.827L432.442 276.923L433.114 277.02L433.786 277.115L434.458 277.211L435.13 277.308L435.898 277.403L436.57 277.499H437.242L437.914 277.593L438.586 277.692H439.258L439.93 277.787H440.602L441.274 277.883H441.946L442.618 277.979H443.196H443.77H444.442L445.02 278.076L451.834 278.267V313.593Z" fill="#61A2CA"/>
<path fill-rule="evenodd" clip-rule="evenodd" d="M159.706 86.4588V114.107L152.698 109.499C147.322 105.947 142.618 103.451 138.394 101.819C134.266 100.283 128.122 99.5148 119.962 99.5148C112.186 99.7068 105.562 101.915 99.8025 106.235C94.1385 110.555 91.2598 115.739 91.2598 121.595C91.2598 125.051 92.0265 128.123 93.4665 130.907C95.0025 133.595 96.9225 135.899 99.4185 137.819C101.914 139.835 104.89 141.755 108.346 143.675C111.898 145.691 115.738 147.707 119.962 149.915C131.578 156.059 139.162 159.995 142.906 161.913C146.554 163.835 150.682 166.523 155.29 169.979C159.898 173.339 163.642 177.465 166.522 182.075C169.402 186.779 170.842 192.059 170.842 197.913C170.074 205.883 166.714 213.179 160.954 219.803C155.098 226.331 147.418 231.515 137.914 235.257C128.41 239.099 118.042 240.921 106.81 240.921C99.2265 240.731 92.2185 240.249 85.8825 239.481C79.4505 238.619 73.7878 237.369 68.7945 235.641V203.579L78.8745 211.547C83.6745 215.481 88.1865 218.361 92.3158 220.185C96.4425 222.011 101.53 222.875 107.29 222.969C115.45 222.969 122.458 220.857 128.026 216.539C133.69 212.219 136.57 206.651 136.57 199.641C135.994 195.803 134.554 192.443 132.442 189.563C130.33 186.779 127.642 184.379 124.378 182.361C121.21 180.347 116.506 177.851 110.458 174.969C104.314 171.995 101.05 170.361 100.474 170.075C96.7305 168.059 92.0265 165.369 86.3625 162.203C80.7945 159.131 76.2825 156.059 72.9225 153.179C69.5625 150.395 66.8745 147.035 64.6665 143.099C62.5545 139.163 61.2105 134.363 60.5398 128.603C60.5398 122.363 62.1705 116.219 65.3385 110.267C68.5065 104.315 72.9225 99.0348 78.6825 94.4268C84.4425 89.7228 91.0665 86.0748 98.3625 83.4828C105.754 80.7948 113.434 79.4508 121.498 79.4508C137.434 79.6428 150.202 82.0428 159.706 86.4588ZM308.602 84.1548C305.242 86.2668 301.978 88.8588 298.714 92.0268C295.45 95.1948 292.954 97.6908 291.322 99.4188L243.034 153.083L300.154 220.763C301.498 222.203 303.514 224.313 306.202 227.099C308.89 229.787 311.578 232.283 314.17 234.585C314.746 235.067 315.61 235.835 316.954 236.987C318.298 238.137 319.162 238.809 319.45 239.099C319.93 239.387 320.218 239.675 320.506 239.963H282.298C282.202 239.963 281.05 237.851 279.034 233.819C277.69 231.611 276.154 229.211 274.33 226.619C272.506 224.025 271.066 222.011 270.01 220.763L216.154 156.539V220.763C216.346 222.203 216.634 224.313 217.018 226.907C217.402 229.593 218.074 232.283 218.842 235.163C219.034 235.547 219.322 236.219 219.706 237.179C220.186 238.043 220.474 238.715 220.57 239.099C220.762 239.481 220.858 239.771 221.05 239.963H184.954C185.05 239.963 185.626 238.523 186.778 235.641C187.354 234.203 187.93 232.379 188.314 230.075C188.794 227.867 189.178 225.947 189.37 224.219C189.562 222.585 189.754 221.435 189.85 220.763V99.6108C189.85 98.1708 189.658 96.0588 189.466 93.3708C189.274 90.5868 188.794 88.1868 187.834 85.9788C187.546 85.1148 187.066 84.0588 186.49 82.9068C185.818 81.8508 185.338 80.9868 184.954 80.4108H221.05C220.858 80.6988 220.762 80.9868 220.57 81.2748C220.378 81.5628 220.09 82.2348 219.61 83.0988C219.13 84.0588 218.842 84.6348 218.65 85.0188C217.786 87.3228 217.114 89.9148 216.826 92.8908C216.442 95.8668 216.25 98.0748 216.154 99.6108V153.083L260.794 99.6108C262.042 98.1708 263.578 95.9628 265.594 93.1788C267.514 90.2988 268.858 87.4188 269.626 84.6348C269.722 84.3468 269.818 83.7708 270.01 82.7148C270.202 81.6588 270.394 80.9868 270.49 80.4108H314.842C314.362 80.4108 312.346 81.6588 308.602 84.1548ZM399.994 222.969C393.658 222.875 386.746 221.147 380.698 217.883C374.65 214.619 369.562 209.529 365.626 202.809C361.594 195.995 359.578 187.835 359.578 178.137V99.6108C359.674 98.0748 360.058 95.8668 360.442 92.9868C360.922 90.2028 361.594 87.5148 362.362 85.0188C363.706 81.9468 364.474 80.4108 364.666 80.4108H326.362C326.746 81.1788 327.13 82.0428 327.61 83.1948C328.186 84.3468 328.762 85.6908 329.242 87.3228C329.914 89.2428 330.49 91.4508 330.778 93.9468C331.258 96.4428 331.45 98.3628 331.546 99.6108V170.747C331.546 184.667 333.658 193.593 337.882 204.443C342.106 215.387 348.538 224.219 356.986 231.129C365.53 238.043 375.706 240.921 387.514 241.593C395.962 242.075 404.314 241.979 412.762 241.499C424.57 240.827 434.748 238.043 443.29 231.129C451.74 224.219 458.076 215.387 462.298 204.443C466.618 193.593 468.73 185.819 468.73 170.747V99.6108C468.826 98.3628 469.02 96.4428 469.402 93.9468C469.786 91.4508 470.266 89.2428 471.034 87.3228C471.514 85.6908 472.092 84.3468 472.57 83.1948C473.148 82.0428 473.53 81.1788 473.818 80.4108H435.514C435.804 80.4108 436.57 81.9468 437.818 85.0188C438.682 87.5148 439.354 90.2028 439.834 92.9868C440.218 95.8668 440.506 98.0748 440.698 99.6108V178.137C440.698 187.835 438.682 195.995 434.65 202.809C430.618 209.529 425.626 214.619 419.578 217.883C413.434 221.147 406.33 222.875 399.994 222.969ZM533.818 222.395C543.42 222.395 554.554 221.241 566.17 219.129C578.458 217.019 601.692 212.697 612.252 209.241L600.252 239.963H490.714C491.196 239.291 491.674 238.523 492.252 237.465C492.826 236.313 493.402 235.163 493.786 234.011C494.65 231.995 495.226 229.593 495.514 226.907C495.898 224.219 496.186 222.203 496.186 220.763V99.6108C496.186 98.0748 496.092 95.7708 495.804 92.7948C495.514 89.9148 494.748 87.2268 493.594 84.8268C493.02 83.7708 492.442 82.9068 491.964 82.2348C491.482 81.5628 491.098 80.9868 490.714 80.4108H531.706C531.42 80.4108 530.65 81.7548 529.21 84.3468C528.058 86.9388 527.29 89.7228 526.906 92.6988C526.524 95.6748 526.33 98.0748 526.234 99.6108V222.395H533.818ZM714.106 105.467C710.554 104.411 703.162 102.587 692.026 100.091C684.252 98.4588 675.61 97.4028 666.106 97.0188L657.754 96.6348V151.835C661.02 151.547 664.186 151.259 667.258 151.163C670.33 150.971 673.498 150.875 676.666 150.779C679.834 150.683 682.81 150.587 685.69 150.491C688.186 150.395 691.642 150.299 696.058 150.299C702.298 150.299 710.842 150.683 721.786 151.355L704.506 173.819C696.73 171.129 688.666 169.115 680.218 167.771C675.898 167.003 672.154 166.523 669.178 166.235C666.204 165.947 662.364 165.755 657.754 165.755V224.025H666.874C671.674 224.025 675.42 223.835 678.204 223.451C681.084 223.163 686.65 222.491 695.098 221.339C702.298 220.379 707.964 219.611 712.092 218.843C716.314 218.075 721.018 216.921 726.298 215.579C731.578 214.137 736.378 212.891 740.794 211.641L725.434 239.963H620.89C621.084 239.963 622.042 238.425 623.77 235.451C624.922 232.955 625.594 230.361 625.98 227.481C626.364 224.603 626.554 222.299 626.554 220.763V99.6108C626.554 98.9388 626.554 97.8828 626.458 96.3468C626.364 94.7148 626.17 92.9868 625.882 91.1628C625.692 89.2428 625.21 87.5148 624.538 85.7868C624.058 84.7308 623.386 83.6748 622.618 82.7148C621.946 81.7548 621.274 80.9868 620.89 80.4108H729.658L714.106 105.467Z" fill="#61A2CA"/>
<path d="M739.391 71.2428H754.495V75.2134H749.427V87.3228H744.459V75.2134H739.391V71.2428Z" fill="#61A2CA"/>
<path d="M756.689 71.2428H763.222L765.743 81.0268L768.245 71.2428H774.775V87.3228H770.706V75.0601L767.57 87.3228H763.886L760.758 75.0601V87.3228H756.689V71.2428Z" fill="#61A2CA"/>
<path fill-rule="evenodd" clip-rule="evenodd" d="M429.227 86.8029C424.619 91.3149 420.875 98.0349 415.499 99.4749C411.563 100.531 409.643 96.0189 407.819 91.9869C406.956 95.4429 402.827 105.139 398.603 105.619C393.035 106.195 390.347 98.7069 387.467 94.9629C386.699 100.915 385.739 128.563 377.867 130.963C366.635 134.323 367.979 107.155 367.883 107.539C367.787 108.019 363.179 110.227 359.339 108.211C352.619 104.755 348.491 92.4669 346.379 88.9149C344.651 97.6509 344.651 106.771 343.115 109.459C341.483 112.339 336.875 110.515 334.379 110.515C336.683 118.387 339.179 127.315 336.203 131.059C333.131 134.899 330.347 135.475 325.739 134.995C333.035 138.931 345.131 161.684 344.459 166.866C343.787 172.051 328.043 173.684 322.187 173.97C328.427 177.331 333.323 179.923 339.179 183.283C345.035 186.642 350.123 191.827 355.019 193.747C359.915 195.763 365.579 196.051 368.555 197.299C367.403 203.059 364.331 210.356 361.547 214.58C358.763 218.803 355.115 225.523 350.027 226.291L352.811 234.547C357.131 234.835 357.899 229.843 358.763 227.251C359.627 224.659 371.627 204.692 374.795 199.026C374.795 199.026 383.243 207.955 387.179 210.163C391.211 212.468 398.891 213.811 404.747 216.595C410.603 219.283 413.771 221.491 419.244 224.082C416.171 218.707 409.547 209.299 411.179 204.978C412.811 200.563 420.779 199.219 428.747 199.026C436.811 198.739 447.275 200.082 451.883 200.179C448.907 195.859 445.644 194.035 446.219 189.331C446.699 184.627 463.883 179.827 463.883 179.827C463.883 179.827 459.755 175.891 461.387 171.955C462.923 168.02 471.275 161.97 477.131 157.747C472.235 158.131 459.947 159.475 454.091 157.267C448.235 155.155 448.043 149.491 448.14 149.491C448.235 149.491 426.443 166.099 423.851 155.347C421.74 146.803 441.9 131.347 446.507 127.123C440.363 126.547 431.051 127.891 430.956 123.283C430.763 116.563 437.964 107.635 437.964 107.635C437.964 107.635 429.131 108.691 427.787 105.715C425.579 100.819 427.787 93.6189 429.227 86.8029Z" fill="white"/>
<path d="M429.227 86.8029C424.619 91.3149 420.875 98.0349 415.499 99.4749C411.563 100.531 409.643 96.0189 407.819 91.9869C406.956 95.4429 402.827 105.139 398.603 105.619C393.035 106.195 390.347 98.7069 387.467 94.9629C386.699 100.915 385.739 128.563 377.867 130.963C366.635 134.323 367.979 107.155 367.883 107.539C367.787 108.019 363.179 110.227 359.339 108.211C352.619 104.755 348.491 92.4669 346.379 88.9149C344.651 97.6509 344.651 106.771 343.115 109.459C341.483 112.339 336.875 110.515 334.379 110.515C336.683 118.387 339.179 127.315 336.203 131.059C333.131 134.899 330.347 135.475 325.739 134.995C333.035 138.931 345.131 161.684 344.459 166.866C343.787 172.051 328.043 173.684 322.187 173.97C328.427 177.331 333.323 179.923 339.179 183.283C345.035 186.642 350.123 191.827 355.019 193.747C359.915 195.763 365.579 196.051 368.555 197.299C367.403 203.059 364.331 210.356 361.547 214.58C358.763 218.803 355.115 225.523 350.027 226.291L352.811 234.547C357.131 234.835 357.899 229.843 358.763 227.251C359.627 224.659 371.627 204.692 374.795 199.026C374.795 199.026 383.243 207.955 387.179 210.163C391.211 212.468 398.891 213.811 404.747 216.595C410.603 219.283 413.771 221.491 419.244 224.082C416.171 218.707 409.547 209.299 411.179 204.978C412.811 200.563 420.779 199.219 428.747 199.026C436.811 198.739 447.275 200.082 451.883 200.179C448.907 195.859 445.644 194.035 446.219 189.331C446.699 184.627 463.883 179.827 463.883 179.827C463.883 179.827 459.755 175.891 461.387 171.955C462.923 168.02 471.275 161.97 477.131 157.747C472.235 158.131 459.947 159.475 454.091 157.267C448.235 155.155 448.043 149.491 448.14 149.491C448.235 149.491 426.443 166.099 423.851 155.347C421.74 146.803 441.9 131.347 446.507 127.123C440.363 126.547 431.051 127.891 430.956 123.283C430.763 116.563 437.964 107.635 437.964 107.635C437.964 107.635 429.131 108.691 427.787 105.715C425.579 100.819 427.787 93.6189 429.227 86.8029V86.8029Z" stroke="white" stroke-width="2.66667"/>
<path fill-rule="evenodd" clip-rule="evenodd" d="M374.65 193.307L374.746 193.499L375.034 193.402L375.226 193.499L412.57 217.211L412.954 216.635L376.09 193.114L411.322 180.73L411.226 180.827L445.114 197.051L445.498 196.379L412.186 180.443L435.994 172.091L459.898 179.002L459.994 178.331L437.242 171.707L465.466 161.819L465.274 161.146L437.05 170.939L448.186 154.043L447.514 153.659L435.898 171.419L375.802 192.346L399.514 147.034L438.874 130.331L438.586 129.562L400.09 145.978L413.242 120.635L433.692 111.515L433.308 110.842L413.818 119.579L423.514 100.954L422.842 100.571L413.05 119.29L409.692 99.4181L408.922 99.6114L412.476 120.443L399.418 145.594L390.778 103.547L390.01 103.739L398.842 146.65L375.13 192.058L365.626 158.267L365.818 157.883L365.434 157.691L359.578 136.763L366.682 111.611L365.914 111.418L359.194 135.418L349.498 100.763L348.826 100.954L358.234 134.555L340.186 114.586L339.61 115.066L358.714 136.187L364.474 157.019L334.81 137.146L334.33 137.723L364.762 158.17L374.362 192.25L334.234 175.642L333.85 176.314L374.554 193.114V193.211L374.65 193.307ZM427.786 105.715C429.13 108.691 437.964 107.635 437.964 107.635C437.964 107.635 430.762 116.562 430.956 123.282C431.05 127.89 440.362 126.547 446.506 127.122C441.9 131.346 421.74 146.803 423.85 155.346C426.442 166.099 448.234 149.491 448.14 149.491C448.042 149.491 448.234 155.155 454.092 157.267C459.946 159.474 472.234 158.131 477.13 157.747C471.274 161.97 462.924 168.019 461.386 171.954C459.756 175.89 463.882 179.827 463.882 179.827C463.882 179.827 446.698 184.626 446.218 189.331C445.644 194.035 448.906 195.859 451.882 200.178C447.274 200.082 436.812 198.738 428.746 199.026C420.778 199.219 412.812 200.562 411.178 204.978C409.546 209.298 416.17 218.707 419.244 224.082C413.77 221.491 410.602 219.282 404.746 216.595C398.89 213.811 391.21 212.467 387.178 210.163C383.242 207.954 374.794 199.026 374.794 199.026C371.626 204.691 359.626 224.659 358.762 227.251C357.9 229.842 357.13 234.835 352.81 234.547L350.026 226.29C355.114 225.522 358.762 218.803 361.546 214.579C364.33 210.355 367.402 203.058 368.554 197.298C365.578 196.051 359.914 195.763 355.018 193.747C350.122 191.827 345.036 186.642 339.178 183.282C333.322 179.923 328.428 177.331 322.186 173.97C328.042 173.683 343.788 172.051 344.458 166.866C345.13 161.683 333.036 138.931 325.738 134.995C330.346 135.474 333.13 134.898 336.204 131.058C339.178 127.314 336.682 118.387 334.378 110.515C336.874 110.515 341.484 112.338 343.114 109.458C344.65 106.771 344.65 97.6501 346.378 88.9154C348.49 92.4674 352.62 104.754 359.338 108.211C363.178 110.226 367.788 108.019 367.882 107.538C367.98 107.155 366.634 134.323 377.868 130.963C385.738 128.562 386.698 100.915 387.466 94.9634C390.346 98.7061 393.036 106.195 398.602 105.618C402.826 105.139 406.956 95.4434 407.818 91.9874C409.644 96.0194 411.562 100.53 415.498 99.4741C420.874 98.0341 424.618 91.3141 429.226 86.8034C427.786 93.6181 425.578 100.819 427.786 105.715Z" fill="#EB3D2C"/>
</svg>
