<svg width="1322" height="306" viewBox="0 0 1322 306" fill="none" xmlns="http://www.w3.org/2000/svg">
<path fill-rule="evenodd" clip-rule="evenodd" d="M384.863 276.768C378.623 276.574 369.312 275.808 362.495 273.792C360.096 273.024 355.007 268.897 355.007 262.656V36.3838H441.503C462.047 36.3838 462.432 46.1758 462.432 51.2638H508.608V6.43181H340.127H171.647V51.2638H217.823C217.823 46.1758 218.207 36.3838 238.751 36.3838H325.247V262.656C325.247 268.897 320.159 273.024 317.759 273.792C310.943 275.808 301.631 276.574 295.391 276.768V299.424H384.863V276.768ZM391.295 305.854H288.959V270.528L295.775 270.337L296.351 270.24H297.023H297.599H298.175L298.847 270.144H299.519L300.191 270.048H300.863L301.535 269.953H302.207L302.879 269.854L303.551 269.76H304.223L304.895 269.664L305.663 269.569L306.335 269.472L307.007 269.376L307.679 269.281L308.351 269.184L309.119 269.088L309.791 268.992L310.463 268.897L311.039 268.8L311.711 268.608L312.383 268.512L312.959 268.32L313.631 268.225L314.207 268.129L314.783 267.936L315.359 267.742L315.743 267.648L315.935 267.552L316.223 267.36L316.511 267.169L316.799 266.88L317.087 266.592L317.471 266.208L317.759 265.824L318.047 265.344L318.239 264.96L318.431 264.48L318.623 264.096L318.719 263.616L318.815 263.136V262.561V42.8158H238.847L237.119 42.9118H235.583L234.143 43.1038L232.799 43.1998L231.647 43.3918L230.591 43.5838L229.727 43.8718L228.863 44.1598L228.191 44.3518L227.519 44.6398L227.039 44.9278L226.559 45.2158L226.175 45.4078L225.887 45.6958L225.695 45.8878L225.407 46.1758L225.311 46.3678L225.119 46.5598L225.023 46.8478L224.831 47.0398L224.735 47.3278L224.639 47.6158L224.543 47.9038V48.1918L224.447 48.4798L224.351 48.8638V49.2478V49.6318L224.255 50.0158V50.3998V50.7838V57.6958H165.215V-0.000192221H515.039V57.6958H455.999V50.7838V50.3998V50.0158L455.903 49.6318V49.2478V48.8638L455.807 48.4798L455.712 48.1918V47.9038L455.615 47.6158L455.519 47.3278L455.424 47.0398L455.231 46.8478L455.135 46.5598L454.943 46.3678L454.847 46.1758L454.559 45.8878L454.367 45.6958L454.079 45.4078L453.695 45.2158L453.215 44.9278L452.735 44.6398L452.063 44.3518L451.391 44.1598L450.527 43.8718L449.664 43.5838L448.608 43.3918L447.455 43.1998L446.112 43.1038L444.671 42.9118H443.135L441.407 42.8158H361.44V262.561V263.136L361.536 263.616L361.631 264.096L361.824 264.48L362.015 264.96L362.208 265.344L362.495 265.824L362.783 266.208L363.167 266.592L363.455 266.88L363.743 267.169L364.031 267.36L364.319 267.552L364.511 267.648L364.895 267.742L365.471 267.936L366.047 268.129L366.623 268.225L367.295 268.32L367.872 268.512L368.544 268.608L369.215 268.8L369.791 268.897L370.463 268.992L371.135 269.088L371.903 269.184L372.575 269.281L373.247 269.376L373.919 269.472L374.591 269.569L375.359 269.664L376.031 269.76H376.703L377.375 269.854L378.047 269.953H378.719L379.391 270.048H380.063L380.735 270.144H381.407L382.079 270.24H382.656H383.231H383.903L384.48 270.337L391.295 270.528V305.854Z" fill="white"/>
<path fill-rule="evenodd" clip-rule="evenodd" d="M99.1667 78.7205V106.369L92.1587 101.761C86.7827 98.2085 82.0787 95.7125 77.8547 94.0805C73.7267 92.5445 67.5827 91.7765 59.4227 91.7765C51.6467 91.9685 45.0227 94.1765 39.2627 98.4965C33.5987 102.817 30.72 108.001 30.72 113.857C30.72 117.313 31.4867 120.385 32.9267 123.169C34.4627 125.857 36.3827 128.161 38.8787 130.081C41.3747 132.097 44.3507 134.017 47.8067 135.937C51.3587 137.953 55.1987 139.969 59.4227 142.177C71.0387 148.321 78.6227 152.257 82.3667 154.175C86.0147 156.097 90.1427 158.785 94.7507 162.241C99.3587 165.601 103.103 169.727 105.983 174.337C108.863 179.041 110.303 184.321 110.303 190.175C109.535 198.145 106.175 205.441 100.415 212.065C94.5587 218.593 86.8787 223.777 77.3747 227.519C67.8707 231.361 57.5027 233.183 46.2707 233.183C38.6867 232.993 31.6787 232.511 25.3427 231.743C18.9107 230.881 13.248 229.631 8.25467 227.903V195.841L18.3347 203.809C23.1347 207.743 27.6467 210.623 31.776 212.447C35.9027 214.273 40.9907 215.137 46.7507 215.231C54.9107 215.231 61.9187 213.119 67.4867 208.801C73.1507 204.481 76.0307 198.913 76.0307 191.903C75.4547 188.065 74.0147 184.705 71.9027 181.825C69.7907 179.041 67.1027 176.641 63.8387 174.623C60.6707 172.609 55.9667 170.113 49.9187 167.231C43.7747 164.257 40.5107 162.623 39.9347 162.337C36.1907 160.321 31.4867 157.631 25.8227 154.465C20.2547 151.393 15.7427 148.321 12.3827 145.441C9.02267 142.657 6.33467 139.297 4.12667 135.361C2.01467 131.425 0.670667 126.625 0 120.865C0 114.625 1.63067 108.481 4.79867 102.529C7.96666 96.5765 12.3827 91.2965 18.1427 86.6885C23.9027 81.9845 30.5267 78.3365 37.8227 75.7445C45.2147 73.0565 52.8947 71.7125 60.9587 71.7125C76.8947 71.9045 89.6627 74.3045 99.1667 78.7205ZM248.063 76.4165C244.703 78.5285 241.439 81.1205 238.175 84.2885C234.911 87.4565 232.415 89.9525 230.783 91.6805L182.495 145.345L239.615 213.025C240.959 214.465 242.975 216.575 245.663 219.361C248.351 222.049 251.039 224.545 253.631 226.847C254.207 227.329 255.071 228.097 256.415 229.249C257.759 230.399 258.623 231.071 258.911 231.361C259.391 231.649 259.679 231.937 259.967 232.225H221.759C221.663 232.225 220.511 230.113 218.495 226.081C217.151 223.873 215.615 221.473 213.791 218.881C211.967 216.287 210.527 214.273 209.471 213.025L155.615 148.801V213.025C155.807 214.465 156.095 216.575 156.479 219.169C156.863 221.855 157.535 224.545 158.303 227.425C158.495 227.809 158.783 228.481 159.167 229.441C159.647 230.305 159.935 230.977 160.031 231.361C160.223 231.743 160.319 232.033 160.511 232.225H124.415C124.511 232.225 125.087 230.785 126.239 227.903C126.815 226.465 127.391 224.641 127.775 222.337C128.255 220.129 128.639 218.209 128.831 216.481C129.023 214.847 129.215 213.697 129.311 213.025V91.8725C129.311 90.4325 129.119 88.3205 128.927 85.6325C128.735 82.8485 128.255 80.4485 127.295 78.2405C127.007 77.3765 126.527 76.3205 125.951 75.1685C125.279 74.1125 124.799 73.2485 124.415 72.6725H160.511C160.319 72.9605 160.223 73.2485 160.031 73.5365C159.839 73.8245 159.551 74.4965 159.071 75.3605C158.591 76.3205 158.303 76.8965 158.111 77.2805C157.247 79.5845 156.575 82.1765 156.287 85.1525C155.903 88.1285 155.711 90.3365 155.615 91.8725V145.345L200.255 91.8725C201.503 90.4325 203.039 88.2245 205.055 85.4405C206.975 82.5605 208.319 79.6805 209.087 76.8965C209.183 76.6085 209.279 76.0325 209.471 74.9765C209.663 73.9205 209.855 73.2485 209.951 72.6725H254.303C253.823 72.6725 251.807 73.9205 248.063 76.4165ZM339.455 215.231C333.119 215.137 326.207 213.409 320.159 210.145C314.111 206.881 309.023 201.791 305.087 195.071C301.055 188.257 299.039 180.097 299.039 170.399V91.8725C299.135 90.3365 299.519 88.1285 299.903 85.2485C300.383 82.4645 301.055 79.7765 301.823 77.2805C303.167 74.2085 303.935 72.6725 304.127 72.6725H265.823C266.207 73.4405 266.591 74.3045 267.071 75.4565C267.647 76.6085 268.223 77.9525 268.703 79.5845C269.375 81.5045 269.951 83.7125 270.239 86.2085C270.719 88.7045 270.911 90.6245 271.007 91.8725V163.009C271.007 176.929 273.119 185.855 277.343 196.705C281.567 207.649 287.999 216.481 296.447 223.391C304.991 230.305 315.167 233.183 326.975 233.855C335.423 234.337 343.775 234.241 352.223 233.761C364.031 233.089 374.208 230.305 382.751 223.391C391.2 216.481 397.536 207.649 401.759 196.705C406.079 185.855 408.191 178.081 408.191 163.009V91.8725C408.287 90.6245 408.48 88.7045 408.863 86.2085C409.247 83.7125 409.727 81.5045 410.495 79.5845C410.975 77.9525 411.552 76.6085 412.031 75.4565C412.608 74.3045 412.991 73.4405 413.279 72.6725H374.975C375.264 72.6725 376.031 74.2085 377.279 77.2805C378.143 79.7765 378.815 82.4645 379.295 85.2485C379.679 88.1285 379.967 90.3365 380.159 91.8725V170.399C380.159 180.097 378.143 188.257 374.111 195.071C370.079 201.791 365.087 206.881 359.039 210.145C352.895 213.409 345.791 215.137 339.455 215.231ZM473.279 214.657C482.88 214.657 494.015 213.503 505.631 211.391C517.919 209.281 541.152 204.959 551.712 201.503L539.712 232.225H430.175C430.656 231.553 431.135 230.785 431.712 229.727C432.287 228.575 432.863 227.425 433.247 226.273C434.111 224.257 434.687 221.855 434.975 219.169C435.359 216.481 435.647 214.465 435.647 213.025V91.8725C435.647 90.3365 435.552 88.0325 435.264 85.0565C434.975 82.1765 434.208 79.4885 433.055 77.0885C432.48 76.0325 431.903 75.1685 431.424 74.4965C430.943 73.8245 430.559 73.2485 430.175 72.6725H471.167C470.88 72.6725 470.111 74.0165 468.671 76.6085C467.519 79.2005 466.751 81.9845 466.367 84.9605C465.984 87.9365 465.791 90.3365 465.695 91.8725V214.657H473.279ZM653.567 97.7285C650.015 96.6725 642.623 94.8485 631.487 92.3525C623.712 90.7205 615.071 89.6645 605.567 89.2805L597.215 88.8965V144.097C600.48 143.809 603.647 143.521 606.719 143.425C609.791 143.233 612.959 143.137 616.127 143.041C619.295 142.945 622.271 142.849 625.151 142.753C627.647 142.657 631.103 142.561 635.519 142.561C641.759 142.561 650.303 142.945 661.247 143.617L643.967 166.081C636.191 163.391 628.127 161.377 619.679 160.033C615.359 159.265 611.615 158.785 608.639 158.497C605.664 158.209 601.824 158.017 597.215 158.017V216.287H606.335C611.135 216.287 614.88 216.097 617.664 215.713C620.544 215.425 626.111 214.753 634.559 213.601C641.759 212.641 647.424 211.873 651.552 211.105C655.775 210.337 660.479 209.183 665.759 207.841C671.039 206.399 675.839 205.153 680.255 203.903L664.895 232.225H560.351C560.544 232.225 561.503 230.687 563.231 227.713C564.383 225.217 565.055 222.623 565.44 219.743C565.824 216.865 566.015 214.561 566.015 213.025V91.8725C566.015 91.2005 566.015 90.1445 565.919 88.6085C565.824 86.9765 565.631 85.2485 565.343 83.4245C565.152 81.5045 564.671 79.7765 563.999 78.0485C563.519 76.9925 562.847 75.9365 562.079 74.9765C561.407 74.0165 560.735 73.2485 560.351 72.6725H669.119L653.567 97.7285Z" fill="white"/>
<path fill-rule="evenodd" clip-rule="evenodd" d="M368.687 79.0644C364.079 83.5764 360.335 90.2964 354.959 91.7364C351.023 92.7924 349.103 88.2804 347.279 84.2484C346.416 87.7044 342.287 97.4004 338.063 97.8804C332.495 98.4564 329.807 90.9684 326.927 87.2244C326.159 93.1764 325.199 120.824 317.327 123.224C306.095 126.584 307.439 99.4164 307.343 99.8004C307.247 100.28 302.639 102.488 298.799 100.472C292.079 97.0164 287.951 84.7284 285.839 81.1764C284.111 89.9124 284.111 99.0324 282.575 101.72C280.943 104.6 276.335 102.776 273.839 102.776C276.143 110.648 278.639 119.576 275.663 123.32C272.591 127.16 269.807 127.736 265.199 127.256C272.495 131.192 284.591 153.946 283.919 159.127C283.247 164.312 267.503 165.946 261.647 166.231C267.887 169.592 272.783 172.184 278.639 175.544C284.495 178.903 289.583 184.088 294.479 186.008C299.375 188.024 305.039 188.312 308.015 189.56C306.863 195.32 303.791 202.618 301.007 206.842C298.223 211.064 294.575 217.784 289.487 218.552L292.271 226.808C296.591 227.096 297.359 222.104 298.223 219.512C299.087 216.92 311.087 196.954 314.255 191.287C314.255 191.287 322.703 200.216 326.639 202.424C330.671 204.73 338.351 206.072 344.207 208.856C350.063 211.544 353.231 213.752 358.704 216.343C355.631 210.968 349.007 201.56 350.639 197.239C352.271 192.824 360.239 191.48 368.207 191.287C376.271 191 386.735 192.343 391.343 192.44C388.367 188.12 385.104 186.296 385.679 181.592C386.159 176.888 403.343 172.088 403.343 172.088C403.343 172.088 399.215 168.152 400.847 164.216C402.383 160.282 410.735 154.231 416.591 150.008C411.695 150.392 399.407 151.736 393.551 149.528C387.695 147.416 387.503 141.752 387.6 141.752C387.695 141.752 365.903 158.36 363.311 147.608C361.2 139.064 381.36 123.608 385.967 119.384C379.823 118.808 370.511 120.152 370.416 115.544C370.223 108.824 377.424 99.8964 377.424 99.8964C377.424 99.8964 368.591 100.952 367.247 97.9764C365.039 93.0804 367.247 85.8804 368.687 79.0644" fill="white"/>
<path d="M368.687 79.0644C364.079 83.5764 360.335 90.2964 354.959 91.7364C351.023 92.7924 349.103 88.2804 347.279 84.2484C346.416 87.7044 342.287 97.4004 338.063 97.8804C332.495 98.4564 329.807 90.9684 326.927 87.2244C326.159 93.1764 325.199 120.824 317.327 123.224C306.095 126.584 307.439 99.4164 307.343 99.8004C307.247 100.28 302.639 102.488 298.799 100.472C292.079 97.0164 287.951 84.7284 285.839 81.1764C284.111 89.9124 284.111 99.0324 282.575 101.72C280.943 104.6 276.335 102.776 273.839 102.776C276.143 110.648 278.639 119.576 275.663 123.32C272.591 127.16 269.807 127.736 265.199 127.256C272.495 131.192 284.591 153.946 283.919 159.127C283.247 164.312 267.503 165.946 261.647 166.231C267.887 169.592 272.783 172.184 278.639 175.544C284.495 178.903 289.583 184.088 294.479 186.008C299.375 188.024 305.039 188.312 308.015 189.56C306.863 195.32 303.791 202.618 301.007 206.842C298.223 211.064 294.575 217.784 289.487 218.552L292.271 226.808C296.591 227.096 297.359 222.104 298.223 219.512C299.087 216.92 311.087 196.954 314.255 191.287C314.255 191.287 322.703 200.216 326.639 202.424C330.671 204.73 338.351 206.072 344.207 208.856C350.063 211.544 353.231 213.752 358.704 216.343C355.631 210.968 349.007 201.56 350.639 197.239C352.271 192.824 360.239 191.48 368.207 191.287C376.271 191 386.735 192.343 391.343 192.44C388.367 188.12 385.104 186.296 385.679 181.592C386.159 176.888 403.343 172.088 403.343 172.088C403.343 172.088 399.215 168.152 400.847 164.216C402.383 160.282 410.735 154.231 416.591 150.008C411.695 150.392 399.407 151.736 393.551 149.528C387.695 147.416 387.503 141.752 387.6 141.752C387.695 141.752 365.903 158.36 363.311 147.608C361.2 139.064 381.36 123.608 385.967 119.384C379.823 118.808 370.511 120.152 370.416 115.544C370.223 108.824 377.424 99.8964 377.424 99.8964C377.424 99.8964 368.591 100.952 367.247 97.9764C365.039 93.0804 367.247 85.8804 368.687 79.0644V79.0644Z" stroke="white" stroke-width="2.66667"/>
<path fill-rule="evenodd" clip-rule="evenodd" d="M314.111 185.569L314.207 185.761L314.495 185.664L314.687 185.761L352.031 209.473L352.415 208.897L315.551 185.376L350.783 172.992L350.687 173.089L384.575 189.313L384.959 188.641L351.647 172.705L375.455 164.353L399.359 171.264L399.455 170.593L376.703 163.969L404.927 154.081L404.735 153.408L376.511 163.201L387.647 146.305L386.975 145.921L375.359 163.681L315.263 184.608L338.975 139.296L378.335 122.593L378.047 121.824L339.551 138.24L352.703 112.897L373.152 103.777L372.768 103.104L353.279 111.841L362.975 93.2155L362.303 92.8329L352.511 111.552L349.152 91.6795L348.383 91.8729L351.936 112.705L338.879 137.856L330.239 95.8089L329.471 96.0009L338.303 138.912L314.591 184.32L305.087 150.529L305.279 150.145L304.895 149.953L299.039 129.025L306.143 103.873L305.375 103.68L298.655 127.68L288.959 93.0249L288.287 93.2155L297.695 126.817L279.647 106.848L279.071 107.328L298.175 128.449L303.935 149.281L274.271 129.408L273.791 129.985L304.223 150.432L313.823 184.512L273.695 167.904L273.311 168.576L314.015 185.376V185.473L314.111 185.569ZM367.247 97.9769C368.591 100.953 377.424 99.8969 377.424 99.8969C377.424 99.8969 370.223 108.824 370.416 115.544C370.511 120.152 379.823 118.809 385.967 119.384C381.36 123.608 361.2 139.065 363.311 147.608C365.903 158.361 387.695 141.753 387.6 141.753C387.503 141.753 387.695 147.417 393.552 149.529C399.407 151.736 411.695 150.393 416.591 150.009C410.735 154.232 402.384 160.281 400.847 164.216C399.216 168.152 403.343 172.089 403.343 172.089C403.343 172.089 386.159 176.888 385.679 181.593C385.104 186.297 388.367 188.121 391.343 192.44C386.735 192.344 376.272 191 368.207 191.288C360.239 191.481 352.272 192.824 350.639 197.24C349.007 201.56 355.631 210.969 358.704 216.344C353.231 213.753 350.063 211.544 344.207 208.857C338.351 206.073 330.671 204.729 326.639 202.425C322.703 200.216 314.255 191.288 314.255 191.288C311.087 196.953 299.087 216.921 298.223 219.513C297.36 222.104 296.591 227.097 292.271 226.809L289.487 218.552C294.575 217.784 298.223 211.065 301.007 206.841C303.791 202.617 306.863 195.32 308.015 189.56C305.039 188.313 299.375 188.025 294.479 186.009C289.583 184.089 284.496 178.904 278.639 175.544C272.783 172.185 267.888 169.593 261.647 166.232C267.503 165.945 283.248 164.313 283.919 159.128C284.591 153.945 272.496 131.193 265.199 127.257C269.807 127.736 272.591 127.16 275.664 123.32C278.639 119.576 276.143 110.649 273.839 102.777C276.335 102.777 280.944 104.6 282.575 101.72C284.111 99.0329 284.111 89.9115 285.839 81.1769C287.951 84.7289 292.08 97.0155 298.799 100.473C302.639 102.488 307.248 100.281 307.343 99.7995C307.44 99.4169 306.095 126.585 317.328 123.225C325.199 120.824 326.159 93.1769 326.927 87.2249C329.807 90.9675 332.496 98.4569 338.063 97.8795C342.287 97.4009 346.416 87.7049 347.279 84.2489C349.104 88.2809 351.023 92.7915 354.959 91.7355C360.335 90.2955 364.079 83.5755 368.687 79.0649C367.247 85.8795 365.039 93.0809 367.247 97.9769" fill="#EB3D2C"/>
<path d="M1273.14 93.128C1284.27 95.624 1291.66 97.448 1295.22 98.504L1310.77 73.448H1202C1202.38 74.024 1203.06 74.792 1203.73 75.752C1204.5 76.712 1205.17 77.768 1205.65 78.824C1206.32 80.552 1206.8 82.28 1206.99 84.2C1207.28 86.024 1207.47 87.752 1207.57 89.384C1207.66 90.9192 1207.66 91.9748 1207.66 92.6469V92.648V213.8C1207.66 215.336 1207.47 217.64 1207.09 220.519C1206.7 223.399 1206.03 225.992 1204.88 228.488C1203.15 231.463 1202.19 233 1202 233H1306.54L1321.9 204.679C1317.49 205.928 1312.69 207.175 1307.41 208.616C1302.13 209.959 1297.42 211.112 1293.2 211.88C1289.07 212.648 1283.41 213.416 1276.21 214.376C1267.76 215.528 1262.19 216.2 1259.31 216.488C1256.53 216.872 1252.78 217.063 1247.98 217.063H1238.86V158.792C1243.47 158.792 1247.31 158.984 1250.29 159.272C1253.26 159.56 1257.01 160.04 1261.33 160.808C1269.78 162.152 1277.84 164.167 1285.62 166.856L1302.9 144.392C1291.95 143.72 1283.41 143.336 1277.17 143.336C1272.75 143.336 1269.3 143.432 1266.8 143.528C1263.92 143.624 1260.94 143.72 1257.78 143.816L1257.77 143.816C1254.61 143.912 1251.44 144.008 1248.37 144.2C1245.3 144.296 1242.13 144.584 1238.86 144.872V89.672L1247.22 90.056C1256.72 90.44 1265.36 91.496 1273.14 93.128Z" fill="white"/>
<path fill-rule="evenodd" clip-rule="evenodd" d="M1150.27 232H1096.73V213.52L1100.3 213.42L1100.6 213.369H1100.95H1101.25H1101.55L1101.91 213.319H1102.26L1102.61 213.269H1102.96L1103.31 213.219H1103.66L1104.01 213.168L1104.37 213.118H1104.72L1105.07 213.068L1105.47 213.018L1105.82 212.967L1106.17 212.917L1106.53 212.868L1106.88 212.817L1107.28 212.766L1107.63 212.716L1107.98 212.667L1108.28 212.616L1108.64 212.515L1108.99 212.465L1109.29 212.365L1109.64 212.315L1109.94 212.265L1110.24 212.164L1110.54 212.063L1110.74 212.013L1110.84 211.963L1111 211.863L1111.15 211.763L1111.3 211.611L1111.45 211.461L1111.65 211.26L1111.8 211.059L1111.95 210.808L1112.05 210.607L1112.15 210.356L1112.25 210.155L1112.3 209.904L1112.35 209.653V209.352V94.3981H1095.52L1094.61 94.4483H1093.81L1093.06 94.5488L1092.35 94.599L1091.75 94.6994L1091.2 94.7999L1090.75 94.9505L1090.3 95.1012L1089.94 95.2016L1089.59 95.3523L1089.34 95.5029L1089.09 95.6536L1088.89 95.754L1088.74 95.9047L1088.64 96.0051L1088.49 96.1558L1088.44 96.2562L1088.34 96.3567L1088.29 96.5073L1088.19 96.6078L1088.14 96.7584L1088.09 96.9091L1088.04 97.0597V97.2104L1087.99 97.3611L1087.94 97.562V97.7628V97.9637L1087.89 98.1646V98.3655V98.5663V102.182H1057V72H1190V102.182H1159.12V98.5663V98.3655V98.1646L1159.06 97.9637V97.7628V97.562L1159.01 97.3611L1158.97 97.2104V97.0597L1158.91 96.9091L1158.86 96.7584L1158.81 96.6078L1158.71 96.5073L1158.66 96.3567L1158.56 96.2562L1158.51 96.1558L1158.36 96.0051L1158.26 95.9047L1158.11 95.754L1157.91 95.6536L1157.66 95.5029L1157.41 95.3523L1157.06 95.2016L1156.7 95.1012L1156.25 94.9505L1155.8 94.7999L1155.25 94.6994L1154.65 94.599L1153.94 94.5488L1153.19 94.4483H1152.39L1151.48 94.3981H1134.65V209.352V209.653L1134.7 209.904L1134.75 210.155L1134.85 210.356L1134.95 210.607L1135.05 210.808L1135.2 211.059L1135.35 211.26L1135.55 211.461L1135.7 211.611L1135.85 211.763L1136 211.863L1136.16 211.963L1136.26 212.013L1136.46 212.063L1136.76 212.164L1137.06 212.265L1137.36 212.315L1137.71 212.365L1138.01 212.465L1138.37 212.515L1138.72 212.616L1139.02 212.667L1139.37 212.716L1139.72 212.766L1140.12 212.817L1140.47 212.868L1140.83 212.917L1141.18 212.967L1141.53 213.018L1141.93 213.068L1142.28 213.118H1142.63L1142.99 213.168L1143.34 213.219H1143.69L1144.04 213.269H1144.39L1144.74 213.319H1145.09L1145.45 213.369H1145.75H1146.05H1146.4L1146.7 213.42L1150.27 213.52V232Z" fill="white"/>
<path fill-rule="evenodd" clip-rule="evenodd" d="M982.001 90.9407C988.337 91.0354 995.249 92.7634 1001.3 96.0274C1007.35 99.2914 1012.43 104.381 1016.37 111.101C1020.4 117.915 1022.42 126.075 1022.42 135.773V140.16H1022.34V168.687C1022.34 178.384 1020.32 186.544 1016.29 193.359C1012.26 200.079 1007.26 205.168 1001.22 208.432C995.072 211.696 987.968 213.424 981.632 213.519C975.296 213.424 968.384 211.696 962.336 208.432C956.288 205.168 951.2 200.079 947.264 193.359C943.232 186.544 941.216 178.384 941.216 168.687V164.299H941.297V135.773C941.297 126.075 943.313 117.915 947.345 111.101C951.377 104.381 956.369 99.2914 962.417 96.0274C968.561 92.7634 975.665 91.0354 982.001 90.9407ZM913.295 140.16C913.566 127.01 915.674 119.572 919.697 109.467C923.92 98.5234 930.256 89.6914 938.705 82.7807C947.248 75.8674 957.425 73.0834 969.233 72.4114C977.681 71.9314 986.033 71.8354 994.481 72.3167C1006.29 72.9887 1016.47 75.8674 1025.01 82.7807C1033.46 89.6914 1039.89 98.5234 1044.11 109.467C1048.34 120.317 1050.45 129.243 1050.45 143.163V164.299H1050.34C1050.07 177.45 1047.96 184.887 1043.94 194.992C1039.71 205.936 1033.38 214.768 1024.93 221.679C1016.39 228.592 1006.21 231.376 994.4 232.048C985.952 232.528 977.6 232.624 969.152 232.143C957.344 231.471 947.168 228.592 938.624 221.679C930.176 214.768 923.744 205.936 919.52 194.992C915.296 184.143 913.184 175.216 913.184 161.296V140.16H913.295Z" fill="white"/>
<path fill-rule="evenodd" clip-rule="evenodd" d="M905.448 75.744C903.507 77.5094 902.457 78.9025 900.521 81.4718L900.5 81.5001C898.909 83.6115 897.917 85.723 896.597 88.5317C896.042 89.7137 895.428 91.0192 894.688 92.5001C892.188 97.5002 844.88 232.672 844.88 232.672H819L819.001 232.67H818L761.896 92.2C760.5 88.5001 758.5 84.5001 758.5 84.5001C758.5 84.5001 756.5 81.0001 753 75.9997C752.66 75.3874 752.135 74.7148 751.789 74.2725C751.647 74.0907 751.536 73.9479 751.48 73.864C751.384 73.72 751.312 73.576 751.24 73.432C751.168 73.288 751.096 73.144 751 73H792.096C791.904 73.288 791.688 73.6479 791.436 74.0679C791.184 74.4879 790.896 74.968 790.56 75.496C789.984 76.648 789.504 77.704 789.216 78.568C788.256 80.776 787.776 83.176 787.584 85.96C787.466 87.6188 787.728 89.0583 787.946 90.2559C788.082 90.9988 788.2 91.6487 788.2 92.2L831.384 196.837L869.688 86.0001C869.688 86.0001 872 80.5001 872 77.5001C872 75.5061 871.222 73.9874 870.729 73.0239C870.48 72.5379 870.304 72.1931 870.336 72H910.688C910.208 72 908.192 73.248 905.448 75.744Z" fill="white"/>
</svg>
